STARTFONT 2.3
FONT -FontForge-Lobster-Book-R-Normal--20-200-72-72-P-117-ISO10646-1
SIZE 20 72 72  2
FONTBOUNDINGBOX 40 30 -9 -10
COMMENT "Generated by fontforge, http://fontforge.sourceforge.net"
COMMENT "Copyright 2010 The Lobster Project Authors (https://github.com/impallari/The-Lobster-Font), with Reserved Font Name "Lobster"."
STARTPROPERTIES 41
FOUNDRY "FontForge"
FAMILY_NAME "Lobster"
WEIGHT_NAME "Book"
SLANT "R"
SETWIDTH_NAME "Normal"
ADD_STYLE_NAME ""
PIXEL_SIZE 20
POINT_SIZE 200
RESOLUTION_X 72
RESOLUTION_Y 72
SPACING "P"
AVERAGE_WIDTH 117
CHARSET_REGISTRY "ISO10646"
CHARSET_ENCODING "1"
FONTNAME_REGISTRY ""
CHARSET_COLLECTIONS "ISO8859-2 ISO8859-5 ISO8859-9 ISO8859-4 ISO10646-1"
BITS_PER_PIXEL 2
FONT_NAME "Lobster-Regular"
FACE_NAME "Lobster Regular"
COPYRIGHT "Copyright 2010 The Lobster Project Authors (https://github.com/impallari/The-Lobster-Font), with Reserved Font Name "Lobster"."
FONT_VERSION "2.100"
FONT_ASCENT 16
FONT_DESCENT 4
UNDERLINE_POSITION -2
UNDERLINE_THICKNESS 1
X_HEIGHT 10
CAP_HEIGHT 14
DEFAULT_CHAR 1
RAW_ASCENT 800
RAW_DESCENT 200
NORM_SPACE 4
RELATIVE_WEIGHT 40
RELATIVE_SETWIDTH 50
SUPERSCRIPT_X 0
SUPERSCRIPT_Y 7
SUPERSCRIPT_SIZE 12
SUBSCRIPT_X 0
SUBSCRIPT_Y 1
SUBSCRIPT_SIZE 12
AVG_LOWERCASE_WIDTH 94
AVG_UPPERCASE_WIDTH 122
ENDPROPERTIES
CHARS 1148
STARTCHAR NULL.dup1
ENCODING 0
SWIDTH 600 0
DWIDTH 12 0
BBX 1 1 0 0
BITMAP
00
ENDCHAR
STARTCHAR nonmarkingreturn
ENCODING 13
SWIDTH 600 0
DWIDTH 12 0
BBX 1 1 0 0
BITMAP
00
ENDCHAR
STARTCHAR space
ENCODING 32
SWIDTH 217 0
DWIDTH 4 0
BBX 1 1 0 0
BITMAP
00
ENDCHAR
STARTCHAR exclam
ENCODING 33
SWIDTH 257 0
DWIDTH 5 0
BBX 7 15 0 0
BITMAP
0164
02F4
02F0
03E0
03D0
07C0
0780
0B80
0B40
0F00
0500
0000
2D00
7E00
2D00
ENDCHAR
STARTCHAR quotedbl
ENCODING 34
SWIDTH 353 0
DWIDTH 7 0
BBX 7 5 1 10
BITMAP
0F3C
1E78
2CB4
38A0
74D0
ENDCHAR
STARTCHAR numbersign
ENCODING 35
SWIDTH 659 0
DWIDTH 13 0
BBX 11 13 1 1
BITMAP
009090
00D0D0
01D1D0
01C1C0
2FFFF8
179790
034340
074740
BFFFF0
1A5A40
0D0E00
1D0D00
181800
ENDCHAR
STARTCHAR dollar
ENCODING 36
SWIDTH 548 0
DWIDTH 11 0
BBX 11 21 0 -3
BITMAP
000180
000240
000240
006F90
02E6B4
03D678
07E9B4
03FC00
02FC00
00FE00
003F80
003FD0
2E3BE0
7D67E0
B493E0
B497C0
3EEF40
0BF800
024000
024000
030000
ENDCHAR
STARTCHAR percent
ENCODING 37
SWIDTH 796 0
DWIDTH 16 0
BBX 15 15 1 0
BITMAP
0BD00B00
2DB00D00
78742800
B4747400
F0B4A000
F0B1C000
F0E38000
B2C707E0
7F4D1E74
002C3C38
00347478
00A0B474
01D0B4B0
02807AD0
07002F40
ENDCHAR
STARTCHAR ampersand
ENCODING 38
SWIDTH 682 0
DWIDTH 14 0
BBX 13 15 0 0
BITMAP
002F9000
01F9F000
02E0B400
03D0F400
03D05000
02E00000
01F80080
0BE0ABC0
2F83FF80
7F07A900
BE012400
BF007000
BF41D000
3FFF4000
0BF90000
ENDCHAR
STARTCHAR quotesingle
ENCODING 39
SWIDTH 196 0
DWIDTH 4 0
BBX 3 5 2 10
BITMAP
3C
74
B0
D0
40
ENDCHAR
STARTCHAR parenleft
ENCODING 40
SWIDTH 437 0
DWIDTH 9 0
BBX 8 20 3 -5
BITMAP
0009
0074
01E0
0780
0F40
1E00
3D00
7C00
B800
B800
F400
F400
F400
F400
B400
7800
3800
2C00
0900
0100
ENDCHAR
STARTCHAR parenright
ENCODING 41
SWIDTH 413 0
DWIDTH 8 0
BBX 8 20 -1 -5
BITMAP
0180
00E0
00B0
0074
0078
003C
003C
003D
003D
007C
007C
00B8
00F4
01F0
02D0
0780
0B00
2C00
A000
4000
ENDCHAR
STARTCHAR asterisk
ENCODING 42
SWIDTH 515 0
DWIDTH 10 0
BBX 8 8 1 7
BITMAP
02C0
36DD
3FFD
0BE0
6FFC
3ADD
02C4
0280
ENDCHAR
STARTCHAR plus
ENCODING 43
SWIDTH 442 0
DWIDTH 9 0
BBX 8 7 0 3
BITMAP
00E0
01D0
01D0
7FFF
6BE9
0340
0740
ENDCHAR
STARTCHAR comma
ENCODING 44
SWIDTH 216 0
DWIDTH 4 0
BBX 4 5 0 -2
BITMAP
3C
7D
7D
18
20
ENDCHAR
STARTCHAR hyphen
ENCODING 45
SWIDTH 290 0
DWIDTH 6 0
BBX 5 2 0 4
BITMAP
7F80
1500
ENDCHAR
STARTCHAR period
ENCODING 46
SWIDTH 263 0
DWIDTH 5 0
BBX 4 3 0 0
BITMAP
2D
7E
2D
ENDCHAR
STARTCHAR slash
ENCODING 47
SWIDTH 311 0
DWIDTH 6 0
BBX 6 20 0 -5
BITMAP
00A0
00E0
00D0
01C0
02C0
0280
0380
0340
0700
0B00
0A00
0D00
1D00
1C00
2800
2800
3400
7400
7000
A000
ENDCHAR
STARTCHAR zero
ENCODING 48
SWIDTH 546 0
DWIDTH 11 0
BBX 11 15 0 0
BITMAP
006F90
01F5F4
07E0B8
0FC0BC
1F80BC
3F40BC
3F00BC
7E00F8
7E00F8
BD01F4
BD02F0
7D03D0
7E0B80
2F6F00
0BF800
ENDCHAR
STARTCHAR one
ENCODING 49
SWIDTH 317 0
DWIDTH 6 0
BBX 7 14 0 0
BITMAP
01B4
2FF0
07E0
07E0
07D0
0BC0
0FC0
0F80
1F80
2F40
2F00
3F00
7E00
7D00
ENDCHAR
STARTCHAR two
ENCODING 50
SWIDTH 492 0
DWIDTH 10 0
BBX 11 15 -1 0
BITMAP
00BF80
03D7E0
0742F4
0B42F4
07C2F4
0143E0
000BC0
001F00
007800
01D000
074000
1E5010
3FFFF0
7FFFE0
256F80
ENDCHAR
STARTCHAR three
ENCODING 51
SWIDTH 514 0
DWIDTH 10 0
BBX 10 15 0 0
BITMAP
01BE40
07D7D0
0B42F0
0F42F0
0783E0
000B80
007E00
002F40
000FD0
2E0BE0
BD07E0
F407D0
B40FC0
7D6F00
1BE400
ENDCHAR
STARTCHAR four
ENCODING 52
SWIDTH 476 0
DWIDTH 10 0
BBX 10 15 0 0
BITMAP
00B400
00BC00
00BC00
00F440
02E280
03C340
0B4740
1C0B50
7BEFE0
FFFFD0
407E40
003D00
007C00
00B800
00F800
ENDCHAR
STARTCHAR five
ENCODING 53
SWIDTH 517 0
DWIDTH 10 0
BBX 10 15 0 0
BITMAP
010050
03FFF0
07FFD0
074000
0B0000
0E0000
0FBE40
195FC0
000BD0
1907E0
7E07E0
B80BD0
B80FC0
7D6F40
1BE400
ENDCHAR
STARTCHAR six
ENCODING 54
SWIDTH 500 0
DWIDTH 10 0
BBX 10 15 0 0
BITMAP
006F90
01F5F0
07D0B0
0F80E0
2F4000
3F0000
7E7F40
7F9BD0
BE03E0
BD03E0
BD03E0
BD07D0
7D0B80
2F5E00
0BE400
ENDCHAR
STARTCHAR seven
ENCODING 55
SWIDTH 464 0
DWIDTH 9 0
BBX 10 15 1 0
BITMAP
2F9050
BFFFC0
95AF40
001E00
003D00
00B800
02F000
07D000
0F8000
2F4000
3F0000
7E0000
7E0000
7E0000
2E0000
ENDCHAR
STARTCHAR eight
ENCODING 56
SWIDTH 499 0
DWIDTH 10 0
BBX 10 15 0 0
BITMAP
00BF40
07E6E0
0BC0F0
0FC1F0
0FD2D0
0BFB80
02FD00
06FF40
2E6FC0
7C0FD0
F80BE0
F807E0
B80BC0
7E6F40
1BF800
ENDCHAR
STARTCHAR nine
ENCODING 57
SWIDTH 489 0
DWIDTH 10 0
BBX 10 15 0 0
BITMAP
01BE00
0B9BC0
1F07D0
3D03E0
7D03E0
7C07E0
7C07E0
3E1FE0
1FEBD0
000BC0
000F80
741F40
B43E00
B9F800
2F9000
ENDCHAR
STARTCHAR colon
ENCODING 58
SWIDTH 267 0
DWIDTH 5 0
BBX 4 8 1 1
BITMAP
2D
3F
2E
00
00
B4
FC
B8
ENDCHAR
STARTCHAR semicolon
ENCODING 59
SWIDTH 276 0
DWIDTH 6 0
BBX 4 10 1 -2
BITMAP
2E
3F
2E
00
10
F8
F8
74
20
80
ENDCHAR
STARTCHAR less
ENCODING 60
SWIDTH 358 0
DWIDTH 7 0
BBX 7 7 0 2
BITMAP
0018
01B8
1BD0
BD00
7E00
0BD0
00B0
ENDCHAR
STARTCHAR equal
ENCODING 61
SWIDTH 515 0
DWIDTH 10 0
BBX 10 6 0 2
BITMAP
0FFFD0
1FFFC0
000000
000000
3FFF40
7FFF00
ENDCHAR
STARTCHAR greater
ENCODING 62
SWIDTH 362 0
DWIDTH 7 0
BBX 7 7 0 2
BITMAP
2400
2F40
06E4
00BC
07E4
7E40
A400
ENDCHAR
STARTCHAR question
ENCODING 63
SWIDTH 441 0
DWIDTH 9 0
BBX 8 15 1 0
BITMAP
1BE4
79BD
B07E
F47E
B8BC
01F4
03D0
0B00
1D00
2800
2400
0000
B800
FC00
B800
ENDCHAR
STARTCHAR at
ENCODING 64
SWIDTH 688 0
DWIDTH 14 0
BBX 13 14 0 -2
BITMAP
002BF800
01F95F00
0B800780
1E0003C0
3C2EE2C0
78B9D3C0
B1E2C380
F2D38B40
E2D79E00
E1FAF800
E0004000
B0009000
7D06D000
1BFE4000
ENDCHAR
STARTCHAR A
ENCODING 65
SWIDTH 668 0
DWIDTH 13 0
BBX 14 17 0 -2
BITMAP
00000BE0
00003FE0
0000EBD0
00038BC0
000B0FC0
001E0F80
1BFE5F80
79B9BF40
B4F02F00
52E03F00
03D07E00
07C07D00
0B80BD00
0F40FC00
1F40F800
1F000000
0B400000
ENDCHAR
STARTCHAR B
ENCODING 66
SWIDTH 641 0
DWIDTH 13 0
BBX 12 15 0 0
BITMAP
006FE4
07D57D
1E691E
78BD1E
B4BC2D
B0FCB4
70FFF8
01F9BE
02F43F
02F02F
03E02F
07E03E
07D47D
0BDFF8
0FCBE0
ENDCHAR
STARTCHAR C
ENCODING 67
SWIDTH 497 0
DWIDTH 10 0
BBX 11 15 0 0
BITMAP
006FD0
01F974
07F038
0FD078
1FC060
2F4000
3F4000
7F0000
7E0000
BE0000
BE0000
BF0014
7F40A0
2FFF80
0BF900
ENDCHAR
STARTCHAR D
ENCODING 68
SWIDTH 663 0
DWIDTH 13 0
BBX 13 15 0 0
BITMAP
006FE400
07D5BD00
2E691F40
78BD0F80
B4BC0F80
F0FC0FC0
B1F80F80
11F40F80
02F41F80
03F01F40
03E02F00
07E07D00
0BD0BC00
0BE6F400
0FEF9000
ENDCHAR
STARTCHAR E
ENCODING 69
SWIDTH 459 0
DWIDTH 9 0
BBX 10 15 0 0
BITMAP
006F80
01F5E0
03E0A0
07D0E0
07D040
03E000
02F800
0BD000
2F8000
7F0000
BE0000
BE0010
BF4180
7FFE00
1BE400
ENDCHAR
STARTCHAR F
ENCODING 70
SWIDTH 459 0
DWIDTH 9 0
BBX 12 15 0 0
BITMAP
01BFFF
1EBFFD
38BD00
B4BC00
B0FC00
B1F800
71FFD0
02F540
03F000
03E000
07E000
07D000
0BD000
0FC000
0F8000
ENDCHAR
STARTCHAR G
ENCODING 71
SWIDTH 578 0
DWIDTH 12 0
BBX 12 19 0 -4
BITMAP
006FE0
02F97C
0BE02D
2F803D
3F4024
7F0000
BE0014
BE00B8
BD00F8
7E02F4
2F47F0
0BFAF0
0003E0
0007D0
0BE7D0
1D1BC0
2C0F40
1D2E00
0BF800
ENDCHAR
STARTCHAR H
ENCODING 72
SWIDTH 665 0
DWIDTH 13 0
BBX 14 15 0 0
BITMAP
006F03E0
07BE07E0
2D7E0BD0
78BD0BC0
B4BC0FC0
B0FC1F80
75FFFF80
01F96F40
02F42F00
03F03F00
03E07E00
07E07D00
07D0BD00
0BD0FC00
0FC0F800
ENDCHAR
STARTCHAR I
ENCODING 73
SWIDTH 375 0
DWIDTH 8 0
BBX 8 15 0 0
BITMAP
006E
07BE
2D7D
78BD
B0FC
B0F8
71F8
02F4
02F0
03F0
03E0
07E0
0BD0
0BC0
0FC0
ENDCHAR
STARTCHAR J
ENCODING 74
SWIDTH 536 0
DWIDTH 11 0
BBX 12 19 0 -4
BITMAP
0001BD
000BFD
0038BC
00B0F8
00E1F8
01E1F4
00A2F4
0003F0
0003E0
0007E0
000BD0
000BC0
000FC0
001F80
2F9F40
746F40
B03E00
74BD00
2FE400
ENDCHAR
STARTCHAR K
ENCODING 75
SWIDTH 601 0
DWIDTH 12 0
BBX 13 15 0 0
BITMAP
00AE0780
0BBE0F00
2D7D2C00
B4BCB000
B0FDD000
B0FF4000
21FFE400
02F4F800
02F0BC00
03F0F800
07E1F800
07D1F400
0BD2F000
0BC2F000
0FC1F400
ENDCHAR
STARTCHAR L
ENCODING 76
SWIDTH 379 0
DWIDTH 8 0
BBX 13 20 0 -5
BITMAP
006E0000
07BE0000
2D7D0000
74BD0000
B0FC0000
B0F80000
71F80000
02F40000
02F00000
03F00000
07E00000
07D00000
0BD00000
0FC00000
0FE00000
01BD0000
001FD000
0007FFC0
0000BF80
00001F40
ENDCHAR
STARTCHAR M
ENCODING 77
SWIDTH 787 0
DWIDTH 16 0
BBX 15 15 1 0
BITMAP
00AF40FC
07AF41FC
1D3F02F8
387F07F8
74BF0BF4
B5FF0FF4
26EF1FF4
03AF3BF0
077F77F0
0B3FB3E0
0E3FD7E0
1D3FC7D0
2C3F8BD0
343F4BD0
703E0FC0
ENDCHAR
STARTCHAR N
ENCODING 78
SWIDTH 668 0
DWIDTH 13 0
BBX 15 15 0 0
BITMAP
01BE00B4
0BBF00F0
3D7F40E0
74BF81E0
B4FF81D0
B0FFC2C0
75EBD3C0
16D7D380
02D7E780
03C3FB40
0382FB00
0781FF00
0B41FE00
0B00FD00
0F00BD00
ENDCHAR
STARTCHAR O
ENCODING 79
SWIDTH 665 0
DWIDTH 13 0
BBX 13 15 0 0
BITMAP
006BF800
02E56F00
1F5B4F80
3C7D0BC0
B4F80BC0
B6F40BC0
77F00BC0
07E00FC0
0BD00F80
0BD02F40
0BD03F00
0BC07D00
0BD1F800
07FBE000
01BE4000
ENDCHAR
STARTCHAR P
ENCODING 80
SWIDTH 573 0
DWIDTH 11 0
BBX 12 15 0 0
BITMAP
006FE0
0795BC
2D692E
78BD1E
B4BC1E
F0FC2E
B1F83C
01F4B4
02FBD0
03F500
03E000
07E000
0BD000
0BC000
0FC000
ENDCHAR
STARTCHAR Q
ENCODING 81
SWIDTH 665 0
DWIDTH 13 0
BBX 13 17 0 -2
BITMAP
006BF800
02E56F00
1F5B4F80
3C7D0BC0
78FC0BC0
B6F40BC0
77F00BC0
17E00FC0
0BE00F80
0BD01F40
0BD02F00
0BC07D00
0BEAF800
07E7F000
01BFE000
0000FE00
00007D00
ENDCHAR
STARTCHAR R
ENCODING 82
SWIDTH 601 0
DWIDTH 12 0
BBX 12 15 0 0
BITMAP
006FE0
0B957D
2D692E
78BD2E
B0FC3D
B0F9B4
61FFF4
02F5F8
02F0BC
03F0F8
03E0F8
07D1F4
0BD2F0
0BC2F0
0FC1F4
ENDCHAR
STARTCHAR S
ENCODING 83
SWIDTH 570 0
DWIDTH 11 0
BBX 11 15 0 0
BITMAP
002FE0
01F978
02F03C
03F07C
02F464
01FD00
00BF00
002FC0
010FE0
1FC7F0
3E03F4
7C02F0
7C03E0
2E5FC0
06F900
ENDCHAR
STARTCHAR T
ENCODING 84
SWIDTH 481 0
DWIDTH 10 0
BBX 15 15 0 0
BITMAP
01BFA414
1E5FFFF0
381FEFD0
B41F8000
B02F4000
F03F0000
B03F0000
107E0000
00BD0000
00BD0000
00FC0000
00F80000
01F80000
02F40000
02F00000
ENDCHAR
STARTCHAR U
ENCODING 85
SWIDTH 716 0
DWIDTH 14 0
BBX 15 15 0 0
BITMAP
00AF40BC
0BAF40FC
2D3F00F8
B47E01F4
F07D02F4
E0BC02F0
70F803F0
01F807E0
01F407D0
02F00BD0
03F00FC0
03E01F40
02F07F00
01FFFC00
006FE000
ENDCHAR
STARTCHAR V
ENCODING 86
SWIDTH 615 0
DWIDTH 12 0
BBX 14 15 0 0
BITMAP
006F00E0
07BF01C0
2D3F0280
783F0340
B03F0700
B03F0A00
703F0D00
003F1C00
003F2800
003F3400
002F6000
002F9000
002FC000
002F8000
002F4000
ENDCHAR
STARTCHAR W
ENCODING 87
SWIDTH 962 0
DWIDTH 19 0
BBX 21 15 0 0
BITMAP
006F00FC0340
07BF01FC0700
2D3F02FC0A00
783F03FC0D00
B03F07FC1C00
B03F0AFC2800
703F0DFC3400
003F1CFC7000
003F28FC9000
003F34FCC000
002F60FD8000
002F90FE4000
002FC0FF0000
002F80FE0000
002F40BD0000
ENDCHAR
STARTCHAR X
ENCODING 88
SWIDTH 620 0
DWIDTH 12 0
BBX 13 15 0 0
BITMAP
006F0340
07BF4A00
2D2F5C00
782FA800
B01FF000
B01FD000
700FD000
000BD000
000BE000
001FF000
002BF000
0073F400
00D2F800
0181F800
0341FC00
ENDCHAR
STARTCHAR Y
ENCODING 89
SWIDTH 620 0
DWIDTH 12 0
BBX 14 15 0 0
BITMAP
006F00A0
07BF40D0
2D2F81C0
781F8240
B01FC700
B00FDA00
700BEC00
0007F800
0007F400
0007F000
0007E000
000BE000
000FD000
000FC000
001FC000
ENDCHAR
STARTCHAR Z
ENCODING 90
SWIDTH 542 0
DWIDTH 11 0
BBX 11 15 0 0
BITMAP
07FFF8
0F57F4
1F07E0
040FD0
001F80
003F40
007E00
00FD00
01F800
03F400
0BE000
0FD050
2F80F0
3F55E0
BFFF80
ENDCHAR
STARTCHAR bracketleft
ENCODING 91
SWIDTH 400 0
DWIDTH 8 0
BBX 9 20 0 -5
BITMAP
00FF40
01E500
01E000
02D000
03D000
03C000
078000
0B8000
0B4000
0F0000
0F0000
1E0000
2D0000
2D0000
3C0000
7C0000
780000
B40000
B50000
FF4000
ENDCHAR
STARTCHAR backslash
ENCODING 92
SWIDTH 362 0
DWIDTH 7 0
BBX 6 20 1 -5
BITMAP
D000
E000
A000
7000
7400
3400
2800
2C00
1C00
0D00
0E00
0A00
0B00
0700
0340
0380
0280
01C0
01D0
00D0
ENDCHAR
STARTCHAR bracketright
ENCODING 93
SWIDTH 400 0
DWIDTH 8 0
BBX 9 20 -1 -5
BITMAP
00FF40
005F00
001E00
001E00
002D00
003C00
003C00
007800
00B400
00B400
00F000
01F000
01E000
02D000
02D000
03C000
078000
078000
5B4000
FF4000
ENDCHAR
STARTCHAR asciicircum
ENCODING 94
SWIDTH 421 0
DWIDTH 8 0
BBX 6 4 1 11
BITMAP
0040
03C0
1ED0
6460
ENDCHAR
STARTCHAR underscore
ENCODING 95
SWIDTH 444 0
DWIDTH 9 0
BBX 7 2 1 -1
BITMAP
FFFC
5550
ENDCHAR
STARTCHAR grave
ENCODING 96
SWIDTH 201 0
DWIDTH 4 0
BBX 3 4 0 11
BITMAP
78
38
2C
0C
ENDCHAR
STARTCHAR a
ENCODING 97
SWIDTH 526 0
DWIDTH 11 0
BBX 12 10 -1 0
BITMAP
01BEF4
07E7F4
0FC2F0
2F43F0
3F07E0
3E07D0
7E0BD1
7E1FC2
3FFBFD
1B92E4
ENDCHAR
STARTCHAR b
ENCODING 98
SWIDTH 444 0
DWIDTH 9 0
BBX 8 14 0 0
BITMAP
0680
0F80
1F80
2F40
2FBD
3F5E
3E0F
7D0F
BD0F
BC1E
F82D
F87C
FFF4
6F90
ENDCHAR
STARTCHAR c
ENCODING 99
SWIDTH 384 0
DWIDTH 8 0
BBX 9 10 -1 0
BITMAP
01BE00
07E740
0FC740
1F4100
3F0000
3F0000
7E0000
7E0080
3F5600
1BE400
ENDCHAR
STARTCHAR d
ENCODING 100
SWIDTH 525 0
DWIDTH 11 0
BBX 12 14 -1 0
BITMAP
000069
0000BC
0000FC
0000F8
01BEF8
07E7F4
0FC2F0
2F43F0
3F07E0
3F07E0
7E0BD0
7E0FC2
3F6FD5
1BD7E4
ENDCHAR
STARTCHAR e
ENCODING 101
SWIDTH 384 0
DWIDTH 8 0
BBX 9 10 -1 0
BITMAP
01BE00
07E740
0F8740
2F4B00
3F6D00
3FE400
7E0000
7E0180
3F5600
1BE400
ENDCHAR
STARTCHAR f
ENCODING 102
SWIDTH 267 0
DWIDTH 5 0
BBX 12 20 -4 -5
BITMAP
0001F8
000BDA
000F85
001F80
002F40
002FE0
003F40
007E00
007E00
00BD00
00BC00
00FC00
01F800
01F400
02F400
1FF000
B7E000
C7E000
DBC000
7E4000
ENDCHAR
STARTCHAR g
ENCODING 103
SWIDTH 507 0
DWIDTH 10 0
BBX 12 15 -1 -5
BITMAP
01BEF4
07E7F4
0FC2F0
2F43F0
3F07E0
3E07D0
7E0BD2
7F1FC6
3FFF98
1BAFE0
00BF40
03AF00
0A3F00
0ABD00
02F400
ENDCHAR
STARTCHAR h
ENCODING 104
SWIDTH 505 0
DWIDTH 10 0
BBX 12 14 -1 0
BITMAP
01A000
03E000
07E000
07D000
0BEF80
0FDBD0
0F87E0
1F47D0
2F4BD0
2F0BC0
3E0FC1
7E0F86
7D0FD8
BD07E0
ENDCHAR
STARTCHAR i
ENCODING 105
SWIDTH 267 0
DWIDTH 5 0
BBX 6 14 0 0
BITMAP
0B40
1FC0
0B40
0000
2F00
3F00
7E00
7D00
BD00
BC00
FC10
F860
FFC0
7E00
ENDCHAR
STARTCHAR j
ENCODING 106
SWIDTH 240 0
DWIDTH 5 0
BBX 10 19 -4 -5
BITMAP
000B40
001F80
000B40
000000
002F00
003F00
003E00
007E00
00BD00
00BC00
00FC10
01F890
01F980
02FA00
0BF000
7BE000
D7E000
DBC000
7E4000
ENDCHAR
STARTCHAR k
ENCODING 107
SWIDTH 518 0
DWIDTH 10 0
BBX 12 14 -1 0
BITMAP
02A000
03E000
07E000
0BD000
0BC1E0
0FC740
0FAD00
1FFF80
2F9FD0
2F0BD0
3F0BC1
7E0FC6
7D0FFC
BD06E4
ENDCHAR
STARTCHAR l
ENCODING 108
SWIDTH 267 0
DWIDTH 5 0
BBX 6 14 0 0
BITMAP
0680
0F80
1F80
1F40
2F00
3F00
3E00
7D00
BD00
BC00
FC10
F860
FFC0
7E00
ENDCHAR
STARTCHAR m
ENCODING 109
SWIDTH 752 0
DWIDTH 15 0
BBX 17 10 -1 0
BITMAP
0BEF9BE000
0FDBF6F400
1F87E1F400
1F4BD1F400
2F4BC2F400
2F0FC3F000
3E0F83E040
7E1F87E180
7D2F43E600
BD2F01F800
ENDCHAR
STARTCHAR n
ENCODING 110
SWIDTH 505 0
DWIDTH 10 0
BBX 12 10 -1 0
BITMAP
0BEF80
0FDBD0
1F87E0
1F47D0
2F4BD0
2F0BC0
3E0FC1
7E0F86
7D0FD8
BD07E0
ENDCHAR
STARTCHAR o
ENCODING 111
SWIDTH 439 0
DWIDTH 9 0
BBX 12 10 -1 0
BITMAP
01BE00
07E740
0FC382
1F47E9
3F0380
3F0740
7E0700
7E0E00
3F6C00
1BE000
ENDCHAR
STARTCHAR p
ENCODING 112
SWIDTH 468 0
DWIDTH 9 0
BBX 11 16 -2 -5
BITMAP
01A400
02FBE0
03F5F8
03E0F8
07D0F8
0BD0F8
0BC1F8
0FC2F4
1F87E0
1FEFD0
2FBE40
3F0000
3E0000
7E0000
BD0000
A40000
ENDCHAR
STARTCHAR q
ENCODING 113
SWIDTH 486 0
DWIDTH 10 0
BBX 11 15 -1 -5
BITMAP
01BEF4
07E7F4
0FC2F0
2F43E0
3F07E0
3E07D0
7E0BD0
7F1FC0
3FFF80
1BAF80
002F40
002F00
003F00
007E00
006400
ENDCHAR
STARTCHAR r
ENCODING 114
SWIDTH 376 0
DWIDTH 8 0
BBX 9 10 -1 0
BITMAP
0BDB40
0FEF80
1F8740
1F4000
2F4000
2F0000
3F0000
7E0000
7D0000
BD0000
ENDCHAR
STARTCHAR s
ENCODING 115
SWIDTH 382 0
DWIDTH 8 0
BBX 9 11 -1 0
BITMAP
001400
01FC00
02FC00
02FC00
05FC00
0CBC00
28BD00
78BD40
A4BE40
65F900
2FD000
ENDCHAR
STARTCHAR t
ENCODING 116
SWIDTH 267 0
DWIDTH 5 0
BBX 6 13 0 0
BITMAP
0B80
1F80
2F40
7FD0
3F40
3E00
7E00
BD00
BC00
FC10
F860
FFC0
7E00
ENDCHAR
STARTCHAR u
ENCODING 117
SWIDTH 505 0
DWIDTH 10 0
BBX 11 10 0 0
BITMAP
2F0BC0
3F0FC0
7E1F80
7D1F40
BD2F40
BC3F00
FC3E08
F8BE24
FFBFE0
7E1F80
ENDCHAR
STARTCHAR v
ENCODING 118
SWIDTH 414 0
DWIDTH 8 0
BBX 8 10 0 0
BITMAP
2F1E
3F1F
7E07
7D06
BD0A
BC0D
FC2C
F874
FFE0
7E40
ENDCHAR
STARTCHAR w
ENCODING 119
SWIDTH 661 0
DWIDTH 13 0
BBX 13 10 0 0
BITMAP
2F0BC780
3F0FC7C0
7E1F81C0
7D1F4180
BD2F4240
BC3F0340
FC3E0A00
F8BE1D00
FFBFF400
7E1F9000
ENDCHAR
STARTCHAR x
ENCODING 120
SWIDTH 522 0
DWIDTH 10 0
BBX 11 11 0 0
BITMAP
0001E0
02E1F0
09F870
24BCD0
20BE80
50BE00
807D00
81FD00
077E08
0D2F64
340B90
ENDCHAR
STARTCHAR y
ENCODING 121
SWIDTH 486 0
DWIDTH 10 0
BBX 11 15 0 -5
BITMAP
2F0BC0
3F0FC0
7E1F80
7D1F40
BD2F40
BC3F00
FC3E14
F8BE20
FFFD90
7EBF40
06FC00
19F800
31F400
3BF000
1F8000
ENDCHAR
STARTCHAR z
ENCODING 122
SWIDTH 428 0
DWIDTH 9 0
BBX 9 10 0 0
BITMAP
0BFF40
2D7E00
2CBC00
01F800
02F000
07D000
0FC000
2F4900
3F5E00
BFF800
ENDCHAR
STARTCHAR braceleft
ENCODING 123
SWIDTH 352 0
DWIDTH 7 0
BBX 7 20 1 -5
BITMAP
00BC
03E4
07C0
0B80
0B40
0B40
0F40
0F00
1E00
F800
6C00
2D00
3C00
3C00
7800
B400
F400
F400
F800
6D00
ENDCHAR
STARTCHAR bar
ENCODING 124
SWIDTH 532 0
DWIDTH 11 0
BBX 3 20 4 -5
BITMAP
B4
B4
B4
B4
B4
B4
B4
B4
B4
B4
B4
B4
B4
B4
B4
B4
B4
B4
B4
B4
ENDCHAR
STARTCHAR braceright
ENCODING 125
SWIDTH 352 0
DWIDTH 7 0
BBX 8 20 -2 -5
BITMAP
00B8
007E
002E
002E
002D
003D
007C
0078
00B4
0074
003E
00F4
01E0
02E0
02E0
02D0
03D0
07C0
1B80
7E00
ENDCHAR
STARTCHAR asciitilde
ENCODING 126
SWIDTH 431 0
DWIDTH 9 0
BBX 8 2 1 11
BITMAP
2FE9
6BF8
ENDCHAR
STARTCHAR uni00A0
ENCODING 160
SWIDTH 217 0
DWIDTH 4 0
BBX 1 1 0 0
BITMAP
00
ENDCHAR
STARTCHAR exclamdown
ENCODING 161
SWIDTH 219 0
DWIDTH 4 0
BBX 6 15 -1 -5
BITMAP
03D0
07E0
03D0
0000
0600
0B40
0F00
1F00
1E00
2E00
3D00
7D00
BC00
FC00
A400
ENDCHAR
STARTCHAR cent
ENCODING 162
SWIDTH 384 0
DWIDTH 8 0
BBX 9 15 0 -1
BITMAP
002400
002400
01BE00
0BAB40
2E9B40
3C9600
B8C000
B9C000
B98000
BA4000
7F5800
1FF400
060000
090000
040000
ENDCHAR
STARTCHAR sterling
ENCODING 163
SWIDTH 455 0
DWIDTH 9 0
BBX 11 15 0 0
BITMAP
001BD0
007DF4
00F8B4
01F4A0
02F000
03E000
03E000
3FFF40
1BD500
0BC000
0F8000
1F0000
2FE560
7FFFE0
506F80
ENDCHAR
STARTCHAR currency
ENCODING 164
SWIDTH 500 0
DWIDTH 10 0
BBX 8 8 1 3
BITMAP
1000
7BED
2D68
340C
300C
2828
7BED
5005
ENDCHAR
STARTCHAR yen
ENCODING 165
SWIDTH 558 0
DWIDTH 11 0
BBX 10 15 2 0
BITMAP
BE00D0
7E01C0
7F0340
3F4700
2F8A00
1F8C00
1FD800
0FF400
0BE000
BFFF00
0FD000
FFFE00
6F9400
2F8000
3F4000
ENDCHAR
STARTCHAR brokenbar
ENCODING 166
SWIDTH 532 0
DWIDTH 11 0
BBX 3 20 4 -5
BITMAP
B4
B4
B4
B4
B4
B4
B4
B4
B4
00
00
B4
B4
B4
B4
B4
B4
B4
B4
B4
ENDCHAR
STARTCHAR section
ENCODING 167
SWIDTH 542 0
DWIDTH 11 0
BBX 11 16 0 -1
BITMAP
001BE0
00BD74
01F434
01F460
02F800
0BBE00
1F2F80
1F8BE0
0BE2F0
02F8F0
00BDE0
293FD0
B82F00
B02E00
B47C00
2FE000
ENDCHAR
STARTCHAR dieresis
ENCODING 168
SWIDTH 392 0
DWIDTH 8 0
BBX 6 2 1 11
BITMAP
B4F0
B4E0
ENDCHAR
STARTCHAR copyright
ENCODING 169
SWIDTH 587 0
DWIDTH 12 0
BBX 10 10 1 2
BITMAP
06F900
2D5B40
72F5C0
9A5D90
CD0060
CD0060
9A0850
62F8C0
295740
07FD00
ENDCHAR
STARTCHAR ordfeminine
ENCODING 170
SWIDTH 345 0
DWIDTH 7 0
BBX 6 6 1 9
BITMAP
2ED0
76C0
A2C0
E380
E780
FBC0
ENDCHAR
STARTCHAR guillemotleft
ENCODING 171
SWIDTH 589 0
DWIDTH 12 0
BBX 11 7 0 2
BITMAP
000404
007478
0B8780
787800
692900
079790
009060
ENDCHAR
STARTCHAR logicalnot
ENCODING 172
SWIDTH 444 0
DWIDTH 9 0
BBX 8 5 0 1
BITMAP
7FFF
156E
003D
003D
0028
ENDCHAR
STARTCHAR uni00AD
ENCODING 173
SWIDTH 290 0
DWIDTH 6 0
BBX 5 2 0 4
BITMAP
7F80
1500
ENDCHAR
STARTCHAR registered
ENCODING 174
SWIDTH 553 0
DWIDTH 11 0
BBX 11 10 0 2
BITMAP
02FE00
0A5680
29F8A0
319A30
614624
61FD24
319C20
254660
0E42C0
02FE00
ENDCHAR
STARTCHAR macron
ENCODING 175
SWIDTH 446 0
DWIDTH 9 0
BBX 7 2 1 11
BITMAP
7FFC
1550
ENDCHAR
STARTCHAR degree
ENCODING 176
SWIDTH 314 0
DWIDTH 6 0
BBX 6 7 0 7
BITMAP
0BC0
1DA0
38A0
34A0
74D0
75C0
2F40
ENDCHAR
STARTCHAR plusminus
ENCODING 177
SWIDTH 479 0
DWIDTH 10 0
BBX 9 11 0 2
BITMAP
001400
007400
007400
1ABA40
2FFF80
00E000
01D000
01C000
000000
7FFE00
155400
ENDCHAR
STARTCHAR uni00B2
ENCODING 178
SWIDTH 328 0
DWIDTH 7 0
BBX 6 9 1 6
BITMAP
1F80
36D0
72D0
1280
0600
1800
2000
B980
9B80
ENDCHAR
STARTCHAR uni00B3
ENCODING 179
SWIDTH 336 0
DWIDTH 7 0
BBX 6 9 1 6
BITMAP
1B80
39D0
39D0
0280
0740
B2D0
D2D0
93C0
2A00
ENDCHAR
STARTCHAR acute
ENCODING 180
SWIDTH 316 0
DWIDTH 6 0
BBX 4 4 2 11
BITMAP
05
1E
28
70
ENDCHAR
STARTCHAR uni00B5
ENCODING 181
SWIDTH 505 0
DWIDTH 10 0
BBX 13 13 -2 -3
BITMAP
02F0BC00
03F0FC00
07E1F800
07D1F400
0BD2F400
0BC3F000
0FC3E040
1F8BE140
1FFBFE00
2FE1F800
3F000000
3E000000
79000000
ENDCHAR
STARTCHAR paragraph
ENCODING 182
SWIDTH 542 0
DWIDTH 11 0
BBX 9 16 1 -1
BITMAP
02FE00
1FFF80
3FFAC0
7FFAC0
BFF7C0
7FF780
7FF780
2FEB40
0BFF00
02DF00
03DE00
039D00
07AD00
0B7C00
0B7800
0F7800
ENDCHAR
STARTCHAR periodcentered
ENCODING 183
SWIDTH 434 0
DWIDTH 9 0
BBX 4 4 2 3
BITMAP
2E
7F
7F
2E
ENDCHAR
STARTCHAR cedilla
ENCODING 184
SWIDTH 227 0
DWIDTH 5 0
BBX 5 5 0 -4
BITMAP
0800
1400
2F40
4780
7E00
ENDCHAR
STARTCHAR uni00B9
ENCODING 185
SWIDTH 229 0
DWIDTH 5 0
BBX 4 9 1 6
BITMAP
19
FC
2C
38
74
74
B0
F0
90
ENDCHAR
STARTCHAR ordmasculine
ENCODING 186
SWIDTH 329 0
DWIDTH 7 0
BBX 5 6 1 9
BITMAP
2E00
B680
E240
D300
E600
BC00
ENDCHAR
STARTCHAR guillemotright
ENCODING 187
SWIDTH 586 0
DWIDTH 12 0
BBX 11 7 0 2
BITMAP
100400
1D0E00
02D1E0
00742C
01B4B8
2E5B40
502400
ENDCHAR
STARTCHAR onequarter
ENCODING 188
SWIDTH 749 0
DWIDTH 15 0
BBX 14 15 1 0
BITMAP
19002800
FC007000
2C00E000
3801C000
74034000
740B0000
B00D0000
F02828A0
90742DD0
00A02AD0
01C062C0
0380BFD0
07000780
0D000740
2C000B00
ENDCHAR
STARTCHAR onehalf
ENCODING 189
SWIDTH 745 0
DWIDTH 15 0
BBX 14 15 1 0
BITMAP
19002800
FC007000
2C00E000
3801C000
74034000
740B0000
B00D0000
F0281B80
907429E0
00A025E0
01C002C0
03800600
07001800
0D007540
2C00BFD0
ENDCHAR
STARTCHAR threequarters
ENCODING 190
SWIDTH 836 0
DWIDTH 17 0
BBX 16 15 1 0
BITMAP
1B800340
39D00B00
39D00D00
02802800
07407400
B2D0A000
D2D1C000
93C38299
2A0702AD
000D036C
002C0A38
00340FFD
00A00074
01D000B0
028000F0
ENDCHAR
STARTCHAR questiondown
ENCODING 191
SWIDTH 439 0
DWIDTH 9 0
BBX 9 15 -1 -5
BITMAP
001E00
002F40
001E00
000000
000800
000C00
002800
00B400
02D000
0B8000
2F1F00
3E0B40
7E0B40
3F5E00
0BE400
ENDCHAR
STARTCHAR Agrave
ENCODING 192
SWIDTH 668 0
DWIDTH 13 0
BBX 14 22 0 -2
BITMAP
00000F00
00000F00
00000B40
00000740
00000000
00000BE0
00003FE0
0000EBD0
00038BC0
000B0FC0
001E0F80
1BFE5F80
79B9BF40
B4F02F00
52E03F00
03D07E00
07C07D00
0B80BD00
0F40FC00
1F40F800
1F000000
0B400000
ENDCHAR
STARTCHAR Aacute
ENCODING 193
SWIDTH 668 0
DWIDTH 13 0
BBX 15 22 0 -2
BITMAP
00000018
00000078
000000B0
000001D0
00000000
00000BE0
00003FE0
0000EBD0
00038BC0
000B0FC0
001E0F80
1BFE5F80
79B9BF40
B4F02F00
52E03F00
03D07E00
07C07D00
0B80BD00
0F40FC00
1F40F800
1F000000
0B400000
ENDCHAR
STARTCHAR Acircumflex
ENCODING 194
SWIDTH 668 0
DWIDTH 13 0
BBX 15 22 0 -2
BITMAP
00000010
000000B4
000002E8
00000908
00000000
00000BE0
00003FE0
0000EBD0
00038BC0
000B0FC0
001E0F80
1BFE5F80
79B9BF40
B4F02F00
52E03F00
03D07E00
07C07D00
0B80BD00
0F40FC00
1F40F800
1F000000
0B400000
ENDCHAR
STARTCHAR Atilde
ENCODING 195
SWIDTH 668 0
DWIDTH 13 0
BBX 16 21 0 -2
BITMAP
00000540
00003FFA
000046F8
00000000
00000BE0
00003FE0
0000EBD0
00038BC0
000B0FC0
001E0F80
1BFE5F80
79B9BF40
B4F02F00
52E03F00
03D07E00
07C07D00
0B80BD00
0F40FC00
1F40F800
1F000000
0B400000
ENDCHAR
STARTCHAR Adieresis
ENCODING 196
SWIDTH 668 0
DWIDTH 13 0
BBX 15 20 0 -2
BITMAP
00002D3C
00002D38
00000000
00000BE0
00003FE0
0000EBD0
00038BC0
000B0FC0
001E0F80
1BFE5F80
79B9BF40
B4F02F00
52E03F00
03D07E00
07C07D00
0B80BD00
0F40FC00
1F40F800
1F000000
0B400000
ENDCHAR
STARTCHAR Aring
ENCODING 197
SWIDTH 668 0
DWIDTH 13 0
BBX 14 21 0 -2
BITMAP
000002D0
00000660
000007D0
00000000
00000BE0
00003FE0
0000EBD0
00038BC0
000B0FC0
001E0F80
1BFE5F80
79B9BF40
B4F02F00
52E03F00
03D07E00
07C07D00
0B80BD00
0F40FC00
1F40F800
1F000000
0B400000
ENDCHAR
STARTCHAR AE
ENCODING 198
SWIDTH 764 0
DWIDTH 15 0
BBX 18 17 0 -2
BITMAP
00000BE420
00003FFFE0
0000EBD000
00038BD000
000B0FC000
001E0F8000
1BFE5F8000
7DB9BFFD00
B4F02F5400
66E03F0000
03D07E0000
0BC07D0000
0B80BD0000
0F40FFFE00
1F40FFFD00
1F00000000
0B00000000
ENDCHAR
STARTCHAR Ccedilla
ENCODING 199
SWIDTH 497 0
DWIDTH 10 0
BBX 11 19 0 -4
BITMAP
006FD0
01F974
07F038
0FD078
1F8060
2F4000
3F4000
7F0000
7E0000
BE0000
BE0000
BF0014
7F81A0
3FFF80
0BF900
009000
00FC00
012C00
02A400
ENDCHAR
STARTCHAR Egrave
ENCODING 200
SWIDTH 459 0
DWIDTH 9 0
BBX 10 20 0 0
BITMAP
002D00
002D00
001E00
000E00
000000
006F80
01F5E0
03E0A0
07D0E0
07D040
03E000
02F800
0BD000
2F8000
7F0000
BE0000
BE0010
BF4180
7FFE00
1BE400
ENDCHAR
STARTCHAR Eacute
ENCODING 201
SWIDTH 459 0
DWIDTH 9 0
BBX 11 20 0 0
BITMAP
0000B4
0001D0
000380
000200
000000
006F80
01F5E0
03E0A0
07D0E0
07D040
03E000
02F800
0BD000
2F8000
7F0000
BE0000
BE0010
BF4180
7FFE00
1BE400
ENDCHAR
STARTCHAR Ecircumflex
ENCODING 202
SWIDTH 459 0
DWIDTH 9 0
BBX 10 20 0 0
BITMAP
0001C0
000BD0
0029A0
005010
000000
006F80
01F5E0
03E0A0
07D0E0
07D040
03E000
02F800
0BD000
2F8000
7F0000
BE0000
BE0010
BF4180
7FFE00
1BE400
ENDCHAR
STARTCHAR Edieresis
ENCODING 203
SWIDTH 459 0
DWIDTH 9 0
BBX 11 19 0 0
BITMAP
003C74
003C78
000000
000000
006F80
01F5E0
03E0A0
07D0E0
07D040
03E000
02F800
0BD000
2F8000
7F0000
BE0000
BE0010
BF4180
7FFE00
1BE400
ENDCHAR
STARTCHAR Igrave
ENCODING 204
SWIDTH 375 0
DWIDTH 8 0
BBX 8 20 0 0
BITMAP
00B4
0078
0038
002C
0000
006E
07BE
2D7D
78BD
B0FC
B0F8
71F8
02F4
02F0
03F0
03E0
07E0
0BD0
0BC0
0FC0
ENDCHAR
STARTCHAR Iacute
ENCODING 205
SWIDTH 375 0
DWIDTH 8 0
BBX 10 20 0 0
BITMAP
000190
0002C0
000740
000E00
000000
006E00
07BE00
2D7D00
78BD00
B0FC00
B0F800
71F800
02F400
02F000
03F000
03E000
07E000
0BD000
0BC000
0FC000
ENDCHAR
STARTCHAR Icircumflex
ENCODING 206
SWIDTH 375 0
DWIDTH 8 0
BBX 9 20 0 0
BITMAP
000100
000B40
002E80
009080
000000
006E00
07BE00
2D7D00
78BD00
B0FC00
B0F800
71F800
02F400
02F000
03F000
03E000
07E000
0BD000
0BC000
0FC000
ENDCHAR
STARTCHAR Idieresis
ENCODING 207
SWIDTH 375 0
DWIDTH 8 0
BBX 10 18 0 0
BITMAP
00F1E0
00E1D0
000000
006E00
07BE00
2D7D00
78BD00
B0FC00
B0F800
71F800
02F400
02F000
03F000
03E000
07E000
0BD000
0BC000
0FC000
ENDCHAR
STARTCHAR Eth
ENCODING 208
SWIDTH 663 0
DWIDTH 13 0
BBX 13 15 0 0
BITMAP
006FE400
07957E00
2E591F40
78BD0F80
B4BC0FC0
F0FC0FC0
B1F80F80
17FF0F80
02F41F80
03F01F40
03E02F00
07E07D00
0BD0BC00
0BE6F400
0FEF9000
ENDCHAR
STARTCHAR Ntilde
ENCODING 209
SWIDTH 686 0
DWIDTH 14 0
BBX 15 18 0 0
BITMAP
0002FE50
00056E80
00000000
01BE00B4
0BBF00F0
3D7F40E0
74BF81E0
B4FF81D0
B0FFC2C0
75EBD3C0
16D7D380
02D7E780
03C3FB40
0382FB00
0781FF00
0B41FE00
0B00FD00
0F00BD00
ENDCHAR
STARTCHAR Ograve
ENCODING 210
SWIDTH 665 0
DWIDTH 13 0
BBX 13 20 0 0
BITMAP
000B4000
000B4000
00078000
00038000
00000000
006BF800
02E56F00
1F5B4F80
3C7D0BC0
B4F80BC0
B6F40BC0
77F00BC0
07E00FC0
0BD00F80
0BD02F40
0BD03F00
0BC07D00
0BD1F800
07FBE000
01BE4000
ENDCHAR
STARTCHAR Oacute
ENCODING 211
SWIDTH 665 0
DWIDTH 13 0
BBX 13 20 0 0
BITMAP
00001E00
00003C00
00007400
0000A000
00000000
006BF800
02E56F00
1F5B4F80
3C7D0BC0
B4F80BC0
B6F40BC0
77F00BC0
07E00FC0
0BD00F80
0BD02F40
0BD03F00
0BC07D00
0BD1F800
07FBE000
01BE4000
ENDCHAR
STARTCHAR Ocircumflex
ENCODING 212
SWIDTH 665 0
DWIDTH 13 0
BBX 13 20 0 0
BITMAP
00002400
0000B800
0003EC00
00090800
00000000
006BF800
02E56F00
1F5B4F80
3C7D0BC0
B4F80BC0
B6F40BC0
77F00BC0
07E00FC0
0BD00F80
0BD02F40
0BD03F00
0BC07D00
0BD1F800
07FBE000
01BE4000
ENDCHAR
STARTCHAR Otilde
ENCODING 213
SWIDTH 665 0
DWIDTH 13 0
BBX 13 19 0 0
BITMAP
00015400
000BFFC0
00007E00
00000000
006BF800
02E56F00
1F5B4F80
3C7D0BC0
B4F80BC0
B6F40BC0
77F00BC0
07E00FC0
0BD00F80
0BD02F40
0BD03F00
0BC07D00
0BD1F800
07FBE000
01BE4000
ENDCHAR
STARTCHAR Odieresis
ENCODING 214
SWIDTH 665 0
DWIDTH 13 0
BBX 13 19 0 0
BITMAP
000F1D00
000F1E00
00000000
00000000
006BF800
02E56F00
1F5B4F80
3C7D0BC0
B4F80BC0
B6F40BC0
77F00BC0
07E00FC0
0BD00F80
0BD02F40
0BD03F00
0BC07D00
0BD1F800
07FBE000
01BE4000
ENDCHAR
STARTCHAR multiply
ENCODING 215
SWIDTH 414 0
DWIDTH 8 0
BBX 6 6 1 4
BITMAP
5060
B5E0
2F80
1F80
7AD0
A0B0
ENDCHAR
STARTCHAR Oslash
ENCODING 216
SWIDTH 658 0
DWIDTH 13 0
BBX 13 16 0 -1
BITMAP
00006000
006FF400
07FFEE00
2E7ECF40
78F98F80
B6F58F80
77F24F80
07E25F40
0BD31F40
0BC62F00
0FC67D00
0FC9BC00
0BCEF400
07EFD000
01BD0000
00240000
ENDCHAR
STARTCHAR Ugrave
ENCODING 217
SWIDTH 716 0
DWIDTH 14 0
BBX 15 20 0 0
BITMAP
0000B400
00007400
00003800
00003800
00000000
006F40BC
0BBF00F8
2D3E01F8
B47E01F4
F0BD02F0
E0BC03F0
B0F803E0
01F407E0
02F00BD0
02F00FC0
03E01F80
03E02F40
03F07E00
02FFFC00
00BF9000
ENDCHAR
STARTCHAR Uacute
ENCODING 218
SWIDTH 716 0
DWIDTH 14 0
BBX 15 20 0 0
BITMAP
00000780
00000F00
00001D00
00003800
00000000
006F40BC
0BBF00F8
2D3E01F8
B47E01F4
F0BD02F0
E0BC03F0
B0F803E0
01F407E0
02F00BD0
02F00FC0
03E01F80
03E02F40
03F07E00
02FFFC00
00BF9000
ENDCHAR
STARTCHAR Ucircumflex
ENCODING 219
SWIDTH 716 0
DWIDTH 14 0
BBX 15 20 0 0
BITMAP
00000700
00001F40
00007A80
00019080
00000000
006F40BC
0BBF00F8
2D3E01F8
B47E01F4
F0BD02F0
E0BC03F0
B0F803E0
01F407E0
02F00BD0
02F00FC0
03E01F80
03E02F40
03F07E00
02FFFC00
00BF9000
ENDCHAR
STARTCHAR Udieresis
ENCODING 220
SWIDTH 716 0
DWIDTH 14 0
BBX 15 19 0 0
BITMAP
0001E2D0
0001E2D0
00000000
00000000
006F40BC
0BBF00F8
2D3E01F8
B47E01F4
F0BD02F0
E0BC03F0
B0F803E0
01F407E0
02F00BD0
02F00FC0
03E01F80
03E02F40
03F07E00
02FFFC00
00BF9000
ENDCHAR
STARTCHAR Yacute
ENCODING 221
SWIDTH 620 0
DWIDTH 12 0
BBX 14 20 0 0
BITMAP
00000190
000003C0
00000740
00000E00
00000000
006F00A0
07BF40D0
2D2F81C0
781F8240
B01FC700
B00FDA00
700BEC00
0007F800
0007F400
0007F000
0007E000
000BE000
000FD000
000FC000
001FC000
ENDCHAR
STARTCHAR Thorn
ENCODING 222
SWIDTH 583 0
DWIDTH 12 0
BBX 12 15 0 0
BITMAP
003E00
007E00
00BFE0
07FDBC
1EFC2E
78F81E
B5F81E
F1F42E
B2F43D
13F0B8
03E2F0
07FF80
0BE000
0BC000
0FC000
ENDCHAR
STARTCHAR germandbls
ENCODING 223
SWIDTH 480 0
DWIDTH 10 0
BBX 11 19 -2 -5
BITMAP
001BE0
007DB4
00B874
01F8B0
02F4E0
02F1C0
03E280
07E2E0
07D0F4
0BD0B8
0FC0B8
0F80F8
1F96F0
2F6F90
2F0000
3F0000
7E0000
7D0000
640000
ENDCHAR
STARTCHAR agrave
ENCODING 224
SWIDTH 526 0
DWIDTH 11 0
BBX 12 15 -1 0
BITMAP
002D00
001E00
000E00
000B00
000000
01BEF4
07E7F4
0FC2F0
2F43F0
3F07E0
3E07D0
7E0BD1
7E1FC2
3FFBFD
1B92E4
ENDCHAR
STARTCHAR aacute
ENCODING 225
SWIDTH 526 0
DWIDTH 11 0
BBX 12 15 -1 0
BITMAP
0002E0
0003C0
000740
000A00
000000
01BEF4
07E7F4
0FC2F0
2F43F0
3F07E0
3E07D0
7E0BD1
7E1FC2
3FFBFD
1B92E4
ENDCHAR
STARTCHAR acircumflex
ENCODING 226
SWIDTH 526 0
DWIDTH 11 0
BBX 12 15 -1 0
BITMAP
0001C0
0007D0
001EA0
006020
000000
01BEF4
07E7F4
0FC2F0
2F43F0
3F07E0
3E07D0
7E0BD1
7E1FC2
3FFBFD
1B92E4
ENDCHAR
STARTCHAR atilde
ENCODING 227
SWIDTH 526 0
DWIDTH 11 0
BBX 12 14 -1 0
BITMAP
006F95
00AFF8
000190
000000
01BEF4
07E7F4
0FC2F0
2F43F0
3F07E0
3E07D0
7E0BD1
7E1FC2
3FFBFD
1B92E4
ENDCHAR
STARTCHAR adieresis
ENCODING 228
SWIDTH 526 0
DWIDTH 11 0
BBX 12 14 -1 0
BITMAP
0078B4
007CB4
000000
000000
01BEF4
07E7F4
0FC2F0
2F43F0
3F07E0
3E07D0
7E0BD1
7E1FC2
3FFBFD
1B92E4
ENDCHAR
STARTCHAR aring
ENCODING 229
SWIDTH 526 0
DWIDTH 11 0
BBX 12 14 -1 0
BITMAP
000B40
001980
000F40
000000
01BEF4
07E7F4
0FC2F0
2F43F0
3F07E0
3E07D0
7E0BD1
7E1FC2
3FFBFD
1B92E4
ENDCHAR
STARTCHAR ae
ENCODING 230
SWIDTH 650 0
DWIDTH 13 0
BBX 14 10 0 0
BITMAP
06F9BE00
196FF780
001FD380
001F8740
1BFF5E00
BE7FF400
F83F0010
F8BF0080
FFEF9600
7E4BE400
ENDCHAR
STARTCHAR ccedilla
ENCODING 231
SWIDTH 384 0
DWIDTH 8 0
BBX 9 14 -1 -4
BITMAP
01BE00
07E740
0F8740
1F4000
3F0000
3E0000
7E0080
7F0640
3FFD00
1BE400
008000
00F800
012C00
02A400
ENDCHAR
STARTCHAR egrave
ENCODING 232
SWIDTH 384 0
DWIDTH 8 0
BBX 9 15 -1 0
BITMAP
00B400
007400
003800
002800
000000
01BE00
07E740
0F8740
2F4B00
3F6D00
3FE400
7E0000
7E0180
3F5600
1BE400
ENDCHAR
STARTCHAR eacute
ENCODING 233
SWIDTH 384 0
DWIDTH 8 0
BBX 9 15 -1 0
BITMAP
0003C0
000740
000E00
001D00
000000
01BE00
07E740
0F8740
2F4B00
3F6D00
3FE400
7E0000
7E0180
3F5600
1BE400
ENDCHAR
STARTCHAR ecircumflex
ENCODING 234
SWIDTH 384 0
DWIDTH 8 0
BBX 9 15 -1 0
BITMAP
000700
001F40
007A80
018080
000000
01BE00
07E740
0F8740
2F4B00
3F6D00
3FE400
7E0000
7E0180
3F5600
1BE400
ENDCHAR
STARTCHAR edieresis
ENCODING 235
SWIDTH 384 0
DWIDTH 8 0
BBX 10 14 -1 0
BITMAP
01E2D0
01E3D0
000000
000000
01BE00
07E740
0F8740
2F4B00
3F6D00
3FE400
7E0000
7E0180
3F5600
1BE400
ENDCHAR
STARTCHAR igrave
ENCODING 236
SWIDTH 267 0
DWIDTH 5 0
BBX 6 15 0 0
BITMAP
2D00
1D00
0E00
0E00
0000
2F00
3F00
7E00
7D00
BD00
BC00
FC10
F860
FFC0
7E00
ENDCHAR
STARTCHAR iacute
ENCODING 237
SWIDTH 267 0
DWIDTH 5 0
BBX 6 15 0 0
BITMAP
01E0
02D0
0380
0600
0000
2F00
3F00
7E00
7D00
BD00
BC00
FC10
F860
FFC0
7E00
ENDCHAR
STARTCHAR icircumflex
ENCODING 238
SWIDTH 267 0
DWIDTH 5 0
BBX 6 15 0 0
BITMAP
0180
07C0
2D90
5020
0000
2F00
3F00
7E00
7D00
BD00
BC00
FC10
F860
FFC0
7E00
ENDCHAR
STARTCHAR idieresis
ENCODING 239
SWIDTH 267 0
DWIDTH 5 0
BBX 6 14 0 0
BITMAP
74E0
78F0
0000
0000
2F00
3F00
7E00
7D00
BD00
BC00
FC10
F860
FFC0
7E00
ENDCHAR
STARTCHAR eth
ENCODING 240
SWIDTH 526 0
DWIDTH 11 0
BBX 12 15 -1 0
BITMAP
000640
0007EA
001BF5
002AF0
0001F4
01BEF4
07E7F4
0FC2F0
2F43F0
3F07E0
3F07E0
7E0BD0
7E0FC2
3F6FD5
1BD7E4
ENDCHAR
STARTCHAR ntilde
ENCODING 241
SWIDTH 505 0
DWIDTH 10 0
BBX 12 14 -1 0
BITMAP
00BE54
02BFE0
000540
000000
0BEF80
0FDBD0
1F87E0
1F47D0
2F4BD0
2F0BC0
3E0F82
7E0F89
7D0FFC
BD07E0
ENDCHAR
STARTCHAR ograve
ENCODING 242
SWIDTH 433 0
DWIDTH 9 0
BBX 12 15 -1 0
BITMAP
007800
003C00
002C00
001D00
000000
01BE00
07E740
0F8782
2F4BE8
3F0780
7E0740
7E0B00
7E0E00
3F6800
1BE000
ENDCHAR
STARTCHAR oacute
ENCODING 243
SWIDTH 439 0
DWIDTH 9 0
BBX 12 15 -1 0
BITMAP
0003C0
000780
000B00
001D00
000000
01BE00
07E740
0FC382
1F47E9
3F0380
3F0740
7E0700
7E0E00
3F6C00
1BE000
ENDCHAR
STARTCHAR ocircumflex
ENCODING 244
SWIDTH 433 0
DWIDTH 9 0
BBX 12 15 -1 0
BITMAP
000600
001F00
00BB40
028180
000000
01BE00
07E740
0F8782
2F4BE8
3F0780
7E0740
7E0B00
7E0E00
3F6800
1BE000
ENDCHAR
STARTCHAR otilde
ENCODING 245
SWIDTH 433 0
DWIDTH 9 0
BBX 12 14 -1 0
BITMAP
02F950
0AFFC0
001900
000000
01BE00
07E740
0F8782
2F4BE8
3F0780
7E0740
7E0B00
7E0E00
3F6800
1BE000
ENDCHAR
STARTCHAR odieresis
ENCODING 246
SWIDTH 433 0
DWIDTH 9 0
BBX 12 14 -1 0
BITMAP
02D380
02D3C0
000000
000000
01BE00
07E740
0F8782
2F4BE8
3F0780
7E0740
7E0B00
7E0E00
3F6800
1BE000
ENDCHAR
STARTCHAR divide
ENCODING 247
SWIDTH 415 0
DWIDTH 8 0
BBX 7 10 1 2
BITMAP
02D0
07E0
02D0
0000
FFFC
5550
0000
1F00
2F40
1F00
ENDCHAR
STARTCHAR oslash
ENCODING 248
SWIDTH 428 0
DWIDTH 9 0
BBX 10 11 -1 -1
BITMAP
00BE30
07E7D0
0FC380
2F4B80
3F2B80
3E6740
7F8B00
3F1E00
2FF800
3BE000
D00000
ENDCHAR
STARTCHAR ugrave
ENCODING 249
SWIDTH 505 0
DWIDTH 10 0
BBX 11 15 0 0
BITMAP
00F000
00F000
00B000
007400
000000
2F0BC0
3F0FC0
7E1F80
7D1F40
BD2F40
BC3F00
FC3E08
F8BE24
FFBFE0
7E1F80
ENDCHAR
STARTCHAR uacute
ENCODING 250
SWIDTH 505 0
DWIDTH 10 0
BBX 11 15 0 0
BITMAP
000B40
000E00
002C00
002400
000000
2F0BC0
3F0FC0
7E1F80
7D1F40
BD2F40
BC3F00
FC3E08
F8BE24
FFBFE0
7E1F80
ENDCHAR
STARTCHAR ucircumflex
ENCODING 251
SWIDTH 505 0
DWIDTH 10 0
BBX 11 15 0 0
BITMAP
000900
002E00
00E700
024140
000000
2F0BC0
3F0FC0
7E1F80
7D1F40
BD2F40
BC3F00
FC3E08
F8BE24
FFBFE0
7E1F80
ENDCHAR
STARTCHAR udieresis
ENCODING 252
SWIDTH 505 0
DWIDTH 10 0
BBX 11 14 0 0
BITMAP
038740
03CB80
000000
000000
2F0BC0
3F0FC0
7E1F80
7D1F40
BD2F40
BC3F00
FC3E08
F8BE24
FFBFE0
7E1F80
ENDCHAR
STARTCHAR yacute
ENCODING 253
SWIDTH 505 0
DWIDTH 10 0
BBX 11 20 0 -5
BITMAP
000B40
000E00
002C00
002400
000000
2F0BC0
3F0FC0
7E1F80
7D1F40
BD2F40
BC3F00
FC3E14
F8BE20
FFFD90
7EBF40
06FC00
19F800
31F400
3BF000
1F8000
ENDCHAR
STARTCHAR thorn
ENCODING 254
SWIDTH 473 0
DWIDTH 9 0
BBX 11 20 -2 -5
BITMAP
006900
00FC00
00F800
01F800
02F400
02FBE0
03F5F8
03E0F8
07D0F8
0BD0F8
0BC1F8
0FC2F4
1F83E0
1F9FC0
2FBE00
3F0000
3E0000
7E0000
BD0000
A40000
ENDCHAR
STARTCHAR ydieresis
ENCODING 255
SWIDTH 505 0
DWIDTH 10 0
BBX 11 19 0 -5
BITMAP
078B40
078B40
000000
000000
2F0BC0
3F0FC0
7E1F80
7D1F40
BD2F40
BC3F00
FC3E14
F8BE20
FFFD90
7EBF40
06FC00
19F800
31F400
3BF000
1F8000
ENDCHAR
STARTCHAR Amacron
ENCODING 256
SWIDTH 668 0
DWIDTH 13 0
BBX 16 20 0 -2
BITMAP
00003FFE
00001554
00000000
00000BE0
00003FE0
0000EBD0
00038BC0
000B0FC0
001E0F80
1BFE5F80
79B9BF40
B4F02F00
52E03F00
03D07E00
07C07D00
0B80BD00
0F40FC00
1F40F800
1F000000
0B400000
ENDCHAR
STARTCHAR amacron
ENCODING 257
SWIDTH 526 0
DWIDTH 11 0
BBX 12 14 -1 0
BITMAP
00BFFC
001550
000000
000000
01BEF4
07E7F4
0FC2F0
2F43F0
3F07E0
3E07D0
7E0BD1
7E1FC2
3FFBFD
1B92E4
ENDCHAR
STARTCHAR Abreve
ENCODING 258
SWIDTH 668 0
DWIDTH 13 0
BBX 17 21 0 -2
BITMAP
00002C0740
00001E1E00
00000BF800
0000000000
00000BE000
00003FE000
0000EBD000
00038BC000
000B0FC000
001E0F8000
1BFE5F8000
79B9BF4000
B4F02F0000
52E03F0000
03D07E0000
07C07D0000
0B80BD0000
0F40FC0000
1F40F80000
1F00000000
0B40000000
ENDCHAR
STARTCHAR abreve
ENCODING 259
SWIDTH 526 0
DWIDTH 11 0
BBX 12 15 -1 0
BITMAP
00F02C
00B478
002FD0
000000
000000
01BEF4
07E7F4
0FC2F0
2F43F0
3F07E0
3E07D0
7E0BD1
7E1FC2
3FFBFD
1B92E4
ENDCHAR
STARTCHAR Aogonek
ENCODING 260
SWIDTH 668 0
DWIDTH 13 0
BBX 14 19 0 -4
BITMAP
00000BE0
00003FE0
0000EBD0
00038BC0
000B0FC0
001E0F80
1BFE5F80
79B9BF40
B4F02F00
52E03F00
03D07E00
07C07D00
0B80BD00
0F40FC00
1F40F800
1F009000
0F02C000
0102C400
0001F400
ENDCHAR
STARTCHAR aogonek
ENCODING 261
SWIDTH 526 0
DWIDTH 11 0
BBX 12 14 -1 -4
BITMAP
01BEF4
07E7F4
0FC2F0
2F43F0
3F07E0
3F07D0
7E0BD0
7E0FC2
3F6FD6
1BD7F8
0001D0
000380
000784
0002E0
ENDCHAR
STARTCHAR Cacute
ENCODING 262
SWIDTH 497 0
DWIDTH 10 0
BBX 11 20 0 0
BITMAP
0000B4
0001E0
0002C0
000240
000000
006FD0
01F974
07F038
0FD078
1FC060
2F4000
3F4000
7F0000
7E0000
BE0000
BE0000
BF0014
7F40A0
2FFF80
0BF900
ENDCHAR
STARTCHAR cacute
ENCODING 263
SWIDTH 384 0
DWIDTH 8 0
BBX 10 15 -1 0
BITMAP
0002D0
0003C0
000740
000E00
000000
01BE00
07E740
0FC740
1F4100
3F0000
3F0000
7E0000
7E0080
3F5600
1BE400
ENDCHAR
STARTCHAR Ccircumflex
ENCODING 264
SWIDTH 497 0
DWIDTH 10 0
BBX 11 20 0 0
BITMAP
0001C0
000BD0
0029A0
005010
000000
006FD0
01F974
07F038
0FD078
1FC060
2F4000
3F4000
7F0000
7E0000
BE0000
BE0000
BF0014
7F40A0
2FFF80
0BF900
ENDCHAR
STARTCHAR ccircumflex
ENCODING 265
SWIDTH 384 0
DWIDTH 8 0
BBX 9 15 -1 0
BITMAP
000700
001F40
007A80
019080
000000
01BE00
07E740
0FC740
1F4100
3F0000
3F0000
7E0000
7E0080
3F5600
1BE400
ENDCHAR
STARTCHAR Cdotaccent
ENCODING 266
SWIDTH 497 0
DWIDTH 10 0
BBX 11 20 0 0
BITMAP
0001F0
0002F4
0001F0
000000
000000
006FD0
01F974
07F038
0FD078
1FC060
2F4000
3F4000
7F0000
7E0000
BE0000
BE0000
BF0014
7F40A0
2FFF80
0BF900
ENDCHAR
STARTCHAR cdotaccent
ENCODING 267
SWIDTH 384 0
DWIDTH 8 0
BBX 9 15 -1 0
BITMAP
001F00
002F40
001F00
000000
000000
01BE00
07E740
0FC740
1F4100
3F0000
3F0000
7E0000
7E0080
3F5600
1BE400
ENDCHAR
STARTCHAR Ccaron
ENCODING 268
SWIDTH 497 0
DWIDTH 10 0
BBX 12 20 0 0
BITMAP
000819
000AE0
000780
000100
000000
006FD0
01F974
07F038
0FD078
1FC060
2F4000
3F4000
7F0000
7E0000
BE0000
BE0000
BF0014
7F40A0
2FFF80
0BF900
ENDCHAR
STARTCHAR ccaron
ENCODING 269
SWIDTH 384 0
DWIDTH 8 0
BBX 11 15 -1 0
BITMAP
002064
002AD0
001F40
000C00
000000
01BE00
07E740
0FC740
1F4100
3F0000
3F0000
7E0040
7E0280
3FAE00
1BE400
ENDCHAR
STARTCHAR Dcaron
ENCODING 270
SWIDTH 663 0
DWIDTH 13 0
BBX 13 20 0 0
BITMAP
00081900
000AB400
0007D000
00034000
00000000
006FE400
07D5BD00
2E691F40
78BD0F80
B4BC0F80
F0FC0FC0
B1F80F80
11F40F80
02F41F80
03F01F40
03E02F00
07E07D00
0BD0BC00
0BE6F400
0FEF9000
ENDCHAR
STARTCHAR dcaron
ENCODING 271
SWIDTH 525 0
DWIDTH 11 0
BBX 15 15 -1 0
BITMAP
000000B4
000069B8
0000BD34
0000FC60
0000F800
01BEF800
07E7F400
0FC2F000
2F43F000
3F07E000
3F07E000
7E0BD000
7E0FC200
3F6FD500
1BD7E400
ENDCHAR
STARTCHAR Dcroat
ENCODING 272
SWIDTH 663 0
DWIDTH 13 0
BBX 13 15 0 0
BITMAP
006FE400
07957E00
2E591F40
78BD0F80
B4BC0FC0
F0FC0FC0
B1F80F80
17FF0F80
02F41F80
03F01F40
03E02F00
07E07D00
0BD0BC00
0BE6F400
0FEF9000
ENDCHAR
STARTCHAR dcroat
ENCODING 273
SWIDTH 525 0
DWIDTH 11 0
BBX 13 14 -1 0
BITMAP
00006900
0000BD00
000BFF80
0001F900
01BEF800
07E7F400
0FC2F000
2F43F000
3F07E000
3F07E000
7E0BD000
7E0FC200
3F6FD500
1BD7E400
ENDCHAR
STARTCHAR Emacron
ENCODING 274
SWIDTH 459 0
DWIDTH 9 0
BBX 11 18 0 0
BITMAP
007FFC
001554
000000
006F80
01F5E0
03E0A0
07D0E0
07D040
03E000
02F800
0BD000
2F8000
7F0000
BE0000
BE0010
BF4180
7FFE00
1BE400
ENDCHAR
STARTCHAR emacron
ENCODING 275
SWIDTH 384 0
DWIDTH 8 0
BBX 10 14 -1 0
BITMAP
07FFD0
015540
000000
000000
01BE00
07E740
0F8740
2F4B00
3F6D00
3FE400
7E0000
7E0180
3F5600
1BE400
ENDCHAR
STARTCHAR Ebreve
ENCODING 276
SWIDTH 459 0
DWIDTH 9 0
BBX 12 19 0 0
BITMAP
00741D
002FF4
000000
000000
006F80
01F5E0
03E0A0
07D0E0
07D040
03E000
02F800
0BD000
2F8000
7F0000
BE0000
BE0010
BF4180
7FFE00
1BE400
ENDCHAR
STARTCHAR ebreve
ENCODING 277
SWIDTH 384 0
DWIDTH 8 0
BBX 10 15 -1 0
BITMAP
0740E0
0782C0
01FE00
000000
000000
01BE00
07E740
0F8740
2F4B00
3F6D00
3FE400
7E0000
7E0180
3F5600
1BE400
ENDCHAR
STARTCHAR Edotaccent
ENCODING 278
SWIDTH 459 0
DWIDTH 9 0
BBX 10 20 0 0
BITMAP
0007D0
000BE0
0007D0
000000
000000
006F80
01F5E0
03E0A0
07D0E0
07D040
03E000
02F800
0BD000
2F8000
7F0000
BE0000
BE0010
BF4180
7FFE00
1BE400
ENDCHAR
STARTCHAR edotaccent
ENCODING 279
SWIDTH 384 0
DWIDTH 8 0
BBX 9 15 -1 0
BITMAP
001E00
002F40
001E00
000000
000000
01BE00
07E740
0F8740
2F4B00
3F6D00
3FE400
7E0000
7E0180
3F5600
1BE400
ENDCHAR
STARTCHAR Eogonek
ENCODING 280
SWIDTH 459 0
DWIDTH 9 0
BBX 10 19 0 -4
BITMAP
01BF40
07E5E0
0FC0B0
0F80F0
0F8190
0BD000
02F800
0BE000
2F8000
7F0000
BE0000
BF0010
BF8090
3FFB40
0BFD00
002800
007000
00B500
007D00
ENDCHAR
STARTCHAR eogonek
ENCODING 281
SWIDTH 384 0
DWIDTH 8 0
BBX 9 14 -1 -4
BITMAP
01BE00
07E740
0F8740
2F4B00
3F6D00
3FE400
7E0040
7E0180
3FAB00
1BF800
00A000
01C000
02D400
01F400
ENDCHAR
STARTCHAR Ecaron
ENCODING 282
SWIDTH 459 0
DWIDTH 9 0
BBX 12 20 0 0
BITMAP
000819
000AF0
000380
000100
000000
006F80
01F5E0
03E0A0
07D0E0
07D040
03E000
02F800
0BD000
2F8000
7F0000
BE0000
BE0010
BF4180
7FFE00
1BE400
ENDCHAR
STARTCHAR ecaron
ENCODING 283
SWIDTH 384 0
DWIDTH 8 0
BBX 11 15 -1 0
BITMAP
002064
002AD0
001F00
000800
000000
01BE00
07E740
0F8740
2F4B00
3F2D00
3FE000
7E0040
7E0180
3F5A00
1BE400
ENDCHAR
STARTCHAR Gcircumflex
ENCODING 284
SWIDTH 578 0
DWIDTH 12 0
BBX 12 24 0 -4
BITMAP
000060
0001F0
0007A4
001808
000000
006FE4
02F97C
0BE02D
2F8038
3F4000
7F0000
BE0068
BE00B8
BD00F4
7E02F4
2F47F0
0BFAE0
0003E0
0007D0
0BE7C0
1D1B80
2C0F40
1D2E00
0BF800
ENDCHAR
STARTCHAR gcircumflex
ENCODING 285
SWIDTH 507 0
DWIDTH 10 0
BBX 12 20 -1 -5
BITMAP
0001C0
0007D0
001EA0
006020
000000
01BEF4
07E7F4
0FC2F0
2F43F0
3F07E0
3E07D0
7E0BD2
7F1FC6
3FFF98
1BAFE0
00BF40
03AF00
0A3F00
0ABD00
02F400
ENDCHAR
STARTCHAR Gbreve
ENCODING 286
SWIDTH 578 0
DWIDTH 12 0
BBX 13 23 0 -4
BITMAP
001D0380
000E0B40
0007F900
00000000
006FE000
02F97C00
0BE02D00
2F803D00
3F402400
7F000000
BE001400
BE00B800
BD00F800
7E02F400
2F47F000
0BFAF000
0003E000
0007D000
0BE7D000
1D1BC000
2C0F4000
1D2E0000
0BF80000
ENDCHAR
STARTCHAR gbreve
ENCODING 287
SWIDTH 507 0
DWIDTH 10 0
BBX 12 20 -1 -5
BITMAP
00F02C
00B478
002FD0
000000
000000
01BEF4
07E7F4
0FC2F0
2F43F0
3F07E0
3E07D0
7E0BD2
7F1FC6
3FFF98
1BAFE0
00BF40
03AF00
0A3F00
0ABD00
02F400
ENDCHAR
STARTCHAR Gdotaccent
ENCODING 288
SWIDTH 578 0
DWIDTH 12 0
BBX 12 23 0 -4
BITMAP
0002D0
0007F0
0002D0
000000
006FE0
02F97C
0BE02D
2F803D
3F4024
7F0000
BE0014
BE00B8
BD00F8
7E02F4
2F47F0
0BFAF0
0003E0
0007D0
0BE7D0
1D1BC0
2C0F40
1D2E00
0BF800
ENDCHAR
STARTCHAR gdotaccent
ENCODING 289
SWIDTH 507 0
DWIDTH 10 0
BBX 12 20 -1 -5
BITMAP
000780
000BD0
000780
000000
000000
01BEF4
07E7F4
0FC2F0
2F43F0
3F07E0
3E07D0
7E0BD2
7F1FC6
3FFF98
1BAFE0
00BF40
03AF00
0A3F00
0ABD00
02F400
ENDCHAR
STARTCHAR Gcommaaccent
ENCODING 290
SWIDTH 578 0
DWIDTH 12 0
BBX 11 20 0 -5
BITMAP
002F90
01F9B0
07E074
0FD0B4
2F80A0
3F4000
7F0000
BE0000
BE00B8
FD00F4
FD01F0
BE02F0
7E07E0
3F5FD0
0BEBD0
000000
00B000
00B000
006000
004000
ENDCHAR
STARTCHAR gcommaaccent
ENCODING 291
SWIDTH 507 0
DWIDTH 10 0
BBX 12 20 -1 -5
BITMAP
000240
000700
000B40
000100
000000
01BEF4
07E7F4
0FC2F0
2F43F0
3F07E0
3E07D0
7E0BD2
7F1FC6
3FFF98
1BAFE0
00BF40
03AF00
0A3F00
0ABD00
02F400
ENDCHAR
STARTCHAR Hcircumflex
ENCODING 292
SWIDTH 665 0
DWIDTH 13 0
BBX 14 20 0 0
BITMAP
00000100
00001E00
00007B00
00028140
00000000
006F03E0
07BE07E0
2D7E0BD0
78BD0BC0
B4BC0FC0
B0FC1F80
75FFFF80
01F96F40
02F42F00
03F03F00
03E07E00
07E07D00
07D0BD00
0BD0FC00
0FC0F800
ENDCHAR
STARTCHAR hcircumflex
ENCODING 293
SWIDTH 505 0
DWIDTH 10 0
BBX 12 18 -1 0
BITMAP
001C00
007D00
029600
050100
02A000
03E000
07E000
0BD000
0BEF80
0FDBD0
0F87E0
1F47D0
2F4BD0
2F0BC0
3E0FC1
7E0F86
7D0FD8
BD07E0
ENDCHAR
STARTCHAR Hbar
ENCODING 294
SWIDTH 665 0
DWIDTH 13 0
BBX 15 15 0 0
BITMAP
006F03E0
07BE07E0
2D7E07D0
787D0BD0
B6FFFFF8
B0FC0F80
64FFFF80
01F96F40
02F43F00
02F03F00
03E07E00
07E07D00
07D0BD00
0BD0FC00
0FC0F800
ENDCHAR
STARTCHAR hbar
ENCODING 295
SWIDTH 505 0
DWIDTH 10 0
BBX 12 14 -1 0
BITMAP
01A000
03E000
2FFE00
0BD400
0BEF80
0FDBD0
0F87E0
1F47D0
2F4BD0
2F0BC0
3E0F82
7E0F89
7D0FFC
BD07E0
ENDCHAR
STARTCHAR Itilde
ENCODING 296
SWIDTH 375 0
DWIDTH 8 0
BBX 11 19 0 0
BITMAP
005400
02FFA4
011B90
000000
006E00
07BE00
2D7D00
78BD00
B0FC00
B0F800
71F800
02F400
02F000
03F000
03E000
07E000
0BD000
0BC000
0FC000
ENDCHAR
STARTCHAR itilde
ENCODING 297
SWIDTH 267 0
DWIDTH 5 0
BBX 6 14 0 0
BITMAP
2E50
6FD0
0140
0000
2F00
3F00
7E00
7D00
BD00
BC00
FC10
F860
FFC0
7E00
ENDCHAR
STARTCHAR Imacron
ENCODING 298
SWIDTH 375 0
DWIDTH 8 0
BBX 10 18 0 0
BITMAP
02FFE0
015540
000000
006E00
07BE00
2D7D00
78BD00
B0FC00
B0F800
71F800
02F400
02F000
03F000
03E000
07E000
0BD000
0BC000
0FC000
ENDCHAR
STARTCHAR imacron
ENCODING 299
SWIDTH 267 0
DWIDTH 5 0
BBX 6 14 0 0
BITMAP
7FF0
1540
0000
0000
2F00
3F00
7E00
7D00
BD00
BC00
FC10
F860
FFC0
7E00
ENDCHAR
STARTCHAR Ibreve
ENCODING 300
SWIDTH 375 0
DWIDTH 8 0
BBX 11 19 0 0
BITMAP
01D038
01E0B0
007F80
000000
006E00
07BE00
2D7D00
78BD00
B0FC00
B0F800
71F800
02F400
02F000
03F000
03E000
07E000
0BD000
0BC000
0FC000
ENDCHAR
STARTCHAR ibreve
ENCODING 301
SWIDTH 267 0
DWIDTH 5 0
BBX 7 15 0 0
BITMAP
7434
38B0
1F90
0000
0000
2F00
3F00
7E00
7D00
BD00
BC00
FC10
F860
FFC0
7E00
ENDCHAR
STARTCHAR Iogonek
ENCODING 302
SWIDTH 375 0
DWIDTH 8 0
BBX 8 24 0 -4
BITMAP
01E0
00E0
00F0
00B0
0000
006E
07BE
2D7D
78BD
B0FC
B0F8
71F8
02F4
02F0
03F0
03E0
07E0
0BD0
0BC0
0FC0
0900
2C00
2D50
1F80
ENDCHAR
STARTCHAR iogonek
ENCODING 303
SWIDTH 267 0
DWIDTH 5 0
BBX 7 18 -1 -4
BITMAP
02D0
07F0
02D0
0000
0BC0
0FC0
1F80
1F40
2F40
2F00
3F04
3E18
3FF0
1F80
3400
B000
B140
7E00
ENDCHAR
STARTCHAR Idotaccent
ENCODING 304
SWIDTH 375 0
DWIDTH 8 0
BBX 9 19 0 0
BITMAP
000B40
001F80
000B40
000000
006E00
07BE00
2D7D00
78BD00
B0FC00
B0F800
71F800
02F400
02F000
03F000
03E000
07E000
0BD000
0BC000
0FC000
ENDCHAR
STARTCHAR dotlessi
ENCODING 305
SWIDTH 267 0
DWIDTH 5 0
BBX 6 10 0 0
BITMAP
2F00
3F00
7E00
7D00
BD00
BC00
FC10
F860
FFC0
7E00
ENDCHAR
STARTCHAR IJ
ENCODING 306
SWIDTH 663 0
DWIDTH 13 0
BBX 14 19 0 -4
BITMAP
006E0690
07BE0BC0
2D7D0FC0
78BD1F80
B0FC1F80
B0F82F40
71F83F00
02F43F00
02F07E00
03F07D00
03E0BD00
07D0FC00
0BD0F800
0BC1F800
0FF6F400
0B42F000
0B03E000
0B4BC000
02FE4000
ENDCHAR
STARTCHAR ij
ENCODING 307
SWIDTH 507 0
DWIDTH 10 0
BBX 11 19 0 -5
BITMAP
0B42E0
1FC3F0
0B42E0
000000
2F07D0
3F0BD0
7E0BC0
7D0FC0
BD1F80
BC1F40
FC2F48
F83F18
FF3E60
7D7F80
01FD00
0DBC00
28FC00
2EF400
0BD000
ENDCHAR
STARTCHAR Jcircumflex
ENCODING 308
SWIDTH 536 0
DWIDTH 11 0
BBX 13 24 0 -4
BITMAP
00000600
00001F00
00007B40
00028180
00000000
0001BD00
000BFD00
0038BC00
00B0F800
00E1F800
01E1F400
00A2F400
0003F000
0003E000
0007E000
000BD000
000BC000
000FC000
001F8000
2F9F4000
746F4000
B03E0000
74BD0000
2FE40000
ENDCHAR
STARTCHAR jcircumflex
ENCODING 309
SWIDTH 240 0
DWIDTH 5 0
BBX 10 20 -4 -5
BITMAP
000280
000BC0
002DD0
009050
000000
002F00
003F00
003E00
007E00
00BD00
00BC00
00FC10
01F890
01F980
02FA00
0BF000
7BE000
D7E000
DBC000
7E4000
ENDCHAR
STARTCHAR Kcommaaccent
ENCODING 310
SWIDTH 601 0
DWIDTH 12 0
BBX 13 20 0 -5
BITMAP
00AE0780
0BBE0F00
2D7D2C00
B4BCB000
B0FDD000
B0FF4000
21FFE400
02F4F800
02F0BC00
03F0F800
07E1F800
07D1F400
0BD2F000
0BC2F000
0FC1F400
00000000
002C0000
002C0000
00180000
00100000
ENDCHAR
STARTCHAR kcommaaccent
ENCODING 311
SWIDTH 518 0
DWIDTH 10 0
BBX 12 19 -1 -5
BITMAP
02A000
03E000
07E000
0BD000
0BC1E0
0FC740
0FAD00
1FFF80
2F9FD0
2F0BD0
3F0BC1
7E0FC6
7D0FFC
BD06E4
000000
00E000
00E000
009000
004000
ENDCHAR
STARTCHAR kgreenlandic
ENCODING 312
SWIDTH 518 0
DWIDTH 10 0
BBX 12 10 -1 0
BITMAP
0BC1E0
0FC740
1FAD00
1FFF80
2F9FD0
2F0BD0
3F0BC1
7E0FC6
7D0FFC
BD06E4
ENDCHAR
STARTCHAR Lacute
ENCODING 313
SWIDTH 379 0
DWIDTH 8 0
BBX 13 25 0 -5
BITMAP
00009000
0002D000
00038000
000B0000
00000000
006E0000
07BE0000
2D7D0000
74BD0000
B0FC0000
B0F80000
71F80000
02F40000
02F00000
03F00000
07E00000
07D00000
0BD00000
0FC00000
0FE00000
01BD0000
001FD000
0007FFC0
0000BF80
00001F40
ENDCHAR
STARTCHAR lacute
ENCODING 314
SWIDTH 267 0
DWIDTH 5 0
BBX 7 19 0 0
BITMAP
0024
00B4
00E0
02C0
0000
0A80
0F80
1F80
2F40
2F00
3F00
3E00
7D00
BD00
BC00
FC10
F860
FFC0
7E00
ENDCHAR
STARTCHAR Lcommaaccent
ENCODING 315
SWIDTH 379 0
DWIDTH 8 0
BBX 13 20 0 -5
BITMAP
006E0000
07BE0000
2D7D0000
74BD0000
B0FC0000
B0F80000
71F80000
02F40000
02F00000
03F00000
07E00000
07D00000
0BD00000
0FC00000
0FE00000
01BD0000
1D1FD000
1E07FFC0
0900BF80
08001F40
ENDCHAR
STARTCHAR lcommaaccent
ENCODING 316
SWIDTH 267 0
DWIDTH 5 0
BBX 6 19 0 -5
BITMAP
0680
0F80
1F80
1F40
2F00
3F00
3E00
7D00
BD00
BC00
FC10
F860
FFC0
7E00
0000
B000
B000
6000
4000
ENDCHAR
STARTCHAR Lcaron
ENCODING 317
SWIDTH 379 0
DWIDTH 8 0
BBX 13 25 0 -5
BITMAP
00040400
000D7400
000BD000
00060000
00000000
006E0000
07BE0000
2D7D0000
74BD0000
B0FC0000
B0F80000
71F80000
02F40000
02F00000
03F00000
07E00000
07D00000
0BD00000
0FC00000
0FE00000
01BD0000
001FD000
0007FFC0
0000BF80
00001F40
ENDCHAR
STARTCHAR lcaron
ENCODING 318
SWIDTH 267 0
DWIDTH 5 0
BBX 8 15 0 0
BITMAP
000E
059F
0F8A
1F88
1F40
2F40
3F00
3E00
7E00
BD00
BC00
FC10
F860
FFC0
7E00
ENDCHAR
STARTCHAR Ldot
ENCODING 319
SWIDTH 605 0
DWIDTH 12 0
BBX 13 20 0 -5
BITMAP
006E0000
07FE0000
1E7D0000
78BD0000
B4FC0000
F0F80000
B1F80000
62F40000
02F00000
03F07800
07E0FC00
07D07800
0BD00000
0FC00000
0FD00000
01BD0000
001F9000
0007FFC0
0000BF80
00001F40
ENDCHAR
STARTCHAR ldot
ENCODING 320
SWIDTH 353 0
DWIDTH 7 0
BBX 7 14 0 0
BITMAP
0680
0F80
1F80
2F40
2F00
3F00
7E78
7DBC
BD64
BC00
FC00
F800
FF00
7D00
ENDCHAR
STARTCHAR Lslash
ENCODING 321
SWIDTH 392 0
DWIDTH 8 0
BBX 13 20 0 -5
BITMAP
006E0000
07BE0000
2D7D0000
74BD0000
B0FD8000
B0FF4000
71F80000
02F40000
0FF00000
07F00000
07E00000
07D00000
0BD00000
0FC00000
0FE00000
01BD0000
001FD000
0007FFC0
0000BF80
00001F40
ENDCHAR
STARTCHAR lslash
ENCODING 322
SWIDTH 286 0
DWIDTH 6 0
BBX 8 14 -1 0
BITMAP
01A0
03E0
07E0
07D0
0BDD
0FE4
0F80
2F80
BF40
2F00
3F04
3E18
3FF0
1F80
ENDCHAR
STARTCHAR Nacute
ENCODING 323
SWIDTH 702 0
DWIDTH 14 0
BBX 15 20 0 0
BITMAP
00000190
000002D0
00000740
00000A00
00000000
01BE00B4
0BBF00F0
3D7F40E0
74BF81E0
B4FF81D0
B0FFC2C0
75EBD3C0
16D7D380
02D7E780
03C3FB40
0382FB00
0781FF00
0B41FE00
0B00FD00
0F00BD00
ENDCHAR
STARTCHAR nacute
ENCODING 324
SWIDTH 505 0
DWIDTH 10 0
BBX 12 15 -1 0
BITMAP
0000F0
0002D0
000380
000600
000000
0BEF80
0FDBD0
1F87E0
1F47D0
2F4BD0
2F0BC0
3E0F82
7E0F89
7D0FFC
BD07E0
ENDCHAR
STARTCHAR Ncommaaccent
ENCODING 325
SWIDTH 668 0
DWIDTH 13 0
BBX 15 20 0 -5
BITMAP
01BE00B4
0BBF00F0
3D7F40E0
74BF81E0
B4FF81D0
B0FFC2C0
75EBD3C0
16D7D380
02D7E780
03C3FB40
0382FB00
0781FF00
0B41FE00
0B00FD00
0F00BD00
00000000
003C0000
002C0000
00280000
00100000
ENDCHAR
STARTCHAR ncommaaccent
ENCODING 326
SWIDTH 505 0
DWIDTH 10 0
BBX 12 15 -1 -5
BITMAP
0BEF80
0FDBD0
1F87E0
1F47D0
2F4BD0
2F0BC0
3E0FC1
7E0F86
7D0FD8
BD07E0
000000
02C000
02D000
018000
010000
ENDCHAR
STARTCHAR Ncaron
ENCODING 327
SWIDTH 668 0
DWIDTH 13 0
BBX 15 20 0 0
BITMAP
00001014
000025D0
00002F40
00000D00
00000000
01BE00B4
0BBF00F0
3D7F40E0
74BF81E0
B4FF81D0
B0FFC2C0
75EBD3C0
16D7D380
02D7E780
03C3FB40
0382FB00
0781FF00
0B41FE00
0B00FD00
0F00BD00
ENDCHAR
STARTCHAR ncaron
ENCODING 328
SWIDTH 505 0
DWIDTH 10 0
BBX 12 15 -1 0
BITMAP
006060
003B80
002E00
001800
000000
0BEF80
0FDBD0
1F87E0
1F47D0
2F4BD0
2F0BC0
3E0FC1
7E0F86
7D0FD8
BD07E0
ENDCHAR
STARTCHAR napostrophe
ENCODING 329
SWIDTH 505 0
DWIDTH 10 0
BBX 12 15 -1 0
BITMAP
0E0000
0F0000
0A0000
080000
000000
0BEF80
0FDBD0
1F87E0
1F47D0
2F4BD0
2F0BC0
3E0FC1
7E0F86
7D0FD8
BD07E0
ENDCHAR
STARTCHAR Eng
ENCODING 330
SWIDTH 723 0
DWIDTH 14 0
BBX 15 19 1 -4
BITMAP
01BE00B4
0FBF00F0
3D7F40F0
B4BF41E0
F0FF82D0
F0FFC2D0
B1EBC3C0
12D7D380
02C7E740
03C3EB40
0782FF00
0741FE00
0B40FE00
0F00BD00
0E00BC00
00A0B800
01E0F400
00E2E000
006F4000
ENDCHAR
STARTCHAR eng
ENCODING 331
SWIDTH 505 0
DWIDTH 10 0
BBX 10 15 -1 -5
BITMAP
0BDB80
0FFFD0
1FC7D0
1F47D0
2F4BD0
2F0BC0
3F0F80
7E1F80
7D1F40
BD2F00
01BF00
067E00
087D00
09FC00
07E000
ENDCHAR
STARTCHAR Omacron
ENCODING 332
SWIDTH 665 0
DWIDTH 13 0
BBX 13 18 0 0
BITMAP
001FFF00
00055400
00000000
006BF800
02E56F00
1F5B4F80
3C7D0BC0
B4F80BC0
B6F40BC0
77F00BC0
07E00FC0
0BD00F80
0BD02F40
0BD03F00
0BC07D00
0BD1F800
07FBE000
01BE4000
ENDCHAR
STARTCHAR omacron
ENCODING 333
SWIDTH 433 0
DWIDTH 9 0
BBX 12 14 -1 0
BITMAP
03FFD0
015540
000000
000000
01BE00
07E740
0F8782
2F4BE8
3F0780
7E0740
7E0B00
7E0E00
3F6800
1BE000
ENDCHAR
STARTCHAR Obreve
ENCODING 334
SWIDTH 665 0
DWIDTH 13 0
BBX 14 19 0 0
BITMAP
000F01D0
000B4780
0002FE00
00000000
006BF800
02E56F00
1F5B4F80
3C7D0BC0
B4F80BC0
B6F40BC0
77F00BC0
07E00FC0
0BD00F80
0BD02F40
0BD03F00
0BC07D00
0BD1F800
07FBE000
01BE4000
ENDCHAR
STARTCHAR obreve
ENCODING 335
SWIDTH 433 0
DWIDTH 9 0
BBX 12 15 -1 0
BITMAP
02C074
02D1E0
00BF80
000000
000000
01BE00
07E740
0F8782
2F4BE8
3F0780
7E0740
7E0B00
7E0E00
3F6800
1BE000
ENDCHAR
STARTCHAR Ohungarumlaut
ENCODING 336
SWIDTH 665 0
DWIDTH 13 0
BBX 15 20 0 0
BITMAP
00003CB4
000075E0
0000E280
0001C300
00000000
006BF800
02E56F00
1F5B4F80
3C7D0BC0
B4F80BC0
B6F40BC0
77F00BC0
07E00FC0
0BD00F80
0BD02F40
0BD03F00
0BC07D00
0BD1F800
07FBE000
01BE4000
ENDCHAR
STARTCHAR ohungarumlaut
ENCODING 337
SWIDTH 433 0
DWIDTH 9 0
BBX 12 15 -1 0
BITMAP
002D78
0038B0
0071D0
00D280
000000
01BE00
07E740
0F8782
2F4BE8
3F0780
7E0740
7E0B00
7E0E00
3F6800
1BE000
ENDCHAR
STARTCHAR OE
ENCODING 338
SWIDTH 846 0
DWIDTH 17 0
BBX 18 15 0 0
BITMAP
006BFBFFF0
02E66FBFE0
1F6E0F8000
3C7D0BC000
78F80BC000
B6F40BC000
77F00BC000
17E00FFE00
0BD00F9400
0BD01F4000
0BD02F0000
0BC07D0000
0BD0B80000
07E6FFFD00
01BFFFFC00
ENDCHAR
STARTCHAR oe
ENCODING 339
SWIDTH 663 0
DWIDTH 13 0
BBX 14 10 0 0
BITMAP
06F46F40
1F5EF9C0
3E0FE0C0
BD2FD180
FC2FC200
F80FD400
F81F8010
F82F8060
BD7FE680
6F96F900
ENDCHAR
STARTCHAR Racute
ENCODING 340
SWIDTH 601 0
DWIDTH 12 0
BBX 12 20 0 0
BITMAP
00003C
0000B4
0000E0
000140
000000
006FE0
0B957D
2D692E
78BD2E
B0FC3D
B0F9B4
61FFF4
02F5F8
02F0BC
03F0F8
03E0F8
07D1F4
0BD2F0
0BC2F0
0FC1F4
ENDCHAR
STARTCHAR racute
ENCODING 341
SWIDTH 376 0
DWIDTH 8 0
BBX 9 15 -1 0
BITMAP
000780
000B00
001D00
002800
000000
0BDB40
0FEF80
1F8740
1F4000
2F4000
2F0000
3F0000
7E0000
7D0000
BD0000
ENDCHAR
STARTCHAR Rcommaaccent
ENCODING 342
SWIDTH 601 0
DWIDTH 12 0
BBX 12 20 0 -5
BITMAP
006FE0
0B957D
2D692E
78BD2E
B0FC3D
B0F9B4
61FFF4
02F5F8
02F0BC
03F0F8
03E0F8
07D1F4
0BD2F0
0BC2F0
0FC1F4
000000
007800
003800
002400
001000
ENDCHAR
STARTCHAR rcommaaccent
ENCODING 343
SWIDTH 376 0
DWIDTH 8 0
BBX 9 15 -1 -5
BITMAP
0BDB40
0FEF80
1F8740
1F4000
2F4000
2F0000
3F0000
7E0000
7D0000
BD0000
000000
0E0000
0B0000
0A0000
040000
ENDCHAR
STARTCHAR Rcaron
ENCODING 344
SWIDTH 601 0
DWIDTH 12 0
BBX 13 20 0 0
BITMAP
00020640
0002B800
0001E000
00004000
00000000
006FE000
0B957D00
2D692E00
78BD2E00
B0FC3D00
B0F9B400
61FFF400
02F5F800
02F0BC00
03F0F800
03E0F800
07D1F400
0BD2F000
0BC2F000
0FC1F400
ENDCHAR
STARTCHAR rcaron
ENCODING 345
SWIDTH 376 0
DWIDTH 8 0
BBX 9 15 -1 0
BITMAP
014280
00EE00
00B800
005000
000000
0BDB40
0FEF80
1F8740
1F4000
2F4000
2F0000
3F0000
7E0000
7D0000
BD0000
ENDCHAR
STARTCHAR Sacute
ENCODING 346
SWIDTH 570 0
DWIDTH 11 0
BBX 11 20 0 0
BITMAP
000078
0000B0
0001D0
000140
000000
002FE0
01F978
02F03C
03F07C
02F464
01FD00
00BF00
002FC0
010FE0
1FC7F0
3E03F4
7C02F0
7C03E0
2E5FC0
06F900
ENDCHAR
STARTCHAR sacute
ENCODING 347
SWIDTH 382 0
DWIDTH 8 0
BBX 9 15 -1 0
BITMAP
0003C0
000B40
000E00
001800
005400
01FC00
02FC00
02FC00
09FC00
0CBC00
28BD00
78BD40
A4BE40
65FD00
2FE000
ENDCHAR
STARTCHAR Scircumflex
ENCODING 348
SWIDTH 570 0
DWIDTH 11 0
BBX 11 20 0 0
BITMAP
000060
0002F0
000A68
001404
000000
002FE0
01F978
02F03C
03F07C
02F464
01FD00
00BF00
002FC0
010FE0
1FC7F0
3E03F4
7C02F0
7C03E0
2E5FC0
06F900
ENDCHAR
STARTCHAR scircumflex
ENCODING 349
SWIDTH 382 0
DWIDTH 8 0
BBX 9 15 -1 0
BITMAP
000D00
003D00
01EA00
064200
005400
01FC00
02FC00
02FC00
09FC00
0CBC00
28BD00
78BD40
A4BE40
65FD00
2FE000
ENDCHAR
STARTCHAR Scedilla
ENCODING 350
SWIDTH 570 0
DWIDTH 11 0
BBX 11 20 0 -5
BITMAP
002FE0
01F978
02F03C
03F07C
03F464
01FD00
00BF00
002FC0
010FE0
1FC7F0
3E03F4
7C02F0
7C03E0
2E5BC0
0BFE00
009000
00FD00
002D00
026D00
01F400
ENDCHAR
STARTCHAR scedilla
ENCODING 351
SWIDTH 382 0
DWIDTH 8 0
BBX 9 15 -1 -5
BITMAP
00A800
02FC00
03FC00
06FC00
09FC00
18BD00
78BD00
B8BD80
61FD00
2FE000
090000
0D4000
0FD000
16D000
2F4000
ENDCHAR
STARTCHAR Scaron
ENCODING 352
SWIDTH 570 0
DWIDTH 11 0
BBX 13 20 0 0
BITMAP
00020640
0002BC00
0001E000
00004000
00000000
002FE000
01F97800
02F03C00
03F07C00
02F46400
01FD0000
00BF0000
002FC000
010FE000
1FC7F000
3E03F400
7C02F000
7C03E000
2E5FC000
06F90000
ENDCHAR
STARTCHAR scaron
ENCODING 353
SWIDTH 369 0
DWIDTH 7 0
BBX 10 15 -1 0
BITMAP
008190
00AE00
007800
002000
005400
01FC00
02FC00
02FC00
09FC00
0CBC00
28BD00
78BD40
A0BF40
7AF800
2FD000
ENDCHAR
STARTCHAR uni0162
ENCODING 354
SWIDTH 481 0
DWIDTH 10 0
BBX 15 20 0 -5
BITMAP
01BFA414
1E5FFFF0
381FEFD0
B41F8000
B02F4000
F03F0000
B03F0000
107E0000
00BD0000
00BD0000
00FC0000
00F80000
01F80000
02F40000
02F00000
00800000
01E80000
017C0000
057C0000
02E40000
ENDCHAR
STARTCHAR uni0163
ENCODING 355
SWIDTH 267 0
DWIDTH 5 0
BBX 7 18 -1 -5
BITMAP
02E0
07E0
0BD0
1FF4
0FD0
0F80
1F80
2F40
2F00
3F04
3E18
3FF0
1F80
1800
2F40
1780
5780
7E00
ENDCHAR
STARTCHAR Tcaron
ENCODING 356
SWIDTH 481 0
DWIDTH 10 0
BBX 15 20 0 0
BITMAP
00040100
00066C00
0003E000
00028000
00000000
01BFA414
1E5FFFF0
381FEFD0
B41F8000
B02F4000
F03F0000
B03F0000
107E0000
00BD0000
00BD0000
00FC0000
00F80000
01F80000
02F40000
02F00000
ENDCHAR
STARTCHAR tcaron
ENCODING 357
SWIDTH 267 0
DWIDTH 5 0
BBX 9 15 0 0
BITMAP
000F00
000F40
0A8700
1F8900
2F4000
7FD000
3F4000
3E0000
7E0000
BD0000
BC0000
FC1000
F86000
FFC000
7E0000
ENDCHAR
STARTCHAR Tbar
ENCODING 358
SWIDTH 481 0
DWIDTH 10 0
BBX 15 15 0 0
BITMAP
01BFA414
1E5FFFF0
381F9BD0
741F4000
B02F4000
F02F0000
B03F0000
107E0000
007E0000
1FFFF800
05FD5000
00FC0000
01F80000
02F40000
02F00000
ENDCHAR
STARTCHAR tbar
ENCODING 359
SWIDTH 267 0
DWIDTH 5 0
BBX 7 13 -1 0
BITMAP
02E0
07E0
0BD0
1FF4
0FD0
7FF4
1F90
2F40
2F00
3F04
3E18
3FF0
1F80
ENDCHAR
STARTCHAR Utilde
ENCODING 360
SWIDTH 716 0
DWIDTH 14 0
BBX 15 19 0 0
BITMAP
00001500
0001FFF4
00011B90
00000000
006F40BC
0BBF00F8
2D3E01F8
B47E01F4
F0BD02F0
E0BC03F0
B0F803E0
01F407E0
02F00BD0
02F00FC0
03E01F80
03E02F40
03F07E00
02FFFC00
00BF9000
ENDCHAR
STARTCHAR utilde
ENCODING 361
SWIDTH 505 0
DWIDTH 10 0
BBX 11 14 0 0
BITMAP
02F950
0AFF80
001500
000000
2F0BC0
3F0FC0
7E1F80
7D1F40
BD2F40
BC3F00
FC3E08
F8BE24
FFBFE0
7E1F80
ENDCHAR
STARTCHAR Umacron
ENCODING 362
SWIDTH 716 0
DWIDTH 14 0
BBX 15 18 0 0
BITMAP
0001FFF0
00005540
00000000
006F40BC
0BBF00F8
2D3E01F8
B47E01F4
F0BD02F0
E0BC03F0
B0F803E0
01F407E0
02F00BD0
02F00FC0
03E01F80
03E02F40
03F07E00
02FFFC00
00BF9000
ENDCHAR
STARTCHAR umacron
ENCODING 363
SWIDTH 505 0
DWIDTH 10 0
BBX 11 14 0 0
BITMAP
0BFFC0
015500
000000
000000
2F0BC0
3F0FC0
7E1F80
7D1F40
BD2F40
BC3F00
FC3E08
F8BE24
FFBFE0
7E1F80
ENDCHAR
STARTCHAR Ubreve
ENCODING 364
SWIDTH 716 0
DWIDTH 14 0
BBX 15 19 0 0
BITMAP
0001D038
0001E0B0
00007F80
00000000
006F40BC
0BBF00F8
2D3E01F8
B47E01F4
F0BD02F0
E0BC03F0
B0F803E0
01F407E0
02F00BD0
02F00FC0
03E01F80
03E02F40
03F07E00
02FFFC00
00BF9000
ENDCHAR
STARTCHAR ubreve
ENCODING 365
SWIDTH 505 0
DWIDTH 10 0
BBX 11 15 0 0
BITMAP
0B41D0
0787C0
02FE00
000000
000000
2F0BC0
3F0FC0
7E1F80
7D1F40
BD2F40
BC3F00
FC3E08
F8BE24
FFBFE0
7E1F80
ENDCHAR
STARTCHAR Uring
ENCODING 366
SWIDTH 716 0
DWIDTH 14 0
BBX 15 19 0 0
BITMAP
00001E00
00003600
00002E00
00000000
006F40BC
0BBF00F8
2D3E01F8
B47E01F4
F0BD02F0
E0BC03F0
B0F803E0
01F407E0
02F00BD0
02F00FC0
03E01F80
03E02F40
03F07E00
02FFFC00
00BF9000
ENDCHAR
STARTCHAR uring
ENCODING 367
SWIDTH 505 0
DWIDTH 10 0
BBX 11 14 0 0
BITMAP
007800
00D800
00B800
000000
2F0BC0
3F0FC0
7E1F80
7D1F40
BD2F40
BC3F00
FC3E08
F8BE24
FFBFE0
7E1F80
ENDCHAR
STARTCHAR Uhungarumlaut
ENCODING 368
SWIDTH 716 0
DWIDTH 14 0
BBX 16 20 0 0
BITMAP
00000F2D
00001D78
000038A0
000060C0
00000000
006F40BC
0BBF00F8
2D3E01F8
B47E01F4
F0BD02F0
E0BC03F0
B0F803E0
01F407E0
02F00BD0
02F00FC0
03E01F80
03E02F40
03F07E00
02FFFC00
00BF9000
ENDCHAR
STARTCHAR uhungarumlaut
ENCODING 369
SWIDTH 505 0
DWIDTH 10 0
BBX 11 15 0 0
BITMAP
0079E0
00E2C0
01C340
034A00
000000
2F0BC0
3F0FC0
7E1F80
7D1F40
BD2F40
BC3F00
FC3E08
F8BE24
FFBFE0
7E1F80
ENDCHAR
STARTCHAR Uogonek
ENCODING 370
SWIDTH 716 0
DWIDTH 14 0
BBX 15 24 0 -4
BITMAP
0000B400
00007400
00003800
00003800
00000000
006F40BC
0BBF00F8
2D3E01F8
B47E01F4
F0BD02F0
E0BC03F0
B0F803E0
01F407E0
02F40BD0
02F00FC0
03E01F80
03E02F40
03F07E00
02FFFC00
00BFE000
001C0000
00380000
00385000
002F8000
ENDCHAR
STARTCHAR uogonek
ENCODING 371
SWIDTH 505 0
DWIDTH 10 0
BBX 11 14 0 -4
BITMAP
2F0BC0
3F0FC0
7E1F80
7D1F40
BD2F40
BC3F00
FC3E08
F8BE24
FFBFE0
7E1F80
001C00
003800
003850
002F80
ENDCHAR
STARTCHAR Wcircumflex
ENCODING 372
SWIDTH 962 0
DWIDTH 19 0
BBX 21 20 0 0
BITMAP
000000050000
0000001E0000
0000007B0000
000002824000
000000000000
006F00FC0340
07BF01FC0700
2D3F02FC0A00
783F03FC0D00
B03F07FC1C00
B03F0AFC2800
703F0DFC3400
003F1CFC7000
003F28FC9000
003F34FCC000
002F60FD8000
002F90FE4000
002FC0FF0000
002F80FE0000
002F40BD0000
ENDCHAR
STARTCHAR wcircumflex
ENCODING 373
SWIDTH 661 0
DWIDTH 13 0
BBX 13 15 0 0
BITMAP
0000C000
0003D000
000FA000
00642000
00000000
2F0BC780
3F0FC7C0
7E1F81C0
7D1F4180
BD2F4240
BC3F0340
FC3E0A00
F8BE1D00
FFBFF400
7E1F9000
ENDCHAR
STARTCHAR Ycircumflex
ENCODING 374
SWIDTH 620 0
DWIDTH 12 0
BBX 14 20 0 0
BITMAP
00000100
00001F00
00007B40
00029180
00000000
006F00A0
07BF40D0
2D2F81C0
781F8240
B01FC700
B00FDA00
700BEC00
0007F800
0007F400
0007F000
0007E000
000BE000
000FD000
000FC000
001FC000
ENDCHAR
STARTCHAR ycircumflex
ENCODING 375
SWIDTH 505 0
DWIDTH 10 0
BBX 11 20 0 -5
BITMAP
000900
003E00
01E700
024200
000000
2F0BC0
3F0FC0
7E1F80
7D1F40
BD2F40
BC3F00
FC3E14
F8BE20
FFFD90
7EBF40
06FC00
19F800
31F400
3BF000
1F8000
ENDCHAR
STARTCHAR Ydieresis
ENCODING 376
SWIDTH 620 0
DWIDTH 12 0
BBX 14 18 0 0
BITMAP
0001F2D0
0001E2D0
00000000
006F00A0
07BF40D0
2D2F81C0
781F8240
B01FC700
B00FDA00
700BEC00
0007F800
0007F400
0007F000
0007E000
000BE000
000FD000
000FC000
001FC000
ENDCHAR
STARTCHAR Zacute
ENCODING 377
SWIDTH 542 0
DWIDTH 11 0
BBX 11 20 0 0
BITMAP
000014
000074
0000E0
0001C0
000000
07FFF8
0F57F4
1F07E0
040FD0
001F80
003F40
007E00
00FD00
01F800
03F400
0BE000
0FD050
2F80F0
3F55E0
BFFF80
ENDCHAR
STARTCHAR zacute
ENCODING 378
SWIDTH 428 0
DWIDTH 9 0
BBX 9 15 0 0
BITMAP
000B40
001E00
002C00
002400
000000
0BFF40
2D7E00
2CBC00
01F800
02F000
07D000
0FC000
2F4900
3F5E00
BFF800
ENDCHAR
STARTCHAR Zdotaccent
ENCODING 379
SWIDTH 530 0
DWIDTH 11 0
BBX 11 18 0 0
BITMAP
000F40
000B40
000000
07FFF8
0F57F4
1F07E0
040FD0
001F80
003F40
007E00
00FD00
01F800
03F400
0BE000
0FD050
2F80F0
3F55E0
BFFF80
ENDCHAR
STARTCHAR zdotaccent
ENCODING 380
SWIDTH 428 0
DWIDTH 9 0
BBX 9 14 0 0
BITMAP
007800
007800
000000
000000
0BFF40
2D7E00
2CBC00
01F800
02F000
07D000
0FC000
2F4900
3F5E00
BFF800
ENDCHAR
STARTCHAR Zcaron
ENCODING 381
SWIDTH 542 0
DWIDTH 11 0
BBX 12 20 0 0
BITMAP
000405
000A68
0007E0
000340
000000
07FFF8
0F57F4
1F07E0
040FD0
001F80
003F40
007E00
00FD00
01F800
03F400
0BE000
0FD050
2F80F0
3F55E0
BFFF80
ENDCHAR
STARTCHAR zcaron
ENCODING 382
SWIDTH 428 0
DWIDTH 9 0
BBX 9 15 0 0
BITMAP
008180
00AE00
007800
002000
000000
0BFF40
2D7E00
2CBC00
01F800
02F000
07D000
0FC000
2F4900
3F5E00
BFF800
ENDCHAR
STARTCHAR longs
ENCODING 383
SWIDTH 267 0
DWIDTH 5 0
BBX 12 20 -4 -5
BITMAP
0001F8
000BDA
000F85
001F40
002F40
00BF00
007F00
003E00
007D00
00BD00
00BC00
00F800
01F800
01F400
02F400
1BF000
B7E000
C7D000
DBC000
7E4000
ENDCHAR
STARTCHAR uni018F
ENCODING 399
SWIDTH 544 0
DWIDTH 11 0
BBX 11 15 0 0
BITMAP
01BE40
0BFFE0
0E57F4
0402F8
0002F8
0002F8
006FF8
02E7F8
0F83F4
2E07F0
7D0BD0
BC0F80
7C2F00
7DBD00
1BE000
ENDCHAR
STARTCHAR florin
ENCODING 402
SWIDTH 267 0
DWIDTH 5 0
BBX 14 20 -5 -5
BITMAP
00001BD0
00007DE0
0000F9E0
0002F440
0003F000
002FFF00
000BD400
000BC000
000F8000
001F8000
002F4000
003F0000
007E0000
00BD0000
00BC0000
00F80000
11F40000
B2E00000
E7C00000
7E000000
ENDCHAR
STARTCHAR Ohorn
ENCODING 416
SWIDTH 665 0
DWIDTH 13 0
BBX 15 18 0 0
BITMAP
00000010
00000074
00000074
006BF8A0
02E56FD0
1F5B4F80
3C7D0BC0
B4F80BC0
B6F40BC0
77F00BC0
07E00FC0
0BD00F80
0BD02F40
0BD03F00
0BC07D00
0BD1F800
07FBE000
01BE4000
ENDCHAR
STARTCHAR ohorn
ENCODING 417
SWIDTH 439 0
DWIDTH 9 0
BBX 11 13 -1 0
BITMAP
000014
000038
000038
00BEB0
07E7D0
0FC380
2F4380
3F0380
3E0780
7E0B40
3F1E00
2FF800
0BE000
ENDCHAR
STARTCHAR Uhorn
ENCODING 431
SWIDTH 716 0
DWIDTH 14 0
BBX 18 19 0 0
BITMAP
0000000040
00000001D0
00000002D0
0000000380
006F40BE00
0BBF00FC00
2D3E01F800
B47E01F400
F0BD02F400
E0BC03F000
B0F803E000
01F407E000
02F00BD000
02F00FC000
03E01F8000
03E02F4000
03F07E0000
02FFFC0000
00BF900000
ENDCHAR
STARTCHAR uhorn
ENCODING 432
SWIDTH 505 0
DWIDTH 10 0
BBX 11 13 0 0
BITMAP
000028
000038
000074
2F0BE0
3F0FC0
7E1F80
7D1F40
BD2F40
BC3F00
FC3E08
F8BE24
FFBFE0
7E1F80
ENDCHAR
STARTCHAR uni01B7
ENCODING 439
SWIDTH 555 0
DWIDTH 11 0
BBX 11 15 0 0
BITMAP
06FFFC
0F56F4
0F07E0
010F80
002F00
00BD00
00FE40
005FD0
000BF0
0007F0
1407F0
7807E0
B40FD0
796F40
1BF800
ENDCHAR
STARTCHAR uni01CD
ENCODING 461
SWIDTH 668 0
DWIDTH 13 0
BBX 17 22 0 -2
BITMAP
0000010040
0000019A00
000000F800
0000009000
0000000000
00000BE000
00003FE000
0000EBD000
00038BC000
000B0FC000
001E0F8000
1BFE5F8000
79B9BF4000
B4F02F0000
52E03F0000
03D07E0000
07C07D0000
0B80BD0000
0F40FC0000
1F40F80000
1F00000000
0B40000000
ENDCHAR
STARTCHAR uni01CE
ENCODING 462
SWIDTH 526 0
DWIDTH 11 0
BBX 12 15 -1 0
BITMAP
000818
000EE0
000B80
000600
000000
01BEF4
07E7F4
0FC2F0
2F43F0
3F07E0
3E07D0
7E0BD1
7E1FC2
3FFBFD
1B92E4
ENDCHAR
STARTCHAR uni01CF
ENCODING 463
SWIDTH 375 0
DWIDTH 8 0
BBX 11 20 0 0
BITMAP
001004
0019A0
000F80
000A00
000000
006E00
07BE00
2D7D00
78BD00
B0FC00
B0F800
71F800
02F400
02F000
03F000
03E000
07E000
0BD000
0BC000
0FC000
ENDCHAR
STARTCHAR uni01D0
ENCODING 464
SWIDTH 267 0
DWIDTH 5 0
BBX 7 15 0 0
BITMAP
1818
0EE0
0B80
0500
0000
2F00
3F00
7E00
7D00
BD00
BC00
FC10
F860
FFC0
7E00
ENDCHAR
STARTCHAR uni01D1
ENCODING 465
SWIDTH 665 0
DWIDTH 13 0
BBX 14 20 0 0
BITMAP
00008090
00006B40
00003D00
00002400
00000000
006BF800
02E56F00
1F5B4F80
3C7D0BC0
B4F80BC0
B6F40BC0
77F00BC0
07E00FC0
0BD00F80
0BD02F40
0BD03F00
0BC07D00
0BD1F800
07FBE000
01BE4000
ENDCHAR
STARTCHAR uni01D2
ENCODING 466
SWIDTH 433 0
DWIDTH 9 0
BBX 12 15 -1 0
BITMAP
006060
003B80
002E00
001800
000000
01BE00
07E740
0F8786
2F4BE8
3F0780
7E0740
7E0B00
7E1E00
3FB800
1BE000
ENDCHAR
STARTCHAR uni01D3
ENCODING 467
SWIDTH 716 0
DWIDTH 14 0
BBX 15 20 0 0
BITMAP
00002428
00001ED0
00000F40
00000900
00000000
006F40BC
0BBF00F8
2D3E01F8
B47E01F4
F0BD02F0
E0BC03F0
B0F803E0
01F407E0
02F00BD0
02F00FC0
03E01F80
03E02F40
03F07E00
02FFFC00
00BF9000
ENDCHAR
STARTCHAR uni01D4
ENCODING 468
SWIDTH 505 0
DWIDTH 10 0
BBX 11 15 0 0
BITMAP
008190
00AB40
007C00
002000
000000
2F0BC0
3F0FC0
7E1F80
7D1F40
BD2F40
BC3F00
FC3E08
F8BE24
FFBFE0
7E1F80
ENDCHAR
STARTCHAR uni01D5
ENCODING 469
SWIDTH 716 0
DWIDTH 14 0
BBX 15 20 0 0
BITMAP
0000FFF4
00005550
0001E0E0
0001E0F0
00000000
006F40BC
0BBF00F8
2D3E01F8
B47E01F4
F0BD02F0
E0BC03F0
B0F803E0
01F407E0
02F00BD0
02F00FC0
03E01F80
03E02F40
03F07E00
02FFFC00
00BF9000
ENDCHAR
STARTCHAR uni01D6
ENCODING 470
SWIDTH 505 0
DWIDTH 10 0
BBX 11 17 0 0
BITMAP
03FFE0
015540
000000
038740
03CB80
000000
000000
2F0BC0
3F0FC0
7E1F80
7D1F40
BD2F40
BC3F00
FC3E08
F8BE24
FFBFE0
7E1F80
ENDCHAR
STARTCHAR uni01D7
ENCODING 471
SWIDTH 716 0
DWIDTH 14 0
BBX 15 20 0 0
BITMAP
00000780
00078B78
0007DD3C
00001400
00000000
006F40BC
0BBF00F8
2D3E01F8
B47E01F4
F0BD02F0
E0BC03F0
B0F803E0
01F407E0
02F00BD0
02F00FC0
03E01F80
03E02F40
03F07E00
02FFFC00
00BF9000
ENDCHAR
STARTCHAR uni01D8
ENCODING 472
SWIDTH 505 0
DWIDTH 10 0
BBX 11 19 0 0
BITMAP
000240
000B40
000E00
002C00
000000
038740
03CB80
000000
000000
2F0BC0
3F0FC0
7E1F80
7D1F40
BD2F40
BC3F00
FC3E08
F8BE24
FFBFE0
7E1F80
ENDCHAR
STARTCHAR uni01D9
ENCODING 473
SWIDTH 716 0
DWIDTH 14 0
BBX 15 20 0 0
BITMAP
00002090
0007AF78
0007DD3C
00000000
00000000
006F40BC
0BBF00F8
2D3E01F8
B47E01F4
F0BD02F0
E0BC03F0
B0F803E0
01F407E0
02F00BD0
02F00FC0
03E01F80
03E02F40
03F07E00
02FFFC00
00BF9000
ENDCHAR
STARTCHAR uni01DA
ENCODING 474
SWIDTH 505 0
DWIDTH 10 0
BBX 11 18 0 0
BITMAP
0050A0
003B40
002D00
001400
038740
03CB80
000000
000000
2F0BC0
3F0FC0
7E1F80
7D1F40
BD2F40
BC3F00
FC3E08
F8BE24
FFBFE0
7E1F80
ENDCHAR
STARTCHAR uni01DB
ENCODING 475
SWIDTH 716 0
DWIDTH 14 0
BBX 15 20 0 0
BITMAP
00001E00
00079E38
0007CE3C
00000B00
00000000
006F40BC
0BBF00F8
2D3E01F8
B47E01F4
F0BD02F0
E0BC03F0
B0F803E0
01F407E0
02F00BD0
02F00FC0
03E01F80
03E02F40
03F07E00
02FFFC00
00BF9000
ENDCHAR
STARTCHAR uni01DC
ENCODING 476
SWIDTH 505 0
DWIDTH 10 0
BBX 11 19 0 0
BITMAP
00F000
00B000
007400
003400
000000
038740
03CB80
000000
000000
2F0BC0
3F0FC0
7E1F80
7D1F40
BD2F40
BC3F00
FC3E08
F8BE24
FFBFE0
7E1F80
ENDCHAR
STARTCHAR uni01E4
ENCODING 484
SWIDTH 601 0
DWIDTH 12 0
BBX 12 19 0 -4
BITMAP
006FE0
02F97C
0BE02D
2F803D
3F4028
7F0000
BE0000
BE00B8
BD0FFE
7E01F4
2F47F0
0BFAF0
0003E0
0007D0
0BE7D0
1D1BC0
2C0F40
1D2E00
0BF800
ENDCHAR
STARTCHAR uni01E5
ENCODING 485
SWIDTH 507 0
DWIDTH 10 0
BBX 12 15 -1 -5
BITMAP
01BEF4
07E7F4
0FC2F0
2F43F0
3F07E0
3E07D0
7E0BD2
7F1FC6
3FFF9C
1BAFF4
006F80
02AF40
2FFFD0
0ABE00
06F800
ENDCHAR
STARTCHAR Gcaron
ENCODING 486
SWIDTH 578 0
DWIDTH 12 0
BBX 13 24 0 -4
BITMAP
00020640
0001AD00
0001F400
0000D000
00000000
006FE000
02F97C00
0BE02D00
2F803D00
3F402400
7F000000
BE001400
BE00B800
BD00F800
7E02F400
2F47F000
0BFAF000
0003E000
0007D000
0BE7D000
1D1BC000
2C0F4000
1D2E0000
0BF80000
ENDCHAR
STARTCHAR gcaron
ENCODING 487
SWIDTH 507 0
DWIDTH 10 0
BBX 12 20 -1 -5
BITMAP
000818
000EE0
000B80
000600
000000
01BEF4
07E7F4
0FC2F0
2F43F0
3F07E0
3E07D0
7E0BD2
7F1FC6
3FFF98
1BAFE0
00BF40
03AF00
0A3F00
0ABD00
02F400
ENDCHAR
STARTCHAR uni01E8
ENCODING 488
SWIDTH 601 0
DWIDTH 12 0
BBX 14 20 0 0
BITMAP
00004010
000066D0
00003E00
00002800
00000000
00AE0780
0BBE0F00
2D7D2C00
B4BCB000
B0FDD000
B0FF4000
21FFE400
02F4F800
02F0BC00
03F0F800
07E1F800
07D1F400
0BD2F000
0BC2F000
0FC1F400
ENDCHAR
STARTCHAR uni01E9
ENCODING 489
SWIDTH 518 0
DWIDTH 10 0
BBX 12 19 -1 0
BITMAP
000405
000668
0003E0
000240
000000
02A000
03E000
07E000
0BD000
0BC1E0
0FC740
0FAD00
1FFF80
2F9FD0
2F0BD0
3F0BC1
7E0FC6
7D0FFC
BD06E4
ENDCHAR
STARTCHAR uni01EA
ENCODING 490
SWIDTH 665 0
DWIDTH 13 0
BBX 13 24 0 -4
BITMAP
000F0000
000B0000
00074000
00034000
00000000
006BF800
02E56F00
1F5B4F80
3C7D0BC0
B4F80BC0
B6F40BC0
77F00BC0
07E00FC0
0BD00F80
0BD02F40
0BD03E00
0BC07D00
0BD1F800
07FBE000
01FE4000
00900000
01C00000
02D10000
00FD0000
ENDCHAR
STARTCHAR uni01EB
ENCODING 491
SWIDTH 433 0
DWIDTH 9 0
BBX 12 14 -1 -4
BITMAP
01BE00
07E740
0F8782
2F4BE8
3F0780
7E0740
7E0B00
7E0E00
3F6800
1FE000
0D0000
2C0000
2D5000
1F8000
ENDCHAR
STARTCHAR uni01EE
ENCODING 494
SWIDTH 525 0
DWIDTH 11 0
BBX 11 20 0 0
BITMAP
000404
000D74
000BD0
000600
000000
06FFFC
0F56F4
0F07E0
010F80
002F00
00BD00
00FE40
005FD0
000BF0
0007F0
1407F0
7807E0
B40FD0
796F40
1BF800
ENDCHAR
STARTCHAR uni01EF
ENCODING 495
SWIDTH 600 0
DWIDTH 12 0
BBX 10 20 0 -5
BITMAP
004040
00D740
00BD00
006000
000000
1FFE00
79BD00
74F800
02F000
07D000
0FC000
1F8010
07D090
03E180
03FA00
07F400
3BF000
97E000
DBC000
7E4000
ENDCHAR
STARTCHAR uni01F4
ENCODING 500
SWIDTH 578 0
DWIDTH 12 0
BBX 12 24 0 -4
BITMAP
00003C
000074
0000E0
0001D0
000000
006FE4
02F97C
0BE02D
2F8038
3F4000
7F0000
BE0068
BE00B8
BD00F4
7E02F4
2F47F0
0BFAE0
0003E0
0007D0
0BE7C0
1D1B80
2C0F40
1D2E00
0BF800
ENDCHAR
STARTCHAR uni01F5
ENCODING 501
SWIDTH 507 0
DWIDTH 10 0
BBX 12 20 -1 -5
BITMAP
0002E0
0003C0
000740
000A00
000000
01BEF4
07E7F4
0FC2F0
2F43F0
3F07E0
3E07D0
7E0BD2
7F1FC6
3FFF98
1BAFE0
00BF40
03AF00
0A3F00
0ABD00
02F400
ENDCHAR
STARTCHAR Aringacute
ENCODING 506
SWIDTH 668 0
DWIDTH 13 0
BBX 16 22 0 -2
BITMAP
00000019
00000038
000001F0
00000370
000002B0
000006E0
00002FE0
0000EBD0
00028BD0
000B0FC0
001E0F80
1BFE5F80
79B9BF40
B4F02F00
52E03F00
03D07E00
07C07D00
0B80BD00
0F40FC00
1F40F800
1F000000
0B400000
ENDCHAR
STARTCHAR aringacute
ENCODING 507
SWIDTH 526 0
DWIDTH 11 0
BBX 12 16 -1 0
BITMAP
0000E0
0002C0
000A80
001880
000F40
000000
01BEF4
07E7F4
0FC2F0
2F43F0
3F07E0
3E07D0
7E0BD1
7E1FC2
3FFBFD
1B92E4
ENDCHAR
STARTCHAR AEacute
ENCODING 508
SWIDTH 764 0
DWIDTH 15 0
BBX 18 22 0 -2
BITMAP
0000000640
0000000E00
0000002C00
0000003400
0000000000
00000BE420
00003FFFE0
0000EBD000
00038BD000
000B0FC000
001E0F8000
1BFE5F8000
7DB9BFFD00
B4F02F5400
66E03F0000
03D07E0000
0BC07D0000
0B80BD0000
0F40FFFE00
1F40FFFD00
1F00000000
0B00000000
ENDCHAR
STARTCHAR aeacute
ENCODING 509
SWIDTH 650 0
DWIDTH 13 0
BBX 14 15 0 0
BITMAP
00002D00
00003800
0000B000
0000D000
00000000
06F9BE00
196FF780
001FD380
001F8740
1BFF5E00
BE7FF400
F83F0010
F8BF0080
FFEF9600
7E4BE400
ENDCHAR
STARTCHAR Oslashacute
ENCODING 510
SWIDTH 658 0
DWIDTH 13 0
BBX 13 21 0 -1
BITMAP
00000B40
00000E00
00002C00
00003800
00000000
00006000
006FF400
07FFEE00
2E7ECF40
78F98F80
B6F58F80
77F24F80
07E25F40
0BD31F40
0BC62F00
0FC67D00
0FC9BC00
0BCEF400
07EFD000
01BD0000
00240000
ENDCHAR
STARTCHAR oslashacute
ENCODING 511
SWIDTH 428 0
DWIDTH 9 0
BBX 10 16 -1 -1
BITMAP
0002D0
000380
000B00
000D00
000000
00BE30
07E7D0
0FC380
2F4B80
3F2B80
3E6740
7F8B00
3F1E00
2FF800
3BE000
D00000
ENDCHAR
STARTCHAR uni0200
ENCODING 512
SWIDTH 668 0
DWIDTH 13 0
BBX 14 22 0 -2
BITMAP
0002D780
0000E2C0
000074D0
00002870
00000000
00000BE0
00003FE0
0000EBD0
00038BC0
000B0FC0
001E0F80
1BFE5F80
79B9BF40
B4F02F00
52E03F00
03D07E00
07C07D00
0B80BD00
0F40FC00
1F40F800
1F000000
0B400000
ENDCHAR
STARTCHAR uni0201
ENCODING 513
SWIDTH 526 0
DWIDTH 11 0
BBX 12 15 -1 0
BITMAP
078F00
02D740
00A2C0
003090
000000
01BEF4
07E7F4
0FC2F0
2F43F0
3F07E0
3E07D0
7E0BD1
7E1FC2
3FFBFD
1B92E4
ENDCHAR
STARTCHAR uni0202
ENCODING 514
SWIDTH 668 0
DWIDTH 13 0
BBX 16 21 0 -2
BITMAP
000006F9
00001E5F
00002806
00000000
00000BE0
00003FE0
0000EBD0
00038BC0
000B0FC0
001E0F80
1BFE5F80
79B9BF40
B4F02F00
52E03F00
03D07E00
07C07D00
0B80BD00
0F40FC00
1F40F800
1F000000
0B400000
ENDCHAR
STARTCHAR uni0203
ENCODING 515
SWIDTH 526 0
DWIDTH 11 0
BBX 12 14 -1 0
BITMAP
002FE0
00F5B4
019028
000000
01BEF4
07E7F4
0FC2F0
2F43F0
3F07E0
3E07D0
7E0BD1
7E1FC2
3FFBFD
1B92E4
ENDCHAR
STARTCHAR uni0204
ENCODING 516
SWIDTH 459 0
DWIDTH 9 0
BBX 10 20 0 0
BITMAP
0B5E00
02CB00
00D280
0061C0
000000
006F80
01F5E0
03E0A0
07D0E0
07D040
03E000
02F800
0BD000
2F8000
7F0000
BE0000
BE0010
BF4180
7FFE00
1BE400
ENDCHAR
STARTCHAR uni0205
ENCODING 517
SWIDTH 384 0
DWIDTH 8 0
BBX 9 15 -1 0
BITMAP
1E7800
0B2D00
034A00
01C300
000000
01BE00
07E740
0F8740
2F4B00
3F6D00
3FE400
7E0040
7E0180
3FAE00
1BE400
ENDCHAR
STARTCHAR uni0206
ENCODING 518
SWIDTH 459 0
DWIDTH 9 0
BBX 11 19 0 0
BITMAP
001BE4
00797C
00A018
000000
006F80
01F5E0
03E0A0
07D0E0
07D040
03E000
02F800
0BD000
2F8000
7F0000
BE0000
BE0010
BF4180
7FFE00
1BE400
ENDCHAR
STARTCHAR uni0207
ENCODING 519
SWIDTH 384 0
DWIDTH 8 0
BBX 9 14 -1 0
BITMAP
01BE40
0797C0
0A02C0
000000
01BE00
07E740
0F8740
2F4B00
3F6D00
3FE400
7E0000
7E0180
3F5600
1BE400
ENDCHAR
STARTCHAR uni0208
ENCODING 520
SWIDTH 375 0
DWIDTH 8 0
BBX 9 20 0 0
BITMAP
1E7800
0B1D00
034A00
01C340
000000
006E00
07BE00
2D7D00
74BD00
B0FC00
B0F800
71F800
02F400
02F000
03F000
07E000
07E000
0BD000
0BC000
0FC000
ENDCHAR
STARTCHAR uni0209
ENCODING 521
SWIDTH 267 0
DWIDTH 5 0
BBX 8 15 -2 0
BITMAP
B5E0
38B0
1D38
0A1C
0000
02F0
03F0
07E0
07D0
0BD0
0BC0
0FC1
0F86
0FFC
07E0
ENDCHAR
STARTCHAR uni020A
ENCODING 522
SWIDTH 375 0
DWIDTH 8 0
BBX 10 19 0 0
BITMAP
006F80
02D5E0
0240A0
000000
006E00
07BE00
2D7D00
78BD00
B0FC00
B0F800
71F800
02F400
02F000
03F000
03E000
07E000
0BD000
0BC000
0FC000
ENDCHAR
STARTCHAR uni020B
ENCODING 523
SWIDTH 267 0
DWIDTH 5 0
BBX 6 14 0 0
BITMAP
1F80
B5E0
9060
0000
2F00
3F00
7E00
7D00
BD00
BC00
FC10
F860
FFC0
7E00
ENDCHAR
STARTCHAR uni020C
ENCODING 524
SWIDTH 665 0
DWIDTH 13 0
BBX 13 20 0 0
BITMAP
00F2D000
0078E000
001C7400
00092800
00000000
006BF800
02E56F00
1F5B4F80
3C7D0BC0
B4F80BC0
B6F40BC0
77F00BC0
07E00FC0
0BD00F80
0BD02F40
0BD03F00
0BC07D00
0BD1F800
07FBE000
01BE4000
ENDCHAR
STARTCHAR uni020D
ENCODING 525
SWIDTH 433 0
DWIDTH 9 0
BBX 12 15 -1 0
BITMAP
2D7800
0B2C00
074E00
018700
000000
01BE00
07E740
0F8786
2F4BE8
3F0780
7E0740
7E0B00
7E1E00
3FB800
1BE000
ENDCHAR
STARTCHAR uni020E
ENCODING 526
SWIDTH 665 0
DWIDTH 13 0
BBX 13 19 0 0
BITMAP
0001BE00
000B9780
00090280
00000000
006BF800
02E56F00
1F5B4F80
3C7D0BC0
B4F80BC0
B6F40BC0
77F00BC0
07E00FC0
0BD00F80
0BD02F40
0BD03F00
0BC07D00
0BD1F800
07FBE000
01BE4000
ENDCHAR
STARTCHAR uni020F
ENCODING 527
SWIDTH 433 0
DWIDTH 9 0
BBX 12 14 -1 0
BITMAP
007F80
02D6D0
0740E0
000000
01BE00
07E740
0F8782
2F4BE8
3F0780
7E0740
7E0B00
7E0E00
3F6800
1BE000
ENDCHAR
STARTCHAR uni0210
ENCODING 528
SWIDTH 601 0
DWIDTH 12 0
BBX 12 20 0 0
BITMAP
078F00
02C740
00E280
0070D0
000000
006FE0
0B957D
2D692E
78BD2E
B0FC3D
B0F9B4
61FFF4
02F5F8
02F0BC
03F0F8
03E0F8
07D1F4
0BD2F0
0BC2F0
0FC1F4
ENDCHAR
STARTCHAR uni0211
ENCODING 529
SWIDTH 376 0
DWIDTH 8 0
BBX 9 15 -1 0
BITMAP
78F000
2C7400
0E2800
070D00
000000
0BDB40
0FEF80
1F8740
1F4000
2F4000
2F0000
3F0000
7E0000
7D0000
BD0000
ENDCHAR
STARTCHAR uni0212
ENCODING 530
SWIDTH 601 0
DWIDTH 12 0
BBX 12 19 0 0
BITMAP
001BE4
00797C
00A018
000000
006FE0
0B957D
2D692E
78BD2E
B0FC3D
B0F9B4
61FFF4
02F5F8
02F0BC
03F0F8
03E0F8
07D1F4
0BD2F0
0BC2F0
0FC1F4
ENDCHAR
STARTCHAR uni0213
ENCODING 531
SWIDTH 376 0
DWIDTH 8 0
BBX 10 14 -1 0
BITMAP
01BE40
0797C0
0A0190
000000
0BDB40
0FEF80
1F8740
1F4000
2F4000
2F0000
3F0000
7E0000
7D0000
BD0000
ENDCHAR
STARTCHAR uni0214
ENCODING 532
SWIDTH 716 0
DWIDTH 14 0
BBX 15 20 0 0
BITMAP
001E3C00
00075D00
00028B00
0000C240
00000000
006F40BC
0BBF00F8
2D3E01F8
B47E01F4
F0BD02F0
E0BC03F0
B0F803E0
01F407E0
02F00BD0
02F00FC0
03E01F80
03E02F40
03F07E00
02FFFC00
00BF9000
ENDCHAR
STARTCHAR uni0215
ENCODING 533
SWIDTH 505 0
DWIDTH 10 0
BBX 11 15 0 0
BITMAP
78F000
2C7400
0A2C00
070D00
000000
2F0BC0
3F0FC0
7E1F80
7D1F40
BD2F40
BC3F00
FC3E08
F8BE24
FFBFE0
7E1F80
ENDCHAR
STARTCHAR uni0216
ENCODING 534
SWIDTH 716 0
DWIDTH 14 0
BBX 15 19 0 0
BITMAP
00006F90
0001E5F0
00028060
00000000
006F40BC
0BBF00F8
2D3E01F8
B47E01F4
F0BD02F0
E0BC03F0
B0F803E0
01F407E0
02F00BD0
02F00FC0
03E01F80
03E02F40
03F07E00
02FFFC00
00BF9000
ENDCHAR
STARTCHAR uni0217
ENCODING 535
SWIDTH 505 0
DWIDTH 10 0
BBX 11 14 0 0
BITMAP
01BE00
0B9780
090280
000000
2F0BC0
3F0FC0
7E1F80
7D1F40
BD2F40
BC3F00
FC3E08
F8BE24
FFBFE0
7E1F80
ENDCHAR
STARTCHAR Scommaaccent
ENCODING 536
SWIDTH 570 0
DWIDTH 11 0
BBX 11 20 0 -5
BITMAP
002FE0
01F978
02F03C
03F07C
02F464
01FD00
00BF00
002FC0
010FE0
1FC7F0
3E03F4
7C02F0
7C03E0
2E5FC0
06F900
000000
02D000
01D000
018000
010000
ENDCHAR
STARTCHAR scommaaccent
ENCODING 537
SWIDTH 382 0
DWIDTH 8 0
BBX 9 16 -1 -5
BITMAP
001400
01FC00
02FC00
02FC00
05FC00
0CBC00
28BD00
78BD40
A4BE40
65F900
2FD000
000000
0B0000
0B0000
060000
040000
ENDCHAR
STARTCHAR uni021A
ENCODING 538
SWIDTH 481 0
DWIDTH 10 0
BBX 15 20 0 -5
BITMAP
01BFA414
1E5FFFF0
381FEFD0
B41F8000
B02F4000
F03F0000
B03F0000
107E0000
00BD0000
00BD0000
00FC0000
00F80000
01F80000
02F40000
02F00000
00000000
02D00000
01D00000
01800000
01000000
ENDCHAR
STARTCHAR uni021B
ENCODING 539
SWIDTH 267 0
DWIDTH 5 0
BBX 6 18 0 -5
BITMAP
0B80
1F80
2F40
7FD0
3F40
3E00
7E00
BD00
BC00
FC10
F860
FFC0
7E00
0000
B000
B000
6000
4000
ENDCHAR
STARTCHAR uni021E
ENCODING 542
SWIDTH 665 0
DWIDTH 13 0
BBX 14 20 0 0
BITMAP
00004010
000066D0
00003E00
00002800
00000000
006F03E0
07BE07E0
2D7E0BD0
78BD0BC0
B4BC0FC0
B0FC1F80
75FFFF80
01F96F40
02F42F00
03F03F00
03E07E00
07E07D00
07D0BD00
0BD0FC00
0FC0F800
ENDCHAR
STARTCHAR uni021F
ENCODING 543
SWIDTH 600 0
DWIDTH 12 0
BBX 12 19 -1 0
BITMAP
000101
00036D
0002F4
000180
000000
01A000
03E000
07E000
07D000
0BEF80
0FDBD0
0F87E0
1F47D0
2F4BD0
2F0BC0
3E0FC1
7E0F86
7D0FD8
BD07E0
ENDCHAR
STARTCHAR uni0237
ENCODING 567
SWIDTH 240 0
DWIDTH 5 0
BBX 10 15 -4 -5
BITMAP
002F00
003F00
003E00
007E00
00BD00
00BC00
00FC10
01F890
01F980
02FA00
0BF000
7BE000
D7E000
DBC000
7E4000
ENDCHAR
STARTCHAR uni0259
ENCODING 601
SWIDTH 404 0
DWIDTH 8 0
BBX 8 10 0 0
BITMAP
1BE4
35BD
007E
007E
07FE
2DBD
B4FC
E1F4
E7E0
7E40
ENDCHAR
STARTCHAR uni0292
ENCODING 658
SWIDTH 442 0
DWIDTH 9 0
BBX 10 15 0 -5
BITMAP
1FFE00
79BD00
74F800
02F000
07D000
0FC000
1F8010
07D090
03E180
03FA00
07F400
3BF000
97E000
DBC000
7E4000
ENDCHAR
STARTCHAR uni02BB
ENCODING 699
SWIDTH 241 0
DWIDTH 5 0
BBX 3 5 2 10
BITMAP
04
24
78
7C
78
ENDCHAR
STARTCHAR uni02BC
ENCODING 700
SWIDTH 228 0
DWIDTH 5 0
BBX 3 4 3 11
BITMAP
B4
F4
70
90
ENDCHAR
STARTCHAR circumflex
ENCODING 710
SWIDTH 293 0
DWIDTH 6 0
BBX 6 4 0 11
BITMAP
0040
03C0
1ED0
6460
ENDCHAR
STARTCHAR caron
ENCODING 711
SWIDTH 294 0
DWIDTH 6 0
BBX 6 4 2 11
BITMAP
4050
9680
7D00
3400
ENDCHAR
STARTCHAR uni02C9
ENCODING 713
SWIDTH 421 0
DWIDTH 8 0
BBX 7 2 2 11
BITMAP
7FFC
1550
ENDCHAR
STARTCHAR uni02CA
ENCODING 714
SWIDTH 256 0
DWIDTH 5 0
BBX 4 4 2 11
BITMAP
05
1D
38
60
ENDCHAR
STARTCHAR uni02CB
ENCODING 715
SWIDTH 274 0
DWIDTH 5 0
BBX 3 4 3 11
BITMAP
B4
74
38
18
ENDCHAR
STARTCHAR breve
ENCODING 728
SWIDTH 431 0
DWIDTH 9 0
BBX 8 3 1 11
BITMAP
5005
786D
2FE4
ENDCHAR
STARTCHAR dotaccent
ENCODING 729
SWIDTH 250 0
DWIDTH 5 0
BBX 4 3 1 12
BITMAP
78
BD
78
ENDCHAR
STARTCHAR ring
ENCODING 730
SWIDTH 156 0
DWIDTH 3 0
BBX 3 3 0 11
BITMAP
78
DC
B8
ENDCHAR
STARTCHAR ogonek
ENCODING 731
SWIDTH 291 0
DWIDTH 6 0
BBX 5 6 1 -5
BITMAP
0400
7000
E000
E140
BE00
1000
ENDCHAR
STARTCHAR tilde
ENCODING 732
SWIDTH 403 0
DWIDTH 8 0
BBX 8 2 1 11
BITMAP
2FA9
ABF4
ENDCHAR
STARTCHAR hungarumlaut
ENCODING 733
SWIDTH 436 0
DWIDTH 9 0
BBX 7 4 2 11
BITMAP
2D78
38E0
B1D0
D240
ENDCHAR
STARTCHAR gravecomb
ENCODING 768
SWIDTH 0 0
DWIDTH 0 0
BBX 3 4 -4 11
BITMAP
78
38
2C
0C
ENDCHAR
STARTCHAR acutecomb
ENCODING 769
SWIDTH 0 0
DWIDTH 0 0
BBX 4 4 -4 11
BITMAP
09
2D
34
A0
ENDCHAR
STARTCHAR uni0302
ENCODING 770
SWIDTH 0 0
DWIDTH 0 0
BBX 5 4 -5 11
BITMAP
0100
0B40
2E80
9080
ENDCHAR
STARTCHAR tildecomb
ENCODING 771
SWIDTH 0 0
DWIDTH 0 0
BBX 8 2 -7 11
BITMAP
2FA9
ABF4
ENDCHAR
STARTCHAR uni0304
ENCODING 772
SWIDTH 0 0
DWIDTH 0 0
BBX 7 2 -6 11
BITMAP
BFF8
5550
ENDCHAR
STARTCHAR uni0306
ENCODING 774
SWIDTH 0 0
DWIDTH 0 0
BBX 8 3 -7 11
BITMAP
1405
782E
1FF4
ENDCHAR
STARTCHAR uni0307
ENCODING 775
SWIDTH 0 0
DWIDTH 0 0
BBX 4 3 -3 12
BITMAP
2D
7E
2D
ENDCHAR
STARTCHAR uni0308
ENCODING 776
SWIDTH 0 0
DWIDTH 0 0
BBX 7 2 -6 11
BITMAP
78B4
78B4
ENDCHAR
STARTCHAR hookabovecomb
ENCODING 777
SWIDTH 0 0
DWIDTH 0 0
BBX 5 4 -5 11
BITMAP
7E00
1740
0300
2800
ENDCHAR
STARTCHAR uni030A
ENCODING 778
SWIDTH 0 0
DWIDTH 0 0
BBX 4 3 -3 11
BITMAP
2D
6A
7D
ENDCHAR
STARTCHAR uni030B
ENCODING 779
SWIDTH 0 0
DWIDTH 0 0
BBX 7 4 -6 11
BITMAP
1E78
38B0
74D0
9280
ENDCHAR
STARTCHAR uni030C
ENCODING 780
SWIDTH 0 0
DWIDTH 0 0
BBX 6 4 -5 11
BITMAP
4010
6680
3E00
2400
ENDCHAR
STARTCHAR uni030F
ENCODING 783
SWIDTH 0 0
DWIDTH 0 0
BBX 7 4 -7 11
BITMAP
79E0
2CB4
0D28
070C
ENDCHAR
STARTCHAR uni0311
ENCODING 785
SWIDTH 0 0
DWIDTH 0 0
BBX 8 3 -7 11
BITMAP
1BE4
797C
A019
ENDCHAR
STARTCHAR uni031B
ENCODING 795
SWIDTH 0 0
DWIDTH 0 0
BBX 4 5 -3 8
BITMAP
1D
1D
1C
74
10
ENDCHAR
STARTCHAR dotbelowcomb
ENCODING 803
SWIDTH 0 0
DWIDTH 0 0
BBX 4 3 -4 -5
BITMAP
7C
BD
7C
ENDCHAR
STARTCHAR uni0324
ENCODING 804
SWIDTH 0 0
DWIDTH 0 0
BBX 6 2 -9 -4
BITMAP
B8F0
74B0
ENDCHAR
STARTCHAR uni0326
ENCODING 806
SWIDTH 0 0
DWIDTH 0 0
BBX 3 4 -5 -5
BITMAP
B4
B4
60
40
ENDCHAR
STARTCHAR uni0327
ENCODING 807
SWIDTH 0 0
DWIDTH 0 0
BBX 5 5 -7 -4
BITMAP
1400
2000
3F00
4B40
BE00
ENDCHAR
STARTCHAR uni0328
ENCODING 808
SWIDTH 0 0
DWIDTH 0 0
BBX 5 6 -7 -5
BITMAP
0400
6000
E000
E140
BE00
1000
ENDCHAR
STARTCHAR uni032E
ENCODING 814
SWIDTH 0 0
DWIDTH 0 0
BBX 7 3 -9 -4
BITMAP
6024
79B4
2F90
ENDCHAR
STARTCHAR uni0331
ENCODING 817
SWIDTH 0 0
DWIDTH 0 0
BBX 7 2 -9 -4
BITMAP
FFF4
5550
ENDCHAR
STARTCHAR uni0335
ENCODING 821
SWIDTH 0 0
DWIDTH 0 0
BBX 7 2 -8 4
BITMAP
BFFC
1554
ENDCHAR
STARTCHAR uni0394
ENCODING 916
SWIDTH 619 0
DWIDTH 12 0
BBX 13 15 0 0
BITMAP
0001F400
0002F400
0007F800
000E7800
002D7800
00383C00
00B03C00
01E02D00
03C02D00
07402E00
0E001E00
2D001F00
78000F00
BAAAAF40
BFFFFF40
ENDCHAR
STARTCHAR uni03A9
ENCODING 937
SWIDTH 745 0
DWIDTH 15 0
BBX 14 15 0 0
BITMAP
0006FE00
002FAFC0
00B802E0
02D000F0
078000F0
0B4000B0
0F0000F0
0E0000E0
1E0001D0
0E0002C0
0E000740
07400D00
02807400
2AE0EA80
7FD1FF80
ENDCHAR
STARTCHAR uni03BC
ENCODING 956
SWIDTH 505 0
DWIDTH 10 0
BBX 13 13 -2 -3
BITMAP
02F0BC00
03F0FC00
07E1F800
07D1F400
0BD2F400
0BC3F000
0FC3E040
1F8BE140
1FFBFE00
2FE1F800
3F000000
3E000000
7D000000
ENDCHAR
STARTCHAR pi
ENCODING 960
SWIDTH 530 0
DWIDTH 11 0
BBX 11 10 0 0
BITMAP
FFFFF8
AEABA4
1C0B00
2C0B00
380E00
340D00
741D00
B02C00
A02C00
E01E00
ENDCHAR
STARTCHAR uni0400
ENCODING 1024
SWIDTH 459 0
DWIDTH 9 0
BBX 10 20 0 0
BITMAP
002D00
000E00
000A00
000700
000000
006F80
01F5E0
03E0A0
07D0E0
07D040
03E000
02F800
0BD000
2F8000
7F0000
BE0000
BE0010
BF4180
7FFE00
1BE400
ENDCHAR
STARTCHAR uni0401
ENCODING 1025
SWIDTH 459 0
DWIDTH 9 0
BBX 11 18 0 0
BITMAP
007CB8
003874
000000
006F80
01F5E0
03E0A0
07D0E0
07D040
03E000
02F800
0BD000
2F8000
7F0000
BE0000
BE0010
BF4180
7FFE00
1BE400
ENDCHAR
STARTCHAR uni0402
ENCODING 1026
SWIDTH 725 0
DWIDTH 15 0
BBX 15 19 0 -4
BITMAP
01BFFFF4
1F5FEFE0
381F8000
741F8000
B02F4000
B02F0000
643FBE40
007F5F80
007D0BC0
00BD0BC0
00BC0FC0
00FC0F80
01F81F40
01F42F00
02F43E00
00007D00
0001F800
002FF000
001F8000
ENDCHAR
STARTCHAR uni0403
ENCODING 1027
SWIDTH 400 0
DWIDTH 8 0
BBX 13 20 0 0
BITMAP
00000500
00001E00
00002800
00007000
00000000
01BFFF80
1FBFFF00
3C7E0000
B8BD0000
B4BC0000
B4FC0000
65F80000
01F40000
02F40000
02F00000
03F00000
07E00000
07D00000
0BD00000
0FC00000
ENDCHAR
STARTCHAR uni0404
ENCODING 1028
SWIDTH 497 0
DWIDTH 10 0
BBX 11 15 0 0
BITMAP
006FD0
01F974
07F038
0FD078
1F8060
2F4000
3FFF00
7F5400
7F0000
BE0000
BE0000
BF0014
7F40A0
2FFF80
0BF900
ENDCHAR
STARTCHAR uni0405
ENCODING 1029
SWIDTH 570 0
DWIDTH 11 0
BBX 11 15 0 0
BITMAP
002FE0
01F978
02F03C
03F07C
02F464
01FD00
00BF00
002FC0
010FE0
1FC7F0
3E03F4
7C02F0
7C03E0
2E5FC0
06F900
ENDCHAR
STARTCHAR uni0406
ENCODING 1030
SWIDTH 374 0
DWIDTH 7 0
BBX 8 15 0 0
BITMAP
006F
07BE
1D7E
78BD
B4BC
B0FC
71F8
01F4
02F4
02F0
03F0
07E0
07D0
0BD0
0FC0
ENDCHAR
STARTCHAR uni0407
ENCODING 1031
SWIDTH 375 0
DWIDTH 8 0
BBX 10 18 0 0
BITMAP
00F1E0
00B1E0
000000
006E00
07BE00
2D7D00
78BD00
B0FC00
B0F800
71F800
02F400
02F000
03F000
03E000
07E000
0BD000
0BC000
0FC000
ENDCHAR
STARTCHAR uni0408
ENCODING 1032
SWIDTH 536 0
DWIDTH 11 0
BBX 12 19 0 -4
BITMAP
0001BD
000BFD
0038BC
00B0F8
00E1F8
01E1F4
00A2F4
0003F0
0003E0
0007E0
000BD0
000BC0
000FC0
001F80
2F9F40
746F40
B03E00
74BD00
2FE400
ENDCHAR
STARTCHAR uni0409
ENCODING 1033
SWIDTH 817 0
DWIDTH 16 0
BBX 17 17 -1 -2
BITMAP
00006F4000
0001FF4000
00076F0000
001D3F0000
00387E0000
00B07D0000
01E0BEF900
03C0FD7F00
0780F81F40
0F41F81F80
1F02F41F80
2E02F01F40
3D03F43F00
7C03EBFD00
BC07E7E400
B800000000
2C00000000
ENDCHAR
STARTCHAR uni040A
ENCODING 1034
SWIDTH 931 0
DWIDTH 19 0
BBX 18 15 0 0
BITMAP
006F03E000
07BE07E000
2D7E0BD000
78BD0BC000
B4BC0FC000
B0FC1F8000
65FFFFFF40
01F96F5BD0
02F43F03E0
02F03F03F0
03E07E03E0
07E07D07E0
07D0BD0BD0
0BD0FDFF80
0FC0F8BD00
ENDCHAR
STARTCHAR uni040B
ENCODING 1035
SWIDTH 745 0
DWIDTH 15 0
BBX 15 15 0 0
BITMAP
01BFFFF4
1F5FEFE0
381F8000
741F8000
B02F4000
B02F0000
643FBE40
007F5F80
007D0BC0
00BD0BC0
00BC0FC0
00FC1F80
01F81F40
01F42F40
02F41F80
ENDCHAR
STARTCHAR uni040C
ENCODING 1036
SWIDTH 635 0
DWIDTH 13 0
BBX 14 20 0 0
BITMAP
00000600
00001E00
00002800
00007000
00000000
006F07D0
07BE2FE0
2D7EB590
78BDD000
B4BE8000
B0FF0000
21FFE400
01F4FC00
02F4BC00
02F0BC00
03E0F800
07E1F400
07D2F400
0BD2F000
0FC1F400
ENDCHAR
STARTCHAR uni040D
ENCODING 1037
SWIDTH 705 0
DWIDTH 14 0
BBX 15 20 0 0
BITMAP
0000F000
00007400
00003400
00002800
00000000
006F01F8
07BE03F4
1D7E0BF0
78BD1FF0
B4BC2FE0
B0FC7BE0
71F8EBD0
01F5DBC0
02F78FC0
02FB1F80
03FD1F40
07FC2F40
07F43F00
0BE03E00
0FD07E00
ENDCHAR
STARTCHAR uni040E
ENCODING 1038
SWIDTH 644 0
DWIDTH 13 0
BBX 14 19 0 0
BITMAP
0001D020
0002E1D0
0001FE40
00000000
006F0070
07BF40A0
1D2F80D0
781FC280
B40FC340
B00BD700
740BEA00
0007FC00
0003F800
0002F400
0001F000
0001D000
0065C000
00FF4000
007D0000
ENDCHAR
STARTCHAR uni040F
ENCODING 1039
SWIDTH 665 0
DWIDTH 13 0
BBX 14 22 0 -7
BITMAP
006F03E0
07BE07E0
1D7E0BD0
78BD0BC0
B4BC0FC0
B0FC1F80
71F81F80
01F42F40
02F42F00
02F03F00
03F07E00
07E07D00
07D0BD00
0BE5FC00
0FFFF800
00140000
00B40000
00BC0000
007D0000
002E0000
001C0000
00100000
ENDCHAR
STARTCHAR uni0410
ENCODING 1040
SWIDTH 668 0
DWIDTH 13 0
BBX 14 17 0 -2
BITMAP
00000BE0
00003FE0
0000EBD0
00038BC0
000B0FC0
001E0F80
1BFE5F80
79B9BF40
B4F02F00
52E03F00
03D07E00
07C07D00
0B80BD00
0F40FC00
1F40F800
1F000000
0B400000
ENDCHAR
STARTCHAR uni0411
ENCODING 1041
SWIDTH 638 0
DWIDTH 13 0
BBX 13 15 0 0
BITMAP
01BFFF80
1EBFFF40
38BD0000
B4FC0000
B0F80000
B1F80000
62FBE400
02F5BD00
03F03E00
03E03E00
07E03E00
0BD07D00
0BD0BC00
0FDFF400
1F8B9000
ENDCHAR
STARTCHAR uni0412
ENCODING 1042
SWIDTH 641 0
DWIDTH 13 0
BBX 12 15 0 0
BITMAP
006FE4
07D57D
1E691E
78BD1E
B4BC2D
B0FCB4
70FFF8
01F9BE
02F43F
02F02F
03E02F
07E03E
07D47D
0BDFF8
0FCBE0
ENDCHAR
STARTCHAR uni0413
ENCODING 1043
SWIDTH 400 0
DWIDTH 8 0
BBX 13 15 0 0
BITMAP
01BFFF80
1FBFFF00
3C7E0000
B8BD0000
B4BC0000
B4FC0000
65F80000
01F40000
02F40000
02F00000
03F00000
07E00000
07D00000
0BD00000
0FC00000
ENDCHAR
STARTCHAR uni0414
ENCODING 1044
SWIDTH 669 0
DWIDTH 13 0
BBX 14 15 -1 0
BITMAP
001BF900
01E55F80
0B5A47D0
1E2F43E0
2D2F42F0
2C3F02F0
087E02F0
00BE03F0
00BD03E0
00FC07D0
1FFC0BC0
76F80F80
62F42F00
67F9BD00
2F96E400
ENDCHAR
STARTCHAR uni0415
ENCODING 1045
SWIDTH 459 0
DWIDTH 9 0
BBX 10 15 0 0
BITMAP
006F80
01F5E0
03E0A0
07D0E0
07D040
03E000
02F800
0BD000
2F8000
7F0000
BE0000
BE0010
BF4180
7FFE00
1BE400
ENDCHAR
STARTCHAR uni0416
ENCODING 1046
SWIDTH 777 0
DWIDTH 16 0
BBX 18 15 -1 0
BITMAP
02F41A07D0
03F83E2FE0
029C7E7A80
000DBDA000
000DBDD000
0009FE8000
000AFB4000
01BFFFF400
07E6F5FC00
0BC2F0BC00
0F83F0F800
0F87E1F400
1F47D2F400
2F0BC2F000
7D0FC1F400
ENDCHAR
STARTCHAR uni0417
ENCODING 1047
SWIDTH 525 0
DWIDTH 11 0
BBX 10 15 0 0
BITMAP
00BF40
065BD0
0803E0
0407E0
000BD0
002F80
02FD00
016F80
000FD0
000BD0
100FD0
F40FC0
F02F80
F5BE00
2FE400
ENDCHAR
STARTCHAR uni0418
ENCODING 1048
SWIDTH 705 0
DWIDTH 14 0
BBX 15 15 0 0
BITMAP
006F01F8
07BE03F4
1D7E0BF0
78BD1FF0
B4BC2FE0
B0FC7BE0
71F8EBD0
01F5DBC0
02F78FC0
02FB1F80
03FD1F40
07FC2F40
07F43F00
0BE03E00
0FD07E00
ENDCHAR
STARTCHAR uni0419
ENCODING 1049
SWIDTH 705 0
DWIDTH 14 0
BBX 15 19 0 0
BITMAP
00029050
0003D6C0
0001FE00
00000000
006F01F8
07BE03F4
1D7E0BF0
78BD1FF0
B4BC2FE0
B0FC7BE0
71F8EBD0
01F5DBC0
02F78FC0
02FB1F80
03FD1F40
07FC2F40
07F43F00
0BE03E00
0FD07E00
ENDCHAR
STARTCHAR uni041A
ENCODING 1050
SWIDTH 635 0
DWIDTH 13 0
BBX 14 15 0 0
BITMAP
006F07D0
07BE2FE0
2D7EB590
78BDD000
B4BE8000
B0FF0000
21FFE400
01F4FC00
02F4BC00
02F0BC00
03E0F800
07E1F400
07D2F400
0BD2F000
0FC1F400
ENDCHAR
STARTCHAR uni041B
ENCODING 1051
SWIDTH 549 0
DWIDTH 11 0
BBX 13 17 -1 -2
BITMAP
00006F40
0001FF40
00076F00
001D3F00
00387E00
00B07D00
01E0BD00
03C0FC00
0780F800
0F41F800
1F02F400
2E02F400
3D03F000
7C03E000
BC07E000
B8000000
2C000000
ENDCHAR
STARTCHAR uni041C
ENCODING 1052
SWIDTH 787 0
DWIDTH 16 0
BBX 15 15 1 0
BITMAP
00AF40FC
07AF41FC
1D3F02F8
387F07F8
74BF0BF4
B5FF0FF4
26EF1FF4
03AF3BF0
077F77F0
0B3FB3E0
0E3FD7E0
1D3FC7D0
2C3F8BD0
343F4BD0
703E0FC0
ENDCHAR
STARTCHAR uni041D
ENCODING 1053
SWIDTH 665 0
DWIDTH 13 0
BBX 14 15 0 0
BITMAP
006F03E0
07BE07E0
2D7E0BD0
78BD0BC0
B4BC0FC0
B0FC1F80
75FFFF80
01F96F40
02F42F00
03F03F00
03E07E00
07E07D00
07D0BD00
0BD0FC00
0FC0F800
ENDCHAR
STARTCHAR uni041E
ENCODING 1054
SWIDTH 665 0
DWIDTH 13 0
BBX 13 15 0 0
BITMAP
006BF800
02E56F00
1F5B4F80
3C7D0BC0
B4F80BC0
B6F40BC0
77F00BC0
07E00FC0
0BD00F80
0BD02F40
0BD03F00
0BC07D00
0BD1F800
07FBE000
01BE4000
ENDCHAR
STARTCHAR uni041F
ENCODING 1055
SWIDTH 688 0
DWIDTH 14 0
BBX 16 15 0 0
BITMAP
01BFE505
0BFFFFFE
3E7E6FF8
787D0BD0
B4BD0FC0
B0FC0F80
70F81F80
11F82F40
02F42F00
02F03F00
03F07E00
07E07D00
07D0BD00
0BD0FC00
0FC0F800
ENDCHAR
STARTCHAR uni0420
ENCODING 1056
SWIDTH 573 0
DWIDTH 11 0
BBX 12 15 0 0
BITMAP
006FE0
0795BC
2D692E
78BD1E
B4BC1E
F0FC2E
B1F83C
01F4B4
02FBD0
03F500
03E000
07E000
0BD000
0BC000
0FC000
ENDCHAR
STARTCHAR uni0421
ENCODING 1057
SWIDTH 497 0
DWIDTH 10 0
BBX 11 15 0 0
BITMAP
006FD0
01F974
07F038
0FD078
1FC060
2F4000
3F4000
7F0000
7E0000
BE0000
BE0000
BF0014
7F40A0
2FFF80
0BF900
ENDCHAR
STARTCHAR uni0422
ENCODING 1058
SWIDTH 481 0
DWIDTH 10 0
BBX 15 15 0 0
BITMAP
01BFA414
1E5FFFF0
381FEFD0
B41F8000
B02F4000
F03F0000
B03F0000
107E0000
00BD0000
00BD0000
00FC0000
00F80000
01F80000
02F40000
02F00000
ENDCHAR
STARTCHAR uni0423
ENCODING 1059
SWIDTH 644 0
DWIDTH 13 0
BBX 14 15 0 0
BITMAP
006F0070
07BF40A0
1D2F80D0
781FC280
B40FC340
B00BD700
740BEA00
0007FC00
0003F800
0002F400
0001F000
0001D000
0065C000
00FF4000
007D0000
ENDCHAR
STARTCHAR uni0424
ENCODING 1060
SWIDTH 786 0
DWIDTH 16 0
BBX 15 16 0 0
BITMAP
00AFF800
07E5F800
0B41F800
0241F400
006BFE40
0693F2E0
1F07E0F8
3D07D0BC
7D0BD0BC
BC0FC0BC
BD0F80F8
7E1F82F0
2F6F5BD0
0BFFFE00
003F4000
003E0000
ENDCHAR
STARTCHAR uni0425
ENCODING 1061
SWIDTH 620 0
DWIDTH 12 0
BBX 13 15 0 0
BITMAP
006F0340
07BF4A00
2D2F5C00
782FA800
B01FF000
B01FD000
700FD000
000BD000
000BE000
001FF000
002BF000
0073F400
00D2F800
0181F800
0341FC00
ENDCHAR
STARTCHAR uni0426
ENCODING 1062
SWIDTH 692 0
DWIDTH 14 0
BBX 14 19 0 -4
BITMAP
006F03E0
07BE07E0
2D7E0BD0
78BD0BC0
B4BC0FC0
B0FC1F80
71F81F40
01F42F40
02F42F00
02F03F00
03F07E00
07E07D00
07D0BD00
0BE4FC00
0FFFF800
001BF900
0001FFF0
00002FE0
00000540
ENDCHAR
STARTCHAR uni0427
ENCODING 1063
SWIDTH 695 0
DWIDTH 14 0
BBX 15 15 0 0
BITMAP
006F02F4
07FE02F0
1E7E03F0
78BD03E0
B4BC07E0
B4FC0BD0
B0FC0BC0
10BD1FC0
002FAF80
00001F40
00002F40
00003F00
00003E00
00007E00
00007D00
ENDCHAR
STARTCHAR uni0428
ENCODING 1064
SWIDTH 906 0
DWIDTH 18 0
BBX 19 15 0 0
BITMAP
006F0BD1F8
07BE0FC2F4
1D7E0F82F4
78BD1F83F0
B4BC2F43E0
B0FC2F07E0
71F83F0BD0
01F47E0BC0
02F47D0FC0
02F0BD1F80
03F0FC1F40
07E0FC2F40
07D1F83F00
0BE6F97F00
0FFFFFFE00
ENDCHAR
STARTCHAR uni0429
ENCODING 1065
SWIDTH 934 0
DWIDTH 19 0
BBX 19 19 0 -4
BITMAP
006F0BD1F8
07BE0FC2F4
1D7E0F82F4
78BD1F83F0
B4BC2F43E0
B0FC2F07E0
75F83F0BD0
01F47E0BC0
02F47D0FC0
02F0BD1F80
03F0FC1F40
07E0FC2F40
07D1F83F00
0BE6F43F00
0FFFF97E00
0016FFFE00
00001BFFFC
0000006FF4
0000000150
ENDCHAR
STARTCHAR uni042A
ENCODING 1066
SWIDTH 714 0
DWIDTH 14 0
BBX 14 15 0 0
BITMAP
01BFD000
0A5BD000
280FC000
741F8000
B01F8000
B42F4000
782FBE40
003F5FC0
007E07D0
007D07E0
00BD07D0
00BC0BD0
00FD0FC0
01FAFF40
01F5F900
ENDCHAR
STARTCHAR uni042B
ENCODING 1067
SWIDTH 909 0
DWIDTH 18 0
BBX 19 15 0 0
BITMAP
006F0001F8
07BE0001F4
2D7E0002F4
78BD0003F0
B4BC0003E0
B0FC0007E0
65FEF80BD0
01F9BE0BD0
02F43F0FC0
02F02F0F80
03E02F1F80
07E03E2F40
07D4BD2F00
0BDFF83F00
0FCBE07E00
ENDCHAR
STARTCHAR uni042C
ENCODING 1068
SWIDTH 640 0
DWIDTH 13 0
BBX 12 15 0 0
BITMAP
006F00
07BE00
2D7E00
78BD00
B4BC00
B0FC00
65FEF8
01F9BE
02F43F
02F02F
03E02F
07E03E
07D4BD
0BDFF8
0FCBE0
ENDCHAR
STARTCHAR uni042D
ENCODING 1069
SWIDTH 544 0
DWIDTH 11 0
BBX 12 15 -1 0
BITMAP
006FE0
0196FC
0600FD
0400BE
0000BE
0000BE
00FFFE
0055FD
0000FC
0001F8
1402F4
3C07F0
780FD0
382F40
0BF800
ENDCHAR
STARTCHAR uni042E
ENCODING 1070
SWIDTH 946 0
DWIDTH 19 0
BBX 19 15 0 0
BITMAP
006F01BE40
07BE0657E0
2D7E02E1F4
78BD0BC0F8
B4BC1F40F8
B0FC7F00F8
75FFFE00F8
01F9FD01F4
02F4FC02F4
02F0FC03F0
03E1F807D0
07E1F80BC0
07D0FC1F40
0BD0BEBD00
0FC02FE000
ENDCHAR
STARTCHAR uni042F
ENCODING 1071
SWIDTH 630 0
DWIDTH 13 0
BBX 15 15 -1 0
BITMAP
0006FE80
007E55F4
00F46E78
02E0BD38
02D0FC24
02E0FC00
00F5F800
01BFF400
07E6F400
0BC3F000
0F83E000
0F47E000
1F4BD000
2F0BC000
7D0FC000
ENDCHAR
STARTCHAR uni0430
ENCODING 1072
SWIDTH 526 0
DWIDTH 11 0
BBX 12 10 -1 0
BITMAP
01BEF4
07E7F4
0FC2F0
2F43F0
3F07E0
3E07D0
7E0BD1
7E1FC2
3FFBFD
1B92E4
ENDCHAR
STARTCHAR uni0431
ENCODING 1073
SWIDTH 430 0
DWIDTH 9 0
BBX 12 15 -1 0
BITMAP
000003
007FFE
00FFFD
00BFE4
002C00
000A00
01BF40
07E780
1F8380
2F4380
3F0780
7E0740
3E0A00
3F6C00
0BE000
ENDCHAR
STARTCHAR uni0432
ENCODING 1074
SWIDTH 449 0
DWIDTH 9 0
BBX 12 15 -1 0
BITMAP
002F40
00B9C0
01F1C0
03E1C0
07D280
0FC340
1F8701
2F6E5A
2F2FD0
3F0380
7E0380
7E0780
3E0700
2F5D00
0BE400
ENDCHAR
STARTCHAR uni0433
ENCODING 1075
SWIDTH 375 0
DWIDTH 8 0
BBX 9 10 -1 0
BITMAP
02F800
09BE00
247E00
10BE00
07FC00
1FE000
3F4040
7E0140
7F5900
1FE400
ENDCHAR
STARTCHAR uni0434
ENCODING 1076
SWIDTH 507 0
DWIDTH 10 0
BBX 12 15 -1 -5
BITMAP
01BEF4
07E7F4
0FC2F0
2F43F0
3F07E0
3E07D0
7E0BD2
7F1FC6
3FFF98
1BAFE0
00BF40
03AF00
0A3F00
0ABD00
02F400
ENDCHAR
STARTCHAR uni0435
ENCODING 1077
SWIDTH 384 0
DWIDTH 8 0
BBX 9 10 -1 0
BITMAP
01BE00
07E740
0F8740
2F4B00
3F6D00
3FE400
7E0000
7E0180
3F5600
1BE400
ENDCHAR
STARTCHAR uni0436
ENCODING 1078
SWIDTH 882 0
DWIDTH 18 0
BBX 20 10 -1 0
BITMAP
07E03E07E0
19BC3E2E74
207C7D7C70
007DBDB800
007FFFF400
007DF9F400
60B8F9F405
B0F1F4F408
B6D2F0F960
2F42F02F80
ENDCHAR
STARTCHAR uni0437
ENCODING 1079
SWIDTH 498 0
DWIDTH 10 0
BBX 11 15 0 -5
BITMAP
02F900
097F00
242F40
202F40
502F40
803E00
40BC04
0BF014
01F420
00FE90
01FD00
0AFC00
24F800
2AF400
1F9000
ENDCHAR
STARTCHAR uni0438
ENCODING 1080
SWIDTH 505 0
DWIDTH 10 0
BBX 11 10 0 0
BITMAP
2F0BC0
3F0FC0
7E1F80
7D1F40
BD2F40
BC3F00
FC3E08
F8BE24
FFBFE0
7E1F80
ENDCHAR
STARTCHAR uni0439
ENCODING 1081
SWIDTH 505 0
DWIDTH 10 0
BBX 11 14 0 0
BITMAP
068080
07C640
02FD00
000000
2F0BC0
3F0FC0
7E1F80
7D1F40
BD2F40
BC3F00
FC3E08
F8BE24
FFBFE0
7E1F80
ENDCHAR
STARTCHAR uni043A
ENCODING 1082
SWIDTH 501 0
DWIDTH 10 0
BBX 12 10 -1 0
BITMAP
0BC1B4
0FC6B4
0F9C00
1FB900
2FFF80
2F4F80
3F0F81
7E0F89
7D0FF8
BD07E0
ENDCHAR
STARTCHAR uni043B
ENCODING 1083
SWIDTH 558 0
DWIDTH 11 0
BBX 13 10 -1 0
BITMAP
0007FC00
001DFC00
0024F800
0031F400
0061F400
0092F000
6093E080
B4C3E240
B283FE00
2E01F800
ENDCHAR
STARTCHAR uni043C
ENCODING 1084
SWIDTH 827 0
DWIDTH 17 0
BBX 18 10 -1 0
BITMAP
0007D03F40
001FD07F40
0037D0FF00
0033D1FF00
0063D3BE00
0093D77D00
6493EDBD10
B4C3FCBD60
B282F4BFD0
2E02F02E40
ENDCHAR
STARTCHAR uni043D
ENCODING 1085
SWIDTH 507 0
DWIDTH 10 0
BBX 12 10 -1 0
BITMAP
0BC2F0
0FC2F0
1F83E0
1F47E0
2FFFD0
2F5BC0
3F0FC1
7E0F86
7D0FD8
BD07E0
ENDCHAR
STARTCHAR uni043E
ENCODING 1086
SWIDTH 439 0
DWIDTH 9 0
BBX 12 10 -1 0
BITMAP
01BE00
07E740
0FC382
1F47E9
3F0380
3F0740
7E0700
7E0E00
3F6C00
1BE000
ENDCHAR
STARTCHAR uni043F
ENCODING 1087
SWIDTH 505 0
DWIDTH 10 0
BBX 12 10 -1 0
BITMAP
0BEF80
0FDBD0
1F87E0
1F47D0
2F4BD0
2F0BC0
3E0FC1
7E0F86
7D0FD8
BD07E0
ENDCHAR
STARTCHAR uni0440
ENCODING 1088
SWIDTH 468 0
DWIDTH 9 0
BBX 11 16 -2 -5
BITMAP
01A400
02FBE0
03F5F8
03E0F8
07D0F8
0BD0F8
0BC1F8
0FC2F4
1F87E0
1FEFD0
2FBE40
3F0000
3E0000
7E0000
BD0000
A40000
ENDCHAR
STARTCHAR uni0441
ENCODING 1089
SWIDTH 384 0
DWIDTH 8 0
BBX 9 10 -1 0
BITMAP
01BE00
07E740
0FC740
1F4100
3F0000
3F0000
7E0000
7E0080
3F5600
1BE400
ENDCHAR
STARTCHAR uni0442
ENCODING 1090
SWIDTH 752 0
DWIDTH 15 0
BBX 17 10 -1 0
BITMAP
0BEF9BE000
0FDBF6F400
1F87E1F400
1F4BD1F400
2F4BC2F400
2F0FC3F000
3E0F83E040
7E1F87E180
7D2F43E600
BD2F01F800
ENDCHAR
STARTCHAR uni0443
ENCODING 1091
SWIDTH 486 0
DWIDTH 10 0
BBX 11 15 0 -5
BITMAP
2F0BC0
3F0FC0
7E1F80
7D1F40
BD2F40
BC3F00
FC3E14
F8BE20
FFFD90
7EBF40
06FC00
19F800
31F400
3BF000
1F8000
ENDCHAR
STARTCHAR uni0444
ENCODING 1092
SWIDTH 738 0
DWIDTH 15 0
BBX 15 19 -1 -5
BITMAP
00006800
0000BC00
0000F800
0000F400
01BEFAE0
07E7F9F8
0F83E0BC
2F43E0BC
3F07D0FC
3E0BC1F8
7E0BC2F4
7F1F87F0
3FFFFFD0
1BAFBE40
002F0000
002F0000
003E0000
007D0000
00640000
ENDCHAR
STARTCHAR uni0445
ENCODING 1093
SWIDTH 522 0
DWIDTH 10 0
BBX 11 11 0 0
BITMAP
0001E0
02E1F0
09F870
24BCD0
20BE80
50BE00
807D00
81FD00
077E08
0D2F64
340B90
ENDCHAR
STARTCHAR uni0446
ENCODING 1094
SWIDTH 535 0
DWIDTH 11 0
BBX 10 15 0 -5
BITMAP
2F0BC0
3F0FC0
7E1F80
7D1F40
BD2F40
BC3F00
FC3E00
F8BE00
FFBFD0
7E1F90
0000C0
01AA80
07FF40
0FFD00
140000
ENDCHAR
STARTCHAR uni0447
ENCODING 1095
SWIDTH 505 0
DWIDTH 10 0
BBX 11 10 0 0
BITMAP
2F0BC0
3F0FC0
7E1F80
7D1F40
7D3F40
7FFF00
2F7E04
007E24
003FE0
001F80
ENDCHAR
STARTCHAR uni0448
ENCODING 1096
SWIDTH 752 0
DWIDTH 15 0
BBX 16 10 0 0
BITMAP
2F0BC3F0
3F0FC3E0
7E1F87E0
7D1F4BD0
BD2F4BC0
BC3F0FC0
FC3E1F81
F8BE2F89
FFBFEFF8
7E1F87E0
ENDCHAR
STARTCHAR uni0449
ENCODING 1097
SWIDTH 782 0
DWIDTH 16 0
BBX 15 15 0 -5
BITMAP
2F0BC3F0
3F0FC3E0
7E1F87E0
7D1F4BD0
BD2F4BC0
BC3F0FC0
FC3E1F80
F8BE2F80
FFBFEFF4
7E1F87A4
00000030
00006AE0
0002FFD0
0007FF40
00090000
ENDCHAR
STARTCHAR uni044A
ENCODING 1098
SWIDTH 448 0
DWIDTH 9 0
BBX 8 10 0 0
BITMAP
6FD0
B680
B740
1FBD
3E6F
BC1F
FC2F
F83E
FDB8
6F90
ENDCHAR
STARTCHAR uni044B
ENCODING 1099
SWIDTH 655 0
DWIDTH 13 0
BBX 14 10 0 0
BITMAP
2F000B00
3E007E00
7E06BE00
7DFD7D00
BC2C7D00
BC1DBC00
F82CF820
F878F890
FEF0FF80
6F807E00
ENDCHAR
STARTCHAR uni044C
ENCODING 1100
SWIDTH 448 0
DWIDTH 9 0
BBX 8 10 0 0
BITMAP
2F00
3F00
3E00
7FFD
BE7F
BC1F
FC2F
F87E
FEF8
6F90
ENDCHAR
STARTCHAR uni044D
ENCODING 1101
SWIDTH 413 0
DWIDTH 8 0
BBX 9 10 -1 0
BITMAP
06F900
197F00
202F40
002F40
03FF40
017F00
603E00
E0BC00
E1F400
6F8000
ENDCHAR
STARTCHAR uni044E
ENCODING 1102
SWIDTH 675 0
DWIDTH 14 0
BBX 17 10 -1 0
BITMAP
0BC06F4000
0FC1F6D000
1F87E1D180
1F8BD2F900
2FFFC1D000
2F6F82D000
3F2F42C000
7E1F474000
7D1F9E0000
BD06F40000
ENDCHAR
STARTCHAR uni044F
ENCODING 1103
SWIDTH 527 0
DWIDTH 11 0
BBX 12 10 -1 0
BITMAP
00AFF4
03E6F4
0BC2F0
0BC3F0
0BD3E0
02FFD0
10EBD1
B5CBD3
B68BFD
2E02F4
ENDCHAR
STARTCHAR uni0450
ENCODING 1104
SWIDTH 384 0
DWIDTH 8 0
BBX 9 15 -1 0
BITMAP
00B400
007400
003800
002800
000000
01BE00
07E740
0F8740
2F4B00
3F6D00
3FE400
7E0000
7E0180
3F5600
1BE400
ENDCHAR
STARTCHAR uni0451
ENCODING 1105
SWIDTH 384 0
DWIDTH 8 0
BBX 10 13 -1 0
BITMAP
01E2D0
01E2D0
000000
01BE00
07E740
0F8740
2F4B00
3F6D00
3FE400
7E0000
7E0180
3F5600
1BE400
ENDCHAR
STARTCHAR uni0452
ENCODING 1106
SWIDTH 491 0
DWIDTH 10 0
BBX 12 19 -1 -5
BITMAP
01A000
03E000
07E000
2FFF00
0BD400
0FC000
0FEF80
1FDBD0
2F4BD0
2F0BC0
3F0F81
7E1F89
7D1F58
BD2FD0
01BF00
077E00
0D7D00
0DBC00
07E000
ENDCHAR
STARTCHAR uni0453
ENCODING 1107
SWIDTH 375 0
DWIDTH 8 0
BBX 9 15 -1 0
BITMAP
000140
000740
000E00
002800
000000
02F800
09BE00
247E00
10BE00
07FC00
1FE000
3F4040
7E0140
7F5900
1FE400
ENDCHAR
STARTCHAR uni0454
ENCODING 1108
SWIDTH 384 0
DWIDTH 8 0
BBX 9 10 -1 0
BITMAP
01BE00
07E740
0F8740
1F4000
3FF400
3F5000
7E0040
7E0180
3F5A00
1BE400
ENDCHAR
STARTCHAR uni0455
ENCODING 1109
SWIDTH 382 0
DWIDTH 8 0
BBX 9 11 -1 0
BITMAP
001400
01FC00
02FC00
02FC00
05FC00
0CBC00
28BD00
78BD40
A4BE40
65F900
2FD000
ENDCHAR
STARTCHAR uni0456
ENCODING 1110
SWIDTH 267 0
DWIDTH 5 0
BBX 6 14 0 0
BITMAP
0B40
1FC0
0B40
0000
2F00
3F00
7E00
7D00
BD00
BC00
FC10
F860
FFC0
7E00
ENDCHAR
STARTCHAR uni0457
ENCODING 1111
SWIDTH 267 0
DWIDTH 5 0
BBX 7 14 0 0
BITMAP
74B0
B8F4
0000
0000
2F00
3F00
7E00
7D00
BD00
BC00
FC10
F860
FFC0
7E00
ENDCHAR
STARTCHAR uni0458
ENCODING 1112
SWIDTH 240 0
DWIDTH 5 0
BBX 10 19 -4 -5
BITMAP
000B40
001F80
000B40
000000
002F00
003F00
003E00
007E00
00BD00
00BC00
00FC10
01F890
01F980
02FA00
0BF000
7BE000
D7E000
DBC000
7E4000
ENDCHAR
STARTCHAR uni0459
ENCODING 1113
SWIDTH 745 0
DWIDTH 15 0
BBX 15 10 -1 0
BITMAP
0007FC00
001DFC00
0034F800
0071FFF4
0071F9FC
00A2F0BC
10D3F0BC
B5C3E0F4
B682F6E0
2E00BE40
ENDCHAR
STARTCHAR uni045A
ENCODING 1114
SWIDTH 694 0
DWIDTH 14 0
BBX 14 10 -1 0
BITMAP
0BC2F000
0FC2F000
1F83E000
1F47FFD0
2FFFE7F0
2F5BC2F0
3F0FC2F0
7E0F83D0
7D0BDB80
BD02F900
ENDCHAR
STARTCHAR uni045B
ENCODING 1115
SWIDTH 505 0
DWIDTH 10 0
BBX 12 14 -1 0
BITMAP
01A000
03E000
07E000
2FFF00
0BD400
0FC000
0FEF80
1FDBD0
2F4BD0
2F0BC0
3F0FC0
7E0F86
7D0F98
BD07E4
ENDCHAR
STARTCHAR uni045C
ENCODING 1116
SWIDTH 501 0
DWIDTH 10 0
BBX 12 15 -1 0
BITMAP
000090
0002D0
000340
000A00
000000
0BC1B4
0FC6B4
0F9C00
1FB900
2FFF80
2F4F80
3F0F81
7E0F89
7D0FF8
BD07E0
ENDCHAR
STARTCHAR uni045D
ENCODING 1117
SWIDTH 505 0
DWIDTH 10 0
BBX 11 15 0 0
BITMAP
01E000
00E000
00B000
003000
000000
2F0BC0
3F0FC0
7E1F80
7D1F40
BD2F40
BC3F00
FC3E08
F8BE24
FFBFE0
7E1F80
ENDCHAR
STARTCHAR uni045E
ENCODING 1118
SWIDTH 486 0
DWIDTH 10 0
BBX 11 19 0 -5
BITMAP
068080
07C640
02FD00
000000
2F0BC0
3F0FC0
7E1F80
7D1F40
BD2F40
BC3F00
FC3E14
F8BE20
FFFD90
7EBF40
06FC00
19F800
31F400
3BF000
1F8000
ENDCHAR
STARTCHAR uni045F
ENCODING 1119
SWIDTH 505 0
DWIDTH 10 0
BBX 11 15 0 -5
BITMAP
2F0BC0
3F0FC0
7E1F80
7D1F40
BD2F40
BC3F00
FC3E08
F8BE24
FFBFE0
7E1F80
018000
02D000
03E000
01D000
008000
ENDCHAR
STARTCHAR uni0462
ENCODING 1122
SWIDTH 659 0
DWIDTH 13 0
BBX 13 15 0 0
BITMAP
003E0000
007E0000
007D0000
1BFFFF40
B9FEFE00
F1F80000
B1FFE400
02F5BD00
03F03E00
03E03E00
07E03E00
07D07E00
0BD0BC00
0FDFF400
0F8BD000
ENDCHAR
STARTCHAR uni0463
ENCODING 1123
SWIDTH 692 0
DWIDTH 14 0
BBX 14 10 -1 0
BITMAP
0BEF8000
0FDBD000
1F87E000
1F47FF90
2F4BD7E0
2F0BC2F0
3E0F82F0
7E0F83D0
7D0BDB80
BD06F900
ENDCHAR
STARTCHAR uni046A
ENCODING 1130
SWIDTH 834 0
DWIDTH 17 0
BBX 15 15 1 0
BITMAP
00AFFFF8
0BBF5560
2D2F80D0
B41FC240
F00FDA00
B007FC00
11FFFFE0
07D3F1F4
0F87E1F4
1F47D1F4
1F0BD2F4
2F0BC2F0
3E0FC3E0
7E1F87E0
B81F42F0
ENDCHAR
STARTCHAR uni046B
ENCODING 1131
SWIDTH 750 0
DWIDTH 15 0
BBX 12 10 1 0
BITMAP
06FFFD
3EFD58
747D20
743E90
0BFFFD
1F6F2F
2E2F2F
3E3E3E
7D7D3D
B87D3E
ENDCHAR
STARTCHAR uni0472
ENCODING 1138
SWIDTH 665 0
DWIDTH 13 0
BBX 13 15 0 0
BITMAP
006BF800
06E56F00
1E1B4B80
3C7D0BC0
B4F80BC0
B6F40BC0
77F00BC0
07EBFFC0
0BE41F80
0BD01F40
0BD03F00
0BC07D00
0BD0F800
07E6E000
01BE4000
ENDCHAR
STARTCHAR uni0473
ENCODING 1139
SWIDTH 439 0
DWIDTH 9 0
BBX 12 10 -1 0
BITMAP
01BE00
07E740
0FC386
1F47E8
3F5380
3FBF40
7E0B00
7E1E00
3FBC00
1BE000
ENDCHAR
STARTCHAR uni0474
ENCODING 1140
SWIDTH 668 0
DWIDTH 13 0
BBX 15 15 0 0
BITMAP
006F00B4
07BF02E0
2D3F07C0
783F0B40
B03F0F00
B03F1E00
703F2C00
003F3800
003F3400
003F7000
002FA000
002F9000
002FC000
002F8000
002F4000
ENDCHAR
STARTCHAR uni0475
ENCODING 1141
SWIDTH 414 0
DWIDTH 8 0
BBX 8 10 0 0
BITMAP
2F1E
3F1F
7E07
7D06
BD0A
BC0D
FC2C
F874
FFE0
7E40
ENDCHAR
STARTCHAR uni0490
ENCODING 1168
SWIDTH 431 0
DWIDTH 9 0
BBX 13 17 0 0
BITMAP
00000180
000002C0
01BFFF80
1EBFFF00
38BD0000
74BC0000
B0FC0000
B0F80000
75F40000
02F40000
02F00000
03F00000
07E00000
07D00000
0BD00000
0FC00000
0F800000
ENDCHAR
STARTCHAR uni0491
ENCODING 1169
SWIDTH 342 0
DWIDTH 7 0
BBX 9 12 -1 0
BITMAP
000100
000780
0BFF00
0FD400
1F8000
1F4000
2F4000
2F0000
3F0000
7E0000
7D0000
BD0000
ENDCHAR
STARTCHAR uni0492
ENCODING 1170
SWIDTH 400 0
DWIDTH 8 0
BBX 13 15 0 0
BITMAP
01BFFF80
1FBFFF00
3C7E0000
78BD0000
B4BC0000
B4FC0000
75F80000
01F80000
1FFF4000
02F00000
03F00000
07E00000
07D00000
0BD00000
0FC00000
ENDCHAR
STARTCHAR uni0493
ENCODING 1171
SWIDTH 375 0
DWIDTH 8 0
BBX 9 10 -1 0
BITMAP
06F800
19BE00
207E00
10FD00
7FFF00
2FD500
3F0040
7E0140
7F5900
1FE000
ENDCHAR
STARTCHAR uni0494
ENCODING 1172
SWIDTH 665 0
DWIDTH 13 0
BBX 13 16 0 -1
BITMAP
01BFFF80
0BBFFF00
3C7E0000
78BD0000
B4BC0000
B4FC0000
75FFF800
01F97E00
02F42F00
02F01F40
03F01F40
07E02F00
07D03F00
0BD4BD00
0FDFF800
000B9000
ENDCHAR
STARTCHAR uni0495
ENCODING 1173
SWIDTH 486 0
DWIDTH 10 0
BBX 12 15 -1 -5
BITMAP
0BFFE0
0FEFD0
0F8000
1F5A00
2FFF80
2F5F80
3F0F85
7E1F48
7D1F64
BD2F90
01BE00
077E00
0D7D00
0DB800
07E000
ENDCHAR
STARTCHAR uni0496
ENCODING 1174
SWIDTH 777 0
DWIDTH 16 0
BBX 18 21 -1 -6
BITMAP
02F41A07D0
03F83E2FE0
029C7E7A80
000DBDA000
000DBDD000
0009FE8000
000AFB4000
01BFFFF400
07E6F5FC00
0BC2F0BC00
0F83F0F800
0F87E1F400
1F47D2F400
2F0BC2F000
7D0FC1F400
000002D000
000003D000
000003F000
000001F400
000000B000
0000009000
ENDCHAR
STARTCHAR uni0497
ENCODING 1175
SWIDTH 882 0
DWIDTH 18 0
BBX 20 15 -1 -5
BITMAP
07E03E07E0
19BC3E2E74
207C7D7C70
007DBDB800
007FFFF400
007DF9F400
60B8F9F405
B0F1F4F418
B2D2F0FDA0
2F42F06F40
0000000C00
0000002E00
0000002F00
0000000E00
0000000400
ENDCHAR
STARTCHAR uni0498
ENCODING 1176
SWIDTH 525 0
DWIDTH 11 0
BBX 10 21 0 -6
BITMAP
00BF40
065BD0
0803E0
0407E0
000BD0
002F80
02FD00
016F80
000FD0
000BD0
100FD0
F40FC0
F02F80
F5BE00
2FE400
038000
07C000
03E000
02F000
00E000
008000
ENDCHAR
STARTCHAR uni0499
ENCODING 1177
SWIDTH 498 0
DWIDTH 10 0
BBX 11 20 0 -10
BITMAP
02F900
097F00
242F40
202F40
502F40
803E00
40BC04
0BF014
01F460
00FE80
01FD00
0AFC00
25F800
2BF400
1FD000
060000
1F0000
1F4000
0B0000
050000
ENDCHAR
STARTCHAR uni049A
ENCODING 1178
SWIDTH 635 0
DWIDTH 13 0
BBX 14 21 0 -6
BITMAP
006F07D0
07BE1FE0
1E7E7990
38BDE000
B4BEC000
B4FF4000
B1FF0000
21FFE400
02F4FC00
02F0BC00
03F0F800
07E0F800
07D1F400
0BD2F000
0FC2F400
0001D000
0002E000
0001F400
0000F800
00007400
00006000
ENDCHAR
STARTCHAR uni049B
ENCODING 1179
SWIDTH 501 0
DWIDTH 10 0
BBX 12 15 -1 -5
BITMAP
0BC1B4
0FC6B4
0F9C00
1FB900
2FFF80
2F4F80
3F0F81
7E0F89
7D0FF8
BD07E0
000240
0007C0
0007D0
000280
000100
ENDCHAR
STARTCHAR uni049C
ENCODING 1180
SWIDTH 721 0
DWIDTH 14 0
BBX 16 15 0 0
BITMAP
006F00B8
07BE02FD
2D7E0B68
78BD1D00
B4BD7400
B0FEA000
61FFFD00
01FB7F00
02F62F00
02F03E00
03E03E00
07E07D00
07D0BC00
0BD0BC00
0FC07D00
ENDCHAR
STARTCHAR uni049D
ENCODING 1181
SWIDTH 551 0
DWIDTH 11 0
BBX 13 10 -1 0
BITMAP
0BC06D00
0FC1EE00
0FB60000
1FBA4000
2FBFE000
2FE3E000
3FD3E040
7EC3E240
7D03FE00
BD01F800
ENDCHAR
STARTCHAR uni04A0
ENCODING 1184
SWIDTH 691 0
DWIDTH 14 0
BBX 15 15 0 0
BITMAP
01BFC1F4
1E5FCBF8
381F9C64
B41FB400
B02FA000
B03FC000
603FFD00
007E7F00
00BD2F00
00BC2F00
00FC3E00
00F83E00
01F87D00
02F4BD00
02F07D00
ENDCHAR
STARTCHAR uni04A1
ENCODING 1185
SWIDTH 676 0
DWIDTH 14 0
BBX 14 10 0 0
BITMAP
0AFE0B80
7DBD2FC0
F0BDA280
F0FEC000
B0FFFC00
11FDBD00
02F4BD10
02F0BC20
03F0BFD0
03E02F40
ENDCHAR
STARTCHAR uni04A2
ENCODING 1186
SWIDTH 665 0
DWIDTH 13 0
BBX 14 18 0 -3
BITMAP
006F03E0
07BE07E0
2D7E0BD0
78BD0BC0
B4BC0FC0
B0FC1F80
75FFFF40
01F96F40
02F42F00
02F03E00
03E07E00
07E07D00
07D0BC00
0BD0FC00
0FC0FE00
00001FF0
00000BF0
000007D0
ENDCHAR
STARTCHAR uni04A3
ENCODING 1187
SWIDTH 507 0
DWIDTH 10 0
BBX 12 15 -1 -5
BITMAP
0BC2F0
0FC2F0
1F83E0
1F47D0
2FFFD0
2F5BC0
3F0F81
7E0F86
7D0FFC
BD07E0
000240
0007C0
0007D0
0002C0
000100
ENDCHAR
STARTCHAR uni04A4
ENCODING 1188
SWIDTH 689 0
DWIDTH 14 0
BBX 19 15 0 0
BITMAP
006F03FFF4
07BE07FFF0
2D7E0BD000
78BD0BC000
B4BC0FC000
B0FC1F8000
75FFFF4000
01F96F4000
02F42F0000
03F03F0000
03E07E0000
07E07D0000
07D0BD0000
0BD0FC0000
0FC0F80000
ENDCHAR
STARTCHAR uni04A5
ENCODING 1189
SWIDTH 681 0
DWIDTH 14 0
BBX 15 10 -1 0
BITMAP
0BC2FFFC
0FC2FBF4
1F83E000
1F47D000
2FFFD000
2F5BC000
3F0F8200
7E0F8900
7D0FF800
BD07E000
ENDCHAR
STARTCHAR uni04AA
ENCODING 1194
SWIDTH 497 0
DWIDTH 10 0
BBX 11 21 0 -6
BITMAP
006FD0
01F974
07F038
0FD078
1FC060
2F4000
3F4000
7F0000
7E0000
BE0000
BE0000
BF0014
7F4060
3FFF80
0BF900
01D000
02F000
01F800
00B800
007400
005000
ENDCHAR
STARTCHAR uni04AB
ENCODING 1195
SWIDTH 384 0
DWIDTH 8 0
BBX 9 15 -1 -5
BITMAP
01BE00
07E740
0FC740
1F4100
3F0000
3F0000
7E0040
7E0180
3FAE00
1BE400
024000
07C000
07D000
02C000
010000
ENDCHAR
STARTCHAR uni04AE
ENCODING 1198
SWIDTH 620 0
DWIDTH 12 0
BBX 14 15 0 0
BITMAP
006F00A0
07BF40D0
2D2F81C0
781F8240
B01FC700
B00FDA00
700BEC00
0007F800
0007F400
0007F000
0007E000
000BE000
000FD000
000FC000
001FC000
ENDCHAR
STARTCHAR uni04AF
ENCODING 1199
SWIDTH 480 0
DWIDTH 10 0
BBX 8 15 1 -5
BITMAP
FC1E
BC1F
BC03
BD06
BD09
7D0C
7E24
7E60
3EC0
3F40
3E00
7E00
7D00
BD00
E400
ENDCHAR
STARTCHAR uni04B0
ENCODING 1200
SWIDTH 620 0
DWIDTH 12 0
BBX 14 15 0 0
BITMAP
006F00A0
07BF40D0
2D2F81C0
781F8240
B01FC700
B00FDA00
700BEC00
0007F800
0007F400
003FFE00
001BF400
000BE000
000FD000
000FC000
001FC000
ENDCHAR
STARTCHAR uni04B1
ENCODING 1201
SWIDTH 480 0
DWIDTH 10 0
BBX 9 15 0 -5
BITMAP
3F0780
2F07C0
2F00C0
2F4180
2F4240
1F4300
1F8900
1F9800
0FB000
BFF800
5FD000
1F8000
1F4000
2F4000
390000
ENDCHAR
STARTCHAR uni04B6
ENCODING 1206
SWIDTH 695 0
DWIDTH 14 0
BBX 15 18 0 -3
BITMAP
006F02F4
07FE02F0
1E7E03F0
78BD03E0
B4BC07E0
B4FC0BD0
B0FC0BC0
10BD1FC0
002FEF80
00001F40
00002F40
00003F00
00003E00
00007E00
0000BE00
00000BE8
000007F8
000002E0
ENDCHAR
STARTCHAR uni04B7
ENCODING 1207
SWIDTH 505 0
DWIDTH 10 0
BBX 11 15 0 -5
BITMAP
2F0BC0
3F0FC0
7E1F80
7D1F40
7D3F40
7FFF00
2F7E04
007E14
003FE0
001F80
000900
001F00
001F40
000A00
000400
ENDCHAR
STARTCHAR uni04B8
ENCODING 1208
SWIDTH 715 0
DWIDTH 14 0
BBX 15 15 0 0
BITMAP
006F00F8
07BE01F8
1D7E02F4
78BD02F0
B4BC03F0
B0FC03E0
70FC97E0
00BEEFD0
002FEFC0
00014FC0
00015F80
00001F40
00002F40
00003F00
00003E00
ENDCHAR
STARTCHAR uni04B9
ENCODING 1209
SWIDTH 545 0
DWIDTH 11 0
BBX 12 10 0 0
BITMAP
2F03F0
3F07E0
7E07D0
7D9BD0
7EAFC0
7FFF80
2FDF81
019F89
015FF8
000BD0
ENDCHAR
STARTCHAR uni04BA
ENCODING 1210
SWIDTH 679 0
DWIDTH 14 0
BBX 13 15 0 0
BITMAP
006F0000
07BE0000
2D7E0000
78BD0000
B4BC0000
B0FC0000
21FEFD00
01F82F00
02F41F40
03F02F40
03E02F40
07E03F00
07D03F00
0BD07E00
0FC07D00
ENDCHAR
STARTCHAR uni04BB
ENCODING 1211
SWIDTH 505 0
DWIDTH 10 0
BBX 12 14 -1 0
BITMAP
01A000
03E000
07E000
07D000
0BEF80
0FDBD0
0F87E0
1F47D0
2F4BD0
2F0BC0
3E0FC1
7E0F86
7D0FD8
BD07E0
ENDCHAR
STARTCHAR uni04C0
ENCODING 1216
SWIDTH 375 0
DWIDTH 8 0
BBX 8 15 0 0
BITMAP
006E
07BE
2D7D
78BD
B0FC
B0F8
71F8
02F4
02F0
03F0
03E0
07E0
0BD0
0BC0
0FC0
ENDCHAR
STARTCHAR uni04C1
ENCODING 1217
SWIDTH 777 0
DWIDTH 16 0
BBX 18 19 -1 0
BITMAP
0000A02400
0001F5A000
0000BF8000
0000000000
02F41A07D0
03F83E2FE0
029C7E7A80
000DBDA000
000DBDD000
0009FE8000
000AFB4000
01BFFFF400
07E6F5FC00
0BC2F0BC00
0F83F0F800
0F87E1F400
1F47D2F400
2F0BC2F000
7D0FC1F400
ENDCHAR
STARTCHAR uni04C2
ENCODING 1218
SWIDTH 882 0
DWIDTH 18 0
BBX 20 14 -1 0
BITMAP
0000A02400
0001F5A000
0000BF8000
0000000000
07E03E07E0
19BC3E2E74
207C7D7C70
007DBDB800
007FFFF400
007DF9F400
60B8F9F405
B0F1F4F408
B6D2F0F960
2F42F02F80
ENDCHAR
STARTCHAR uni04CB
ENCODING 1227
SWIDTH 695 0
DWIDTH 14 0
BBX 15 17 0 -2
BITMAP
006F02F4
07BE02F0
2D7E03F0
78BD03E0
B4BC07E0
B0FC0BD0
74FC0BC0
00BEAFC0
002FAF80
00001F40
00002F40
00003F00
00003E00
00007E00
0056FD00
01FF8000
00B90000
ENDCHAR
STARTCHAR uni04CC
ENCODING 1228
SWIDTH 516 0
DWIDTH 10 0
BBX 11 15 0 -5
BITMAP
2F4BD0
2F0BC0
3F0FC0
3E1F80
7E2F40
3FFF40
1FBF04
003F18
003FF4
002FD0
000900
06AC00
2FF800
3FE000
600000
ENDCHAR
STARTCHAR uni04CF
ENCODING 1231
SWIDTH 267 0
DWIDTH 5 0
BBX 6 14 0 0
BITMAP
0680
0F80
1F80
1F40
2F00
3F00
3E00
7D00
BD00
BC00
FC10
F860
FFC0
7E00
ENDCHAR
STARTCHAR uni04D0
ENCODING 1232
SWIDTH 668 0
DWIDTH 13 0
BBX 16 21 0 -2
BITMAP
00001A02
00002F19
00000BF4
00000000
00000BE0
00003FE0
0000EBD0
00038BC0
000B0FC0
001E0F80
1BFE5F80
79B9BF40
B4F02F00
52E03F00
03D07E00
07C07D00
0B80BD00
0F40FC00
1F40F800
1F000000
0B400000
ENDCHAR
STARTCHAR uni04D1
ENCODING 1233
SWIDTH 526 0
DWIDTH 11 0
BBX 12 14 -1 0
BITMAP
006808
007C64
002FD0
000000
01BEF4
07E7F4
0FC2F0
2F43F0
3F07E0
3E07D0
7E0BD1
7E1FC2
3FFBFD
1B92E4
ENDCHAR
STARTCHAR uni04D2
ENCODING 1234
SWIDTH 668 0
DWIDTH 13 0
BBX 16 20 0 -2
BITMAP
00000F1E
00000F1E
00000000
00000BE0
00003FE0
0000EBD0
00038BC0
000B0FC0
001E0F80
1BFE5F80
79B9BF40
B4F02F00
52E03F00
03D07E00
07C07D00
0B80BD00
0F40FC00
1F40F800
1F000000
0B400000
ENDCHAR
STARTCHAR uni04D3
ENCODING 1235
SWIDTH 526 0
DWIDTH 11 0
BBX 12 13 -1 0
BITMAP
003C78
002C78
000000
01BEF4
07E7F4
0FC2F0
2F43F0
3F07E0
3E07D0
7E0BD1
7E1FC2
3FFBFD
1B92E4
ENDCHAR
STARTCHAR uni04D4
ENCODING 1236
SWIDTH 764 0
DWIDTH 15 0
BBX 18 17 0 -2
BITMAP
00000BE420
00003FFFE0
0000EBD000
00038BD000
000B0FC000
001E0F8000
1BFE5F8000
7DB9BFFD00
B4F02F5400
66E03F0000
03D07E0000
0BC07D0000
0B80BD0000
0F40FFFE00
1F40FFFD00
1F00000000
0B00000000
ENDCHAR
STARTCHAR uni04D5
ENCODING 1237
SWIDTH 650 0
DWIDTH 13 0
BBX 14 10 0 0
BITMAP
06F9BE00
196FF780
001FD380
001F8740
1BFF5E00
BE7FF400
F83F0010
F8BF0080
FFEF9600
7E4BE400
ENDCHAR
STARTCHAR uni04D6
ENCODING 1238
SWIDTH 459 0
DWIDTH 9 0
BBX 11 19 0 0
BITMAP
007808
00B874
007F90
000000
006F80
01F5E0
03E0A0
07D0E0
07D040
03E000
02F800
0BD000
2F8000
7F0000
BE0000
BE0010
BF4180
7FFE00
1BE400
ENDCHAR
STARTCHAR uni04D7
ENCODING 1239
SWIDTH 384 0
DWIDTH 8 0
BBX 10 14 -1 0
BITMAP
019060
03E1C0
01FE40
000000
01BE00
07E740
0F8740
2F4B00
3F6D00
3FE400
7E0000
7E0180
3F5600
1BE400
ENDCHAR
STARTCHAR uni04D8
ENCODING 1240
SWIDTH 544 0
DWIDTH 11 0
BBX 11 15 0 0
BITMAP
01BE40
0BFFE0
0E57F4
0402F8
0002F8
0002F8
006FF8
02E7F8
0F83F4
2E07F0
7D0BD0
BC0F80
7C2F00
7DBD00
1BE000
ENDCHAR
STARTCHAR uni04D9
ENCODING 1241
SWIDTH 404 0
DWIDTH 8 0
BBX 8 10 0 0
BITMAP
1BE4
35BD
007E
007E
07FE
2DBD
B4FC
E1F4
E7E0
7E40
ENDCHAR
STARTCHAR uni04DC
ENCODING 1244
SWIDTH 777 0
DWIDTH 16 0
BBX 18 18 -1 0
BITMAP
0000B5F000
0000B4E000
0000000000
02F41A07D0
03F83E2FE0
029C7E7A80
000DBDA000
000DBDD000
0009FE8000
000AFB4000
01BFFFF400
07E6F5FC00
0BC2F0BC00
0F83F0F800
0F87E1F400
1F47D2F400
2F0BC2F000
7D0FC1F400
ENDCHAR
STARTCHAR uni04DD
ENCODING 1245
SWIDTH 882 0
DWIDTH 18 0
BBX 20 13 -1 0
BITMAP
0000B5F000
0000B5E000
0000000000
07E03E07E0
19BC3E2E74
207C7D7C70
007DBDB800
007FFFF400
007DF9F400
60B8F9F405
B0F1F4F408
B6D2F0F960
2F42F02F80
ENDCHAR
STARTCHAR uni04DE
ENCODING 1246
SWIDTH 525 0
DWIDTH 11 0
BBX 11 18 0 0
BITMAP
0078F4
0074B0
000000
00BF40
065BD0
0803E0
0407E0
000BD0
002F80
02FD00
016F80
000FD0
000BD0
100FD0
F40FC0
F02F80
F5BE00
2FE400
ENDCHAR
STARTCHAR uni04DF
ENCODING 1247
SWIDTH 498 0
DWIDTH 10 0
BBX 11 18 0 -5
BITMAP
03D7C0
02D780
000000
02F900
097F00
242F40
202F40
502F40
803E00
40BC04
0BF014
01F420
00FE90
01FD00
0AFC00
24F800
2AF400
1F9000
ENDCHAR
STARTCHAR uni04E2
ENCODING 1250
SWIDTH 705 0
DWIDTH 14 0
BBX 15 18 0 0
BITMAP
0003FFE0
00015540
00000000
006F01F8
07BE03F4
1D7E0BF0
78BD1FF0
B4BC2FE0
B0FC7BE0
71F8EBD0
01F5DBC0
02F78FC0
02FB1F80
03FD1F40
07FC2F40
07F43F00
0BE03E00
0FD07E00
ENDCHAR
STARTCHAR uni04E3
ENCODING 1251
SWIDTH 505 0
DWIDTH 10 0
BBX 11 13 0 0
BITMAP
07FFC0
015540
000000
2F0BC0
3F0FC0
7E1F80
7D1F40
BD2F40
BC3F00
FC3E08
F8BE24
FFBFE0
7E1F80
ENDCHAR
STARTCHAR uni04E4
ENCODING 1252
SWIDTH 705 0
DWIDTH 14 0
BBX 15 18 0 0
BITMAP
0001E3D0
0001D2C0
00000000
006F01F8
07BE03F4
1D7E0BF0
78BD1FF0
B4BC2FE0
B0FC7BE0
71F8EBD0
01F5DBC0
02F78FC0
02FB1F80
03FD1F40
07FC2F40
07F43F00
0BE03E00
0FD07E00
ENDCHAR
STARTCHAR uni04E5
ENCODING 1253
SWIDTH 505 0
DWIDTH 10 0
BBX 11 13 0 0
BITMAP
03C780
02C780
000000
2F0BC0
3F0FC0
7E1F80
7D1F40
BD2F40
BC3F00
FC3E08
F8BE24
FFBFE0
7E1F80
ENDCHAR
STARTCHAR uni04E6
ENCODING 1254
SWIDTH 665 0
DWIDTH 13 0
BBX 13 18 0 0
BITMAP
0003D780
0002C780
00000000
006BF800
02E56F00
1F5B4F80
3C7D0BC0
B4F80BC0
B6F40BC0
77F00BC0
07E00FC0
0BD00F80
0BD02F40
0BD03F00
0BC07D00
0BD1F800
07FBE000
01BE4000
ENDCHAR
STARTCHAR uni04E7
ENCODING 1255
SWIDTH 439 0
DWIDTH 9 0
BBX 12 13 -1 0
BITMAP
00B5F0
00B5E0
000000
01BE00
07E740
0FC382
1F47E9
3F0380
3F0740
7E0700
7E0E00
3F6C00
1BE000
ENDCHAR
STARTCHAR uni04E8
ENCODING 1256
SWIDTH 665 0
DWIDTH 13 0
BBX 13 15 0 0
BITMAP
006BF800
02E56F00
1E1F4B80
3C7D0BC0
B4F80BC0
B6F40BC0
77F00BC0
07FFFFC0
0BD01F80
0BD01F40
0BD03F00
0BC07D00
0BD0F800
07E6E000
01BE4000
ENDCHAR
STARTCHAR uni04E9
ENCODING 1257
SWIDTH 439 0
DWIDTH 9 0
BBX 12 10 -1 0
BITMAP
01BE00
07E740
0FC382
1F47E9
3FFFC0
3F5780
7E0700
7E0E00
3F6C00
1BE000
ENDCHAR
STARTCHAR uni04EE
ENCODING 1262
SWIDTH 644 0
DWIDTH 13 0
BBX 14 18 0 0
BITMAP
0002FFE0
00005540
00000000
006F0070
07BF40A0
1D2F80D0
781FC280
B40FC340
B00BD700
740BEA00
0007FC00
0003F800
0002F400
0001F000
0001D000
0065C000
00FF4000
007D0000
ENDCHAR
STARTCHAR uni04EF
ENCODING 1263
SWIDTH 486 0
DWIDTH 10 0
BBX 11 18 0 -5
BITMAP
07FFC0
015540
000000
2F0BC0
3F0FC0
7E1F80
7D1F40
BD2F40
BC3F00
FC3E14
F8BE20
FFFD90
7EBF40
06FC00
19F800
31F400
3BF000
1F8000
ENDCHAR
STARTCHAR uni04F0
ENCODING 1264
SWIDTH 644 0
DWIDTH 13 0
BBX 14 18 0 0
BITMAP
0001F2D0
0001E2D0
00000000
006F0070
07BF40A0
1D2F80D0
781FC280
B40FC340
B00BD700
740BEA00
0007FC00
0003F800
0002F400
0001F000
0001D000
0065C000
00FF4000
007D0000
ENDCHAR
STARTCHAR uni04F1
ENCODING 1265
SWIDTH 486 0
DWIDTH 10 0
BBX 11 18 0 -5
BITMAP
03C780
02C780
000000
2F0BC0
3F0FC0
7E1F80
7D1F40
BD2F40
BC3F00
FC3E14
F8BE20
FFFD90
7EBF40
06FC00
19F800
31F400
3BF000
1F8000
ENDCHAR
STARTCHAR uni04F2
ENCODING 1266
SWIDTH 644 0
DWIDTH 13 0
BBX 15 20 0 0
BITMAP
00002D78
000038E0
0000B1D0
0000D240
00000000
006F0070
07BF40A0
1D2F80D0
781FC280
B40FC340
B00BD700
740BEA00
0007FC00
0003F800
0002F400
0001F000
0001D000
0065C000
00FF4000
007D0000
ENDCHAR
STARTCHAR uni04F3
ENCODING 1267
SWIDTH 486 0
DWIDTH 10 0
BBX 11 20 0 -5
BITMAP
0079E0
00E2C0
01D340
024A00
000000
2F0BC0
3F0FC0
7E1F80
7D1F40
BD2F40
BC3F00
FC3E14
F8BE20
FFFD90
7EBF40
06FC00
19F800
31F400
3BF000
1F8000
ENDCHAR
STARTCHAR uni04F4
ENCODING 1268
SWIDTH 695 0
DWIDTH 14 0
BBX 15 18 0 0
BITMAP
0001E3D0
0001E2D0
00000000
006F02F4
07FE02F0
1E7E03F0
78BD03E0
B4BC07E0
B4FC0BD0
B0FC0BC0
10BD1FC0
002FAF80
00001F40
00002F40
00003F00
00003E00
00007E00
00007D00
ENDCHAR
STARTCHAR uni04F5
ENCODING 1269
SWIDTH 505 0
DWIDTH 10 0
BBX 11 13 0 0
BITMAP
03C780
03C740
000000
2F0BC0
3F0FC0
7E1F80
7D1F40
7D3F40
7FFF00
2F7E04
007E24
003FE0
001F80
ENDCHAR
STARTCHAR uni04F6
ENCODING 1270
SWIDTH 442 0
DWIDTH 9 0
BBX 13 18 0 -3
BITMAP
01BFFF80
1FBFFF00
3C7E0000
B8BD0000
B4BC0000
B4FC0000
25F80000
01F40000
02F40000
03F00000
03E00000
07E00000
07D00000
0BD00000
0FD00000
01FE4000
00BF4000
002D0000
ENDCHAR
STARTCHAR uni04F7
ENCODING 1271
SWIDTH 375 0
DWIDTH 8 0
BBX 9 15 -1 -5
BITMAP
02F800
09BE00
247E00
10BD00
07F800
1FD000
3F0080
7E0240
7FAD00
1FA000
030000
0B8000
0BC000
038000
010000
ENDCHAR
STARTCHAR uni04F8
ENCODING 1272
SWIDTH 909 0
DWIDTH 18 0
BBX 19 18 0 0
BITMAP
00001E2D00
00001E2D00
0000000000
006F0001F8
07BE0001F4
2D7E0002F4
78BD0003F0
B4BC0003E0
B0FC0007E0
65FEF80BD0
01F9BE0BD0
02F43F0FC0
02F02F0F80
03E02F1F80
07E03E2F40
07D4BD2F00
0BDFF83F00
0FCBE07E00
ENDCHAR
STARTCHAR uni04F9
ENCODING 1273
SWIDTH 642 0
DWIDTH 13 0
BBX 14 13 0 0
BITMAP
0074A000
00B8F000
00100000
2A000A00
3E007E00
3E06FD00
7DAD7D00
BC6CBC00
BC2CB800
F82CF850
F879F880
FEF0FF80
6F807E00
ENDCHAR
STARTCHAR uni051A
ENCODING 1306
SWIDTH 665 0
DWIDTH 13 0
BBX 13 17 0 -2
BITMAP
006BF800
02E56F00
1F5B4F80
3C7D0BC0
78FC0BC0
B6F40BC0
77F00BC0
17E00FC0
0BE00F80
0BD01F40
0BD02F00
0BC07D00
0BEAF800
07E7F000
01BFE000
0000FE00
00007D00
ENDCHAR
STARTCHAR uni051B
ENCODING 1307
SWIDTH 486 0
DWIDTH 10 0
BBX 11 15 -1 -5
BITMAP
01BEF4
07E7F4
0FC2F0
2F43E0
3F07E0
3E07D0
7E0BD0
7F1FC0
3FFF80
1BAF80
002F40
002F00
003F00
007E00
006400
ENDCHAR
STARTCHAR uni051C
ENCODING 1308
SWIDTH 962 0
DWIDTH 19 0
BBX 21 15 0 0
BITMAP
006F00FC0340
07BF01FC0700
2D3F02FC0A00
783F03FC0D00
B03F07FC1C00
B03F0AFC2800
703F0DFC3400
003F1CFC7000
003F28FC9000
003F34FCC000
002F60FD8000
002F90FE4000
002FC0FF0000
002F80FE0000
002F40BD0000
ENDCHAR
STARTCHAR uni051D
ENCODING 1309
SWIDTH 661 0
DWIDTH 13 0
BBX 13 10 0 0
BITMAP
2F0BC780
3F0FC7C0
7E1F81C0
7D1F4180
BD2F4240
BC3F0340
FC3E0A00
F8BE1D00
FFBFF400
7E1F9000
ENDCHAR
STARTCHAR uni0524
ENCODING 1316
SWIDTH 742 0
DWIDTH 15 0
BBX 16 18 0 -3
BITMAP
01BFE505
0BFFFFFE
3EBE6FF8
787D0BD0
B4BD0FC0
B0FC0F80
70F81F80
11F82F40
02F42F00
02F03F00
03F07E00
07E07D00
07D0BD00
0BD0FC00
0FC0FD00
00001FF0
00000BF0
000007D0
ENDCHAR
STARTCHAR uni0525
ENCODING 1317
SWIDTH 505 0
DWIDTH 10 0
BBX 12 15 -1 -5
BITMAP
0BEF80
0FDBD0
1F87E0
1F47D0
2F4BD0
2F0BC0
3E0F82
7E0F89
7D0FF8
BD07E0
000240
0007C0
0007D0
0002C0
000140
ENDCHAR
STARTCHAR uni1E0C
ENCODING 7692
SWIDTH 663 0
DWIDTH 13 0
BBX 13 20 0 -5
BITMAP
006FE400
07D5BD00
2E691F40
78BD0F80
B4BC0F80
F0FC0FC0
B1F80F80
11F40F80
02F41F80
03F01F40
03E02F00
07E07D00
0BD0BC00
0BE6F400
0FEF9000
00000000
00000000
00B40000
01FC0000
00B40000
ENDCHAR
STARTCHAR uni1E0D
ENCODING 7693
SWIDTH 525 0
DWIDTH 11 0
BBX 12 19 -1 -5
BITMAP
000069
0000BC
0000FC
0000F8
01BEF8
07E7F4
0FC2F0
2F43F0
3F07E0
3F07E0
7E0BD0
7E0FC2
3F6FD5
1BD7E4
000000
000000
02D000
07F000
02D000
ENDCHAR
STARTCHAR uni1E20
ENCODING 7712
SWIDTH 578 0
DWIDTH 12 0
BBX 12 22 0 -4
BITMAP
003FFD
001554
000000
006FE0
02F97C
0BE02D
2F803D
3F4024
7F0000
BE0014
BE00B8
BD00F8
7E02F4
2F47F0
0BFAF0
0003E0
0007D0
0BE7D0
1D1BC0
2C0F40
1D2E00
0BF800
ENDCHAR
STARTCHAR uni1E21
ENCODING 7713
SWIDTH 507 0
DWIDTH 10 0
BBX 12 19 -1 -5
BITMAP
00FFF4
005550
000000
000000
01BEF4
07E7F4
0FC2F0
2F43F0
3F07E0
3E07D0
7E0BD2
7F1FC6
3FFF98
1BAFE0
00BF40
03AF00
0A3F00
0ABD00
02F400
ENDCHAR
STARTCHAR uni1E24
ENCODING 7716
SWIDTH 665 0
DWIDTH 13 0
BBX 14 20 0 -5
BITMAP
006F03E0
06FE07E0
1FBE07D0
3D7D0BC0
B8BD0FC0
B4FC0F80
B0FC1F80
65FFFF40
02F96F00
02F43F00
03F03E00
07E07D00
07D0BD00
0BD0BC00
0FC0F800
00000000
00000000
00780000
00BD0000
00780000
ENDCHAR
STARTCHAR uni1E25
ENCODING 7717
SWIDTH 505 0
DWIDTH 10 0
BBX 12 19 -1 -5
BITMAP
01A000
03E000
07E000
07D000
0BEF80
0FDBD0
0F87E0
1F47D0
2F4BD0
2F0BC0
3E0FC1
7E0F86
7D0FD8
BD07E0
000000
000000
02D000
07E000
02D000
ENDCHAR
STARTCHAR uni1E2A
ENCODING 7722
SWIDTH 665 0
DWIDTH 13 0
BBX 14 19 0 -4
BITMAP
006F03E0
07BE07E0
2D7E0BD0
78BD0BC0
B4BC0FC0
B0FC1F80
75FFFF80
01F96F40
02F42F00
03F03F00
03E07E00
07E07D00
07D0BD00
0BD0FC00
0FC0F800
00000000
06409000
0782C000
01FE0000
ENDCHAR
STARTCHAR uni1E2B
ENCODING 7723
SWIDTH 505 0
DWIDTH 10 0
BBX 12 18 -1 -4
BITMAP
01A000
03E000
07E000
07D000
0BEF80
0FDBD0
0F87E0
1F47D0
2F4BD0
2F0BC0
3E0FC1
7E0F86
7D0FD8
BD07E0
000000
240500
2C1D00
1FE400
ENDCHAR
STARTCHAR uni1E36
ENCODING 7734
SWIDTH 379 0
DWIDTH 8 0
BBX 13 20 0 -5
BITMAP
006E0000
07BE0000
2D7D0000
74BD0000
B0FC0000
B0F80000
71F80000
02F40000
02F00000
03F00000
07E00000
07D00000
0BD00000
0FC00000
0FE00000
01BD0000
001FD000
1F07FFC0
2F80BFC0
1F401F40
ENDCHAR
STARTCHAR uni1E37
ENCODING 7735
SWIDTH 293 0
DWIDTH 6 0
BBX 7 18 0 -5
BITMAP
07D0
0BD0
0FC0
0F80
1F80
2F40
2F00
3F00
7E00
7D00
BD14
BEA0
2F40
0000
0000
B800
FC00
B800
ENDCHAR
STARTCHAR uni1E42
ENCODING 7746
SWIDTH 787 0
DWIDTH 16 0
BBX 15 20 1 -5
BITMAP
00AF40FC
07AF41FC
1D3F02F8
387F07F8
74BF0BF4
B5FF0FF4
26EF1FF4
03AF3BF0
077F77F0
0B3FB3E0
0E3FD7E0
1D3FC7D0
2C3F8BD0
343F4BD0
703E0FC0
00000000
00000000
00780000
00FD0000
00780000
ENDCHAR
STARTCHAR uni1E43
ENCODING 7747
SWIDTH 752 0
DWIDTH 15 0
BBX 17 15 -1 -5
BITMAP
0BEF9BE000
0FDBF6F400
1F87E1F400
1F4BD1F400
2F4BC2F400
2F0FC3F000
3E0F83E040
7E1F87E180
7D2F43E600
BD2F01F800
0000000000
0000000000
002D000000
007E000000
002D000000
ENDCHAR
STARTCHAR uni1E44
ENCODING 7748
SWIDTH 668 0
DWIDTH 13 0
BBX 15 19 0 0
BITMAP
00001E00
00003F40
00001E00
00000000
01BE00B4
0BBF00F0
3D7F40E0
74BF81E0
B4FF81D0
B0FFC2C0
75EBD3C0
16D7D380
02D7E780
03C3FB40
0382FB00
0781FF00
0B41FE00
0B00FD00
0F00BD00
ENDCHAR
STARTCHAR uni1E45
ENCODING 7749
SWIDTH 505 0
DWIDTH 10 0
BBX 12 15 -1 0
BITMAP
000B40
001F80
000B40
000000
000000
0BEF80
0FDBD0
1F87E0
1F47D0
2F4BD0
2F0BC0
3E0FC1
7E0F86
7D0FD8
BD07E0
ENDCHAR
STARTCHAR uni1E46
ENCODING 7750
SWIDTH 668 0
DWIDTH 13 0
BBX 15 20 0 -5
BITMAP
01BE00B4
0BBF00F0
3D7F40E0
74BF81E0
B4FF81D0
B0FFC2C0
75EBD3C0
16D7D380
02D7E780
03C3FB40
0382FB00
0781FF00
0B41FE00
0B00FD00
0F00BD00
00000000
00000000
007D0000
00BE0000
007D0000
ENDCHAR
STARTCHAR uni1E47
ENCODING 7751
SWIDTH 505 0
DWIDTH 10 0
BBX 12 15 -1 -5
BITMAP
0BEF80
0FDBD0
1F87E0
1F47D0
2F4BD0
2F0BC0
3E0FC1
7E0F86
7D0FD8
BD07E0
000000
000000
02D000
07F000
02D000
ENDCHAR
STARTCHAR uni1E5A
ENCODING 7770
SWIDTH 601 0
DWIDTH 12 0
BBX 12 20 0 -5
BITMAP
006FE0
07D57C
1E692E
78BD1E
B4BC2D
F0FC3C
B1F9F4
61FFF4
02F5F8
03F0BC
03E0F8
07E1F4
0BD2F0
0BC2F0
0FC2F4
000000
000000
007800
00BD00
007800
ENDCHAR
STARTCHAR uni1E5B
ENCODING 7771
SWIDTH 376 0
DWIDTH 8 0
BBX 9 15 -1 -5
BITMAP
0BDB40
0FEF80
1F8740
1F4000
2F4000
2F0000
3F0000
7E0000
7D0000
BD0000
000000
000000
780000
FC0000
780000
ENDCHAR
STARTCHAR uni1E60
ENCODING 7776
SWIDTH 570 0
DWIDTH 11 0
BBX 11 20 0 0
BITMAP
0002D0
0007F0
0002D0
000000
000000
002FE0
01F978
02F03C
03F07C
02F464
01FD00
00BF00
002FC0
010FE0
1FC7F0
3E03F4
7C02F0
7C03E0
2E5FC0
06F900
ENDCHAR
STARTCHAR uni1E61
ENCODING 7777
SWIDTH 382 0
DWIDTH 8 0
BBX 9 15 -1 0
BITMAP
003D00
00BE00
007D00
000000
005400
01FC00
02FC00
02FC00
09FC00
0CBC00
28BD00
78BD40
A4BE40
65FD00
2FE000
ENDCHAR
STARTCHAR uni1E62
ENCODING 7778
SWIDTH 570 0
DWIDTH 11 0
BBX 11 20 0 -5
BITMAP
002FE0
01F978
02F03C
03F07C
02F464
01FD00
00BF00
002FC0
010FE0
1FC7F0
3E03F4
7C02F0
7C03E0
2E5FC0
06F900
000000
000000
03D000
07E000
03D000
ENDCHAR
STARTCHAR uni1E63
ENCODING 7779
SWIDTH 382 0
DWIDTH 8 0
BBX 9 15 -1 -5
BITMAP
00A800
02FC00
03FC00
06FC00
09BC00
18BD00
78BD00
B8BD80
65FD00
2FE000
000000
000000
2E0000
3F0000
2E0000
ENDCHAR
STARTCHAR uni1E6C
ENCODING 7788
SWIDTH 481 0
DWIDTH 10 0
BBX 15 20 0 -5
BITMAP
01BFA414
1E5FFFF0
381FEFD0
B41F8000
B02F4000
F03F0000
B03F0000
107E0000
00BD0000
00BD0000
00FC0000
00F80000
01F80000
02F40000
02F00000
00000000
00000000
02D00000
07E00000
02D00000
ENDCHAR
STARTCHAR uni1E6D
ENCODING 7789
SWIDTH 267 0
DWIDTH 5 0
BBX 7 18 -1 -5
BITMAP
02E0
07E0
0BD0
1FF4
0FD0
0F80
1F80
2F40
2F00
3F04
3E18
3FF0
1F80
0000
0000
7800
FC00
7800
ENDCHAR
STARTCHAR Wgrave
ENCODING 7808
SWIDTH 962 0
DWIDTH 19 0
BBX 21 20 0 0
BITMAP
000001E00000
000000F00000
000000B00000
000000700000
000000000000
006F00FC0340
07BF01FC0700
2D3F02FC0A00
783F03FC0D00
B03F07FC1C00
B03F0AFC2800
703F0DFC3400
003F1CFC7000
003F28FC9000
003F34FCC000
002F60FD8000
002F90FE4000
002FC0FF0000
002F80FE0000
002F40BD0000
ENDCHAR
STARTCHAR wgrave
ENCODING 7809
SWIDTH 661 0
DWIDTH 13 0
BBX 13 15 0 0
BITMAP
002D0000
001E0000
000E0000
000A0000
00000000
2F0BC780
3F0FC7C0
7E1F81C0
7D1F4180
BD2F4240
BC3F0340
FC3E0A00
F8BE1D00
FFBFF400
7E1F9000
ENDCHAR
STARTCHAR Wacute
ENCODING 7810
SWIDTH 962 0
DWIDTH 19 0
BBX 21 20 0 0
BITMAP
000000024000
0000000B4000
0000001E0000
0000002C0000
000000000000
006F00FC0340
07BF01FC0700
2D3F02FC0A00
783F03FC0D00
B03F07FC1C00
B03F0AFC2800
703F0DFC3400
003F1CFC7000
003F28FC9000
003F34FCC000
002F60FD8000
002F90FE4000
002FC0FF0000
002F80FE0000
002F40BD0000
ENDCHAR
STARTCHAR wacute
ENCODING 7811
SWIDTH 661 0
DWIDTH 13 0
BBX 13 15 0 0
BITMAP
0000B400
0000E000
0002D000
00038000
00000000
2F0BC780
3F0FC7C0
7E1F81C0
7D1F4180
BD2F4240
BC3F0340
FC3E0A00
F8BE1D00
FFBFF400
7E1F9000
ENDCHAR
STARTCHAR Wdieresis
ENCODING 7812
SWIDTH 962 0
DWIDTH 19 0
BBX 21 18 0 0
BITMAP
000007CB4000
000003874000
000000000000
006F00FC0340
07BF01FC0700
2D3F02FC0A00
783F03FC0D00
B03F07FC1C00
B03F0AFC2800
703F0DFC3400
003F1CFC7000
003F28FC9000
003F34FCC000
002F60FD8000
002F90FE4000
002FC0FF0000
002F80FE0000
002F40BD0000
ENDCHAR
STARTCHAR wdieresis
ENCODING 7813
SWIDTH 661 0
DWIDTH 13 0
BBX 13 14 0 0
BITMAP
0078B400
0078B400
00000000
00000000
2F0BC780
3F0FC7C0
7E1F81C0
7D1F4180
BD2F4240
BC3F0340
FC3E0A00
F8BE1D00
FFBFF400
7E1F9000
ENDCHAR
STARTCHAR uni1E8E
ENCODING 7822
SWIDTH 620 0
DWIDTH 12 0
BBX 14 19 0 0
BITMAP
00002E00
00003F00
00002E00
00000000
006F00A0
07BF40D0
2D2F81C0
781F8240
B01FC700
B00FDA00
700BEC00
0007F800
0007F400
0007F000
0007E000
000BE000
000FD000
000FC000
001FC000
ENDCHAR
STARTCHAR uni1E8F
ENCODING 7823
SWIDTH 505 0
DWIDTH 10 0
BBX 11 20 0 -5
BITMAP
007800
00BD00
007800
000000
000000
2F0BC0
3F0FC0
7E1F80
7D1F40
BD2F40
BC3F00
FC3E14
F8BE20
FFFD90
7EBF40
06FC00
19F800
31F400
3BF000
1F8000
ENDCHAR
STARTCHAR uni1E92
ENCODING 7826
SWIDTH 542 0
DWIDTH 11 0
BBX 11 24 0 -5
BITMAP
000078
0000B4
0001D0
000140
07FFF8
0F57F4
1F07E0
040FD0
001F80
003F40
007E00
00FD00
01F800
03F400
0BE000
0FD050
2F80F0
3F55E0
BFFF80
000000
000000
02D000
07E000
02D000
ENDCHAR
STARTCHAR uni1E93
ENCODING 7827
SWIDTH 428 0
DWIDTH 9 0
BBX 9 15 0 -5
BITMAP
0BFF40
2D7E00
2CBC00
01F800
02F000
07D000
0FC000
2F4900
3F5E00
BFF800
000000
000000
2D0000
3F0000
2D0000
ENDCHAR
STARTCHAR uni1E97
ENCODING 7831
SWIDTH 267 0
DWIDTH 5 0
BBX 7 16 0 0
BITMAP
2D78
2D78
0000
0F80
1F80
2F40
7FD0
3F40
3E00
7E00
BD00
BC00
FC10
F860
FFC0
7E00
ENDCHAR
STARTCHAR uni1E9E
ENCODING 7838
SWIDTH 559 0
DWIDTH 11 0
BBX 13 20 -1 -5
BITMAP
001FFF80
00BD7F40
01F87E00
02F4BD00
03F1F800
07E2F400
07D7E000
0BD7E000
0FC1F400
0F80F800
1F80FC00
1F40FC00
2F00F800
3F56F000
3E7F8000
7D000000
BD000000
BC000000
F8000000
50000000
ENDCHAR
STARTCHAR uni1EA0
ENCODING 7840
SWIDTH 668 0
DWIDTH 13 0
BBX 14 20 0 -5
BITMAP
00000BE0
00003FE0
0000EBD0
00038BC0
000B0FC0
001E0F80
1BFE5F80
79B9BF40
B4F02F00
52E03F00
03D07E00
07C07D00
0B80BD00
0F80FC00
1F40F800
1F000000
0F000000
060B8000
000FC000
000B8000
ENDCHAR
STARTCHAR uni1EA1
ENCODING 7841
SWIDTH 526 0
DWIDTH 11 0
BBX 12 15 -1 -5
BITMAP
01BEF4
07E7F4
0FC2F0
2F43F0
3F07E0
3E07D0
7E0BD1
7E1FC2
3FFBFD
1B92E4
000000
000000
02D000
07F000
02D000
ENDCHAR
STARTCHAR uni1EA2
ENCODING 7842
SWIDTH 668 0
DWIDTH 13 0
BBX 15 22 0 -2
BITMAP
000002F4
00000168
00000024
00000190
00000000
00000BE0
00003FE0
0000EBD0
00038BC0
000B0FC0
001E0F80
1BFE5F80
79B9BF40
B4F02F00
52E03F00
03D07E00
07C07D00
0B80BD00
0F40FC00
1F40F800
1F000000
0B400000
ENDCHAR
STARTCHAR uni1EA3
ENCODING 7843
SWIDTH 526 0
DWIDTH 11 0
BBX 12 15 -1 0
BITMAP
0007E0
0001B0
000380
000100
000000
01BEF4
07E7F4
0FC2F0
2F43F0
3F07E0
3E07D0
7E0BD1
7E1FC2
3FFBFD
1B92E4
ENDCHAR
STARTCHAR uni1EA4
ENCODING 7844
SWIDTH 668 0
DWIDTH 13 0
BBX 17 22 0 -2
BITMAP
0000000040
0000001280
000001B600
00000A1800
0000000000
00000BE000
00003FE000
0000EBD000
00038BC000
000B0FC000
001E0F8000
1BFE5F8000
79B9BF4000
B4F02F0000
52E03F0000
03D07E0000
07C07D0000
0B80BD0000
0F40FC0000
1F40F80000
1F00000000
0B40000000
ENDCHAR
STARTCHAR uni1EA5
ENCODING 7845
SWIDTH 526 0
DWIDTH 11 0
BBX 13 18 -1 0
BITMAP
00000140
00000340
00000A00
00018800
0007C000
001D9000
00101000
00000000
01BEF400
07E7F400
0FC2F000
2F43F000
3F07E000
3E07D000
7E0BD100
7E1FC200
3FFBFD00
1B92E400
ENDCHAR
STARTCHAR uni1EA6
ENCODING 7846
SWIDTH 668 0
DWIDTH 13 0
BBX 17 22 0 -2
BITMAP
0000000600
0000002300
000001F240
00000A1800
0000000000
00000BE000
00003FE000
0000EBD000
00038BC000
000B0FC000
001E0F8000
1BFE5F8000
79B9BF4000
B4F02F0000
52E03F0000
03D07E0000
07C07D0000
0B80BD0000
0F40FC0000
1F40F80000
1F00000000
0B40000000
ENDCHAR
STARTCHAR uni1EA7
ENCODING 7847
SWIDTH 526 0
DWIDTH 11 0
BBX 12 17 -1 0
BITMAP
00001D
00000D
00018A
0007C0
001950
001010
000000
01BEF4
07E7F4
0FC2F0
2F43F0
3F07E0
3E07D0
7E0BD1
7E1FC2
3FFBFD
1B92E4
ENDCHAR
STARTCHAR uni1EA8
ENCODING 7848
SWIDTH 668 0
DWIDTH 13 0
BBX 17 22 0 -2
BITMAP
0000000780
00000011C0
000001F7C0
0000076A00
0000000000
00000BE000
00003FE000
0000EBD000
00038BC000
000B0FC000
001E0F8000
1BFE5F8000
79B9BF4000
B4F02F0000
52E03F0000
03D07E0000
07C07D0000
0B80BD0000
0F40FC0000
1F40F80000
1F00000000
0B40000000
ENDCHAR
STARTCHAR uni1EA9
ENCODING 7849
SWIDTH 526 0
DWIDTH 11 0
BBX 13 17 -1 0
BITMAP
00001E00
00000740
00018D00
0007C000
001D9000
00101000
00000000
01BEF400
07E7F400
0FC2F000
2F43F000
3F07E000
3E07D000
7E0BD100
7E1FC200
3FFBFD00
1B92E400
ENDCHAR
STARTCHAR uni1EAA
ENCODING 7850
SWIDTH 668 0
DWIDTH 13 0
BBX 16 22 0 -2
BITMAP
00000054
000001BE
000001F0
00000A18
00000000
00000BE0
00003FE0
0000EBD0
00038BC0
000B0FC0
001E0F80
1BFE5F80
79B9BF40
B4F02F00
52E03F00
03D07E00
07C07D00
0B80BD00
0F40FC00
1F40F800
1F000000
0B400000
ENDCHAR
STARTCHAR uni1EAB
ENCODING 7851
SWIDTH 526 0
DWIDTH 11 0
BBX 12 17 -1 0
BITMAP
0006E8
000000
000180
0007C0
001D90
001010
000000
01BEF4
07E7F4
0FC2F0
2F43F0
3F07E0
3E07D0
7E0BD1
7E1FC2
3FFBFD
1B92E4
ENDCHAR
STARTCHAR uni1EAC
ENCODING 7852
SWIDTH 668 0
DWIDTH 13 0
BBX 15 24 0 -5
BITMAP
00000024
000001F8
0000075C
00000404
00000BE0
00003FE0
0000EBD0
00038BC0
000B0FC0
001E0F80
1BFE5F80
79B9BF40
B4F02F00
52E03F00
03D07E00
07C07D00
0B80BD00
0F80FC00
1F40F800
1F000000
0F000000
060B8000
000FC000
000B8000
ENDCHAR
STARTCHAR uni1EAD
ENCODING 7853
SWIDTH 526 0
DWIDTH 11 0
BBX 12 20 -1 -5
BITMAP
0001C0
0007D0
001EA0
006020
000000
01BEF4
07E7F4
0FC2F0
2F43F0
3F07E0
3E07D0
7E0BD1
7E1FC2
3FFBFD
1B92E4
000000
000000
02D000
07F000
02D000
ENDCHAR
STARTCHAR uni1EAE
ENCODING 7854
SWIDTH 668 0
DWIDTH 13 0
BBX 16 22 0 -2
BITMAP
00000014
00000034
000009A5
00000E1E
000006E4
00000BE0
00003FE0
0000EBD0
00038BC0
000B0FC0
001E0F80
1BFE5F80
79B9BF40
B4F02F00
52E03F00
03D07E00
07C07D00
0B80BD00
0F40FC00
1F40F800
1F000000
0B400000
ENDCHAR
STARTCHAR uni1EAF
ENCODING 7855
SWIDTH 526 0
DWIDTH 11 0
BBX 12 17 -1 0
BITMAP
0000E0
0001C0
000280
007578
002F90
000000
000000
01BEF4
07E7F4
0FC2F0
2F43F0
3F07E0
3E07D0
7E0BD1
7E1FC2
3FFBFD
1B92E4
ENDCHAR
STARTCHAR uni1EB0
ENCODING 7856
SWIDTH 668 0
DWIDTH 13 0
BBX 16 22 0 -2
BITMAP
000001D0
000000D0
00000996
00000E1D
000006E4
00000BE0
00003FE0
0000EBD0
00038BC0
000B0FC0
001E0F80
1BFE5F80
79B9BF40
B4F02F00
52E03F00
03D07E00
07C07D00
0B80BD00
0F40FC00
1F40F800
1F000000
0B400000
ENDCHAR
STARTCHAR uni1EB1
ENCODING 7857
SWIDTH 526 0
DWIDTH 11 0
BBX 12 17 -1 0
BITMAP
000A00
000700
000300
007478
002F90
000000
000000
01BEF4
07E7F4
0FC2F0
2F43F0
3F07E0
3E07D0
7E0BD1
7E1FC2
3FFBFD
1B92E4
ENDCHAR
STARTCHAR uni1EB2
ENCODING 7858
SWIDTH 668 0
DWIDTH 13 0
BBX 16 22 0 -2
BITMAP
000000F0
00000064
000004B5
00000E9A
000007F4
00000BE0
00003FE0
0000EBD0
00038BC0
000B0FC0
001E0F80
1BFE5F80
79B9BF40
B4F02F00
52E03F00
03D07E00
07C07D00
0B80BD00
0F40FC00
1F40F800
1F000000
0B400000
ENDCHAR
STARTCHAR uni1EB3
ENCODING 7859
SWIDTH 526 0
DWIDTH 11 0
BBX 12 17 -1 0
BITMAP
000780
000190
0003C0
007678
002F90
000000
000000
01BEF4
07E7F4
0FC2F0
2F43F0
3F07E0
3E07D0
7E0BD1
7E1FC2
3FFBFD
1B92E4
ENDCHAR
STARTCHAR uni1EB4
ENCODING 7860
SWIDTH 668 0
DWIDTH 13 0
BBX 16 22 0 -2
BITMAP
00000150
000006BD
00000905
00000E1E
000006E4
00000BE0
00003FE0
0000EBD0
00038BC0
000B0FC0
001E0F80
1BFE5F80
79B9BF40
B4F02F00
52E03F00
03D07E00
07C07D00
0B80BD00
0F40FC00
1F40F800
1F000000
0B400000
ENDCHAR
STARTCHAR uni1EB5
ENCODING 7861
SWIDTH 526 0
DWIDTH 11 0
BBX 12 17 -1 0
BITMAP
0007E4
000000
000000
007478
002FD0
000000
000000
01BEF4
07E7F4
0FC2F0
2F43F0
3F07E0
3E07D0
7E0BD1
7E1FC2
3FFBFD
1B92E4
ENDCHAR
STARTCHAR uni1EB6
ENCODING 7862
SWIDTH 668 0
DWIDTH 13 0
BBX 17 24 0 -5
BITMAP
0000180240
00002D0B00
00000BF800
0000000000
00000BE000
00003FE000
0000EBD000
00038BC000
000B0FC000
001E0F8000
1BFE5F8000
79B9BF4000
B4F02F0000
52E03F0000
03D07E0000
07C07D0000
0B80BD0000
0F80FC0000
1F40F80000
1F00000000
0F00000000
060B800000
000FC00000
000B800000
ENDCHAR
STARTCHAR uni1EB7
ENCODING 7863
SWIDTH 526 0
DWIDTH 11 0
BBX 12 20 -1 -5
BITMAP
00F02D
00B03C
0074B4
002F90
000000
01BEF4
07E7F4
0FC2F0
2F43F0
3F07E0
3E07D0
7E0BD1
7E1FC2
3FFBFD
1B92E4
000000
000000
02D000
07F000
02D000
ENDCHAR
STARTCHAR uni1EB8
ENCODING 7864
SWIDTH 459 0
DWIDTH 9 0
BBX 10 20 0 -5
BITMAP
006F80
01F5E0
03E0A0
07D0E0
07D040
03E000
02F800
0BD000
2F8000
7F0000
BE0000
BE0010
BF4180
7FFE00
1BE400
000000
000000
0F4000
1F8000
0F4000
ENDCHAR
STARTCHAR uni1EB9
ENCODING 7865
SWIDTH 384 0
DWIDTH 8 0
BBX 9 15 -1 -5
BITMAP
01BE00
07E740
0F8740
2F4B00
3F6D00
3FE400
7E0000
7E0180
3F5600
1BE400
000000
000000
0F4000
1F8000
0F4000
ENDCHAR
STARTCHAR uni1EBA
ENCODING 7866
SWIDTH 459 0
DWIDTH 9 0
BBX 10 20 0 0
BITMAP
000BD0
0005B0
0000A0
000740
000000
006F80
01F5E0
03E0A0
07D0E0
07D040
03E000
02F800
0BD000
2F8000
7F0000
BE0000
BE0010
BF4180
7FFE00
1BE400
ENDCHAR
STARTCHAR uni1EBB
ENCODING 7867
SWIDTH 384 0
DWIDTH 8 0
BBX 9 15 -1 0
BITMAP
002F40
001740
002900
000000
000000
01BE00
07E740
0F8740
2F4B00
3F6D00
3FE400
7E0000
7E0180
3F5600
1BE400
ENDCHAR
STARTCHAR uni1EBC
ENCODING 7868
SWIDTH 459 0
DWIDTH 9 0
BBX 12 19 0 0
BITMAP
000550
007FFD
000150
000000
006F80
01F5E0
03E0A0
07D0E0
07D040
03E000
02F800
0BD000
2F8000
7F0000
BE0000
BE0010
BF4180
7FFE00
1BE400
ENDCHAR
STARTCHAR uni1EBD
ENCODING 7869
SWIDTH 384 0
DWIDTH 8 0
BBX 10 14 -1 0
BITMAP
01F950
06FFD0
001A00
000000
01BE00
07E740
0F8740
2F4B00
3F6D00
3FE400
7E0000
7E0180
3F5600
1BE400
ENDCHAR
STARTCHAR uni1EBE
ENCODING 7870
SWIDTH 459 0
DWIDTH 9 0
BBX 12 20 0 0
BITMAP
000007
0001CD
000A94
001410
000000
006F80
01F5E0
03E0A0
07D0E0
07D040
03E000
02F800
0BD000
2F8000
7F0000
BE0000
BE0010
BF4180
7FFE00
1BE400
ENDCHAR
STARTCHAR uni1EBF
ENCODING 7871
SWIDTH 384 0
DWIDTH 8 0
BBX 12 18 -1 0
BITMAP
000005
00000E
000028
000620
001F00
007640
008040
000000
01BE00
07E740
0F8740
2F4B00
3F6D00
3FE400
7E0000
7E0180
3F5600
1BE400
ENDCHAR
STARTCHAR uni1EC0
ENCODING 7872
SWIDTH 459 0
DWIDTH 9 0
BBX 12 20 0 0
BITMAP
00001C
00018C
0007D9
002860
000000
006F80
01F5E0
03E0A0
07D0E0
07D040
03E000
02F800
0BD000
2F8000
7F0000
BE0000
BE0010
BF4180
7FFE00
1BE400
ENDCHAR
STARTCHAR uni1EC1
ENCODING 7873
SWIDTH 384 0
DWIDTH 8 0
BBX 11 17 -1 0
BITMAP
000074
000034
000628
001F00
006540
004040
000000
01BE00
07E740
0F8740
2F4B00
3F6D00
3FE400
7E0000
7E0180
3F5600
1BE400
ENDCHAR
STARTCHAR uni1EC2
ENCODING 7874
SWIDTH 459 0
DWIDTH 9 0
BBX 13 20 0 0
BITMAP
00000F40
00018F40
00069800
00145000
00000000
006F8000
01F5E000
03E0A000
07D0E000
07D04000
03E00000
02F80000
0BD00000
2F800000
7F000000
BE000000
BE001000
BF418000
7FFE0000
1BE40000
ENDCHAR
STARTCHAR uni1EC3
ENCODING 7875
SWIDTH 384 0
DWIDTH 8 0
BBX 11 17 -1 0
BITMAP
0000B8
00005C
000664
001F40
007640
004040
000000
01BE00
07E740
0F8740
2F4B00
3F6D00
3FE400
7E0000
7E0180
3F5600
1BE400
ENDCHAR
STARTCHAR uni1EC4
ENCODING 7876
SWIDTH 459 0
DWIDTH 9 0
BBX 11 20 0 0
BITMAP
0007E8
0002D0
000A90
001410
000000
006F80
01F5E0
03E0A0
07D0E0
07D040
03E000
02F800
0BD000
2F8000
7F0000
BE0000
BE0010
BF4180
7FFE00
1BE400
ENDCHAR
STARTCHAR uni1EC5
ENCODING 7877
SWIDTH 384 0
DWIDTH 8 0
BBX 10 17 -1 0
BITMAP
001BA0
000000
000600
001F00
007640
004040
000000
01BE00
07E740
0F8740
2F4B00
3F6D00
3FE400
7E0000
7E0180
3F5600
1BE400
ENDCHAR
STARTCHAR uni1EC6
ENCODING 7878
SWIDTH 459 0
DWIDTH 9 0
BBX 10 24 0 -5
BITMAP
0001C0
000BD0
0029A0
005010
006F80
01F5E0
03E0A0
07D0E0
07D040
03E000
02F800
0BD000
2F8000
7F0000
BE0000
BE0010
BF4180
7FFE00
1BE400
000000
000000
0F4000
1F8000
0F4000
ENDCHAR
STARTCHAR uni1EC7
ENCODING 7879
SWIDTH 384 0
DWIDTH 8 0
BBX 9 20 -1 -5
BITMAP
000700
001F40
007A80
018080
000000
01BE00
07E740
0F8740
2F4B00
3F6D00
3FE400
7E0000
7E0180
3F5600
1BE400
000000
000000
0F4000
1F8000
0F4000
ENDCHAR
STARTCHAR uni1EC8
ENCODING 7880
SWIDTH 375 0
DWIDTH 8 0
BBX 9 20 0 0
BITMAP
001F80
0016C0
000180
000D00
000400
006E00
07BE00
2D7D00
78BD00
B0FC00
B0F800
71F800
02F400
02F000
03F000
03E000
07E000
0BD000
0BC000
0FC000
ENDCHAR
STARTCHAR uni1EC9
ENCODING 7881
SWIDTH 267 0
DWIDTH 5 0
BBX 6 15 0 0
BITMAP
0BD0
05E0
0A40
0000
0000
2F00
3F00
7E00
7D00
BD00
BC00
FC10
F860
FFC0
7E00
ENDCHAR
STARTCHAR uni1ECA
ENCODING 7882
SWIDTH 375 0
DWIDTH 8 0
BBX 8 20 0 -5
BITMAP
006E
07BE
2D7D
78BD
B0FC
B0F8
71F8
02F4
02F0
03F0
03E0
07E0
0BD0
0BC0
0FC0
0000
0000
1E00
2F40
1E00
ENDCHAR
STARTCHAR uni1ECB
ENCODING 7883
SWIDTH 267 0
DWIDTH 5 0
BBX 7 19 -1 -5
BITMAP
02D0
07F0
02D0
0000
0BC0
0FC0
1F80
1F40
2F40
2F00
3F04
3E18
3FF0
1F80
0000
0000
7800
FC00
7800
ENDCHAR
STARTCHAR uni1ECC
ENCODING 7884
SWIDTH 665 0
DWIDTH 13 0
BBX 13 20 0 -5
BITMAP
006BF800
02E56F00
1F5B4F80
3C7D0BC0
B4F80BC0
B6F40BC0
77F00BC0
07E00FC0
0BD00F80
0BD02F40
0BD03F00
0BC07D00
0BD1F800
07FBE000
01BE4000
00000000
00000000
00B40000
01F80000
00B40000
ENDCHAR
STARTCHAR uni1ECD
ENCODING 7885
SWIDTH 433 0
DWIDTH 9 0
BBX 12 15 -1 -5
BITMAP
01BE00
07E740
0F8782
2F4BE8
3F0780
7E0740
7E0B00
7E0E00
3F6800
1BE000
000000
000000
0F4000
1F8000
0F4000
ENDCHAR
STARTCHAR uni1ECE
ENCODING 7886
SWIDTH 665 0
DWIDTH 13 0
BBX 13 20 0 0
BITMAP
0000BD00
00005E00
00000900
00006000
00000000
006BF800
02E56F00
1F5B4F80
3C7D0BC0
B4F80BC0
B6F40BC0
77F00BC0
07E00FC0
0BD00F80
0BD02F40
0BD03F00
0BC07D00
0BD1F800
07FBE000
01BE4000
ENDCHAR
STARTCHAR uni1ECF
ENCODING 7887
SWIDTH 433 0
DWIDTH 9 0
BBX 12 15 -1 0
BITMAP
002F80
0016C0
000D00
000000
000000
01BE00
07E740
0F8782
2F4BE8
3F0780
7E0740
7E0B00
7E0E00
3F6800
1BE000
ENDCHAR
STARTCHAR uni1ED0
ENCODING 7888
SWIDTH 665 0
DWIDTH 13 0
BBX 14 20 0 0
BITMAP
000000A0
000028C0
0000BE40
00024900
00000000
006BF800
02E56F00
1F5B4F80
3C7D0BC0
B4F80BC0
B6F40BC0
77F00BC0
07E00FC0
0BD00F80
0BD02F40
0BD03F00
0BC07D00
0BD1F800
07FBE000
01BE4000
ENDCHAR
STARTCHAR uni1ED1
ENCODING 7889
SWIDTH 433 0
DWIDTH 9 0
BBX 12 18 -1 0
BITMAP
000005
00000E
000028
000620
001F00
007640
008040
000000
01BE00
07E740
0F8782
2F4BE8
3F0780
7E0740
7E0B00
7E0E00
3F6800
1BE000
ENDCHAR
STARTCHAR uni1ED2
ENCODING 7890
SWIDTH 665 0
DWIDTH 13 0
BBX 13 20 0 0
BITMAP
00000280
00001580
0000B8C0
00028900
00000000
006BF800
02E56F00
1F5B4F80
3C7D0BC0
B4F80BC0
B6F40BC0
77F00BC0
07E00FC0
0BD00F80
0BD02F40
0BD03F00
0BC07D00
0BD1F800
07FBE000
01BE4000
ENDCHAR
STARTCHAR uni1ED3
ENCODING 7891
SWIDTH 433 0
DWIDTH 9 0
BBX 12 17 -1 0
BITMAP
000074
000034
000628
001F00
006540
004040
000000
01BE00
07E740
0F8782
2F4BE8
3F0780
7E0740
7E0B00
7E0E00
3F6800
1BE000
ENDCHAR
STARTCHAR uni1ED4
ENCODING 7892
SWIDTH 665 0
DWIDTH 13 0
BBX 14 20 0 0
BITMAP
000001E0
00001470
000078E0
00029D80
00000000
006BF800
02E56F00
1F5B4F80
3C7D0BC0
B4F80BC0
B6F40BC0
77F00BC0
07E00FC0
0BD00F80
0BD02F40
0BD03F00
0BC07D00
0BD1F800
07FBE000
01BE4000
ENDCHAR
STARTCHAR uni1ED5
ENCODING 7893
SWIDTH 433 0
DWIDTH 9 0
BBX 12 17 -1 0
BITMAP
000078
00001C
00063C
001F20
007A40
009040
000000
01BE00
07E740
0F8782
2F4BE8
3F0780
7E0740
7E0B00
7E0E00
3F6800
1BE000
ENDCHAR
STARTCHAR uni1ED6
ENCODING 7894
SWIDTH 665 0
DWIDTH 13 0
BBX 13 20 0 0
BITMAP
0000BE80
0001BE40
00007800
00024900
00000000
006BF800
02E56F00
1F5B4F80
3C7D0BC0
B4F80BC0
B6F40BC0
77F00BC0
07E00FC0
0BD00F80
0BD02F40
0BD03F00
0BC07D00
0BD1F800
07FBE000
01BE4000
ENDCHAR
STARTCHAR uni1ED7
ENCODING 7895
SWIDTH 433 0
DWIDTH 9 0
BBX 12 17 -1 0
BITMAP
001FA0
000140
000600
001F00
007640
004040
000000
01BE00
07E740
0F8782
2F4BE8
3F0780
7E0740
7E0B00
7E0E00
3F6800
1BE000
ENDCHAR
STARTCHAR uni1ED8
ENCODING 7896
SWIDTH 665 0
DWIDTH 13 0
BBX 13 24 0 -5
BITMAP
00002400
0001F800
00075C00
00040400
006BF800
02E56F00
1F5B4F80
3C7D0BC0
B4F80BC0
B6F40BC0
77F00BC0
07E00FC0
0BD00F80
0BD02F40
0BD03F00
0BC07D00
0BD1F800
07FBE000
01BE4000
00000000
00000000
00B40000
01F80000
00B40000
ENDCHAR
STARTCHAR uni1ED9
ENCODING 7897
SWIDTH 433 0
DWIDTH 9 0
BBX 12 20 -1 -5
BITMAP
000600
001F00
00BB40
028180
000000
01BE00
07E740
0F8782
2F4BE8
3F0780
7E0740
7E0B00
7E0E00
3F6800
1BE000
000000
000000
0F4000
1F8000
0F4000
ENDCHAR
STARTCHAR uni1EDA
ENCODING 7898
SWIDTH 665 0
DWIDTH 13 0
BBX 15 20 0 0
BITMAP
00001E00
00003C00
00007410
0000A074
00000074
006BF8A0
02E56FD0
1F5B4F80
3C7D0BC0
B4F80BC0
B6F40BC0
77F00BC0
07E00FC0
0BD00F80
0BD02F40
0BD03F00
0BC07D00
0BD1F800
07FBE000
01BE4000
ENDCHAR
STARTCHAR uni1EDB
ENCODING 7899
SWIDTH 439 0
DWIDTH 9 0
BBX 11 15 -1 0
BITMAP
0003C0
000B40
000E24
001C38
000034
00BEB0
07E7C0
0FC380
2F4380
3F0380
3E0780
7E0B40
3F1E00
2FF800
0BE000
ENDCHAR
STARTCHAR uni1EDC
ENCODING 7900
SWIDTH 665 0
DWIDTH 13 0
BBX 15 20 0 0
BITMAP
000B4000
000B4000
00078010
00038074
00000074
006BF8A0
02E56FD0
1F5B4F80
3C7D0BC0
B4F80BC0
B6F40BC0
77F00BC0
07E00FC0
0BD00F80
0BD02F40
0BD03F00
0BC07D00
0BD1F800
07FBE000
01BE4000
ENDCHAR
STARTCHAR uni1EDD
ENCODING 7901
SWIDTH 439 0
DWIDTH 9 0
BBX 11 15 -1 0
BITMAP
007800
003C00
002C24
001D38
000034
00BEB0
07E7C0
0FC380
2F4380
3F0380
3E0780
7E0B40
3F1E00
2FF800
0BE000
ENDCHAR
STARTCHAR uni1EDE
ENCODING 7902
SWIDTH 665 0
DWIDTH 13 0
BBX 15 20 0 0
BITMAP
0000BD00
00005E00
00000900
00006074
00000074
006BF8B0
02E56FD0
1F5B4F80
3C7D0BC0
B4F80BC0
B6F40BC0
77F00BC0
07E00FC0
0BD00F80
0BD02F40
0BD03F00
0BC07D00
0BD1F800
07FBE000
01BE4000
ENDCHAR
STARTCHAR uni1EDF
ENCODING 7903
SWIDTH 439 0
DWIDTH 9 0
BBX 11 15 -1 0
BITMAP
002F80
0016C0
000D38
000038
000034
00BEB0
07E7C0
0FC380
2F4380
3F0380
3E0780
7E0B40
3F1E00
2FF800
0BE000
ENDCHAR
STARTCHAR uni1EE0
ENCODING 7904
SWIDTH 665 0
DWIDTH 13 0
BBX 15 19 0 0
BITMAP
00055000
001FFD10
0012F474
00000074
006BF8A0
02E56FD0
1F5B4F80
3C7D0BC0
B4F80BC0
B6F40BC0
77F00BC0
07E00FC0
0BD00F80
0BD02F40
0BD03F00
0BC07D00
0BD1F800
07FBE000
01BE4000
ENDCHAR
STARTCHAR uni1EE1
ENCODING 7905
SWIDTH 439 0
DWIDTH 9 0
BBX 11 14 -1 0
BITMAP
01F940
02FE38
001838
000034
00BEA0
07E7C0
0FC380
2F4380
3F0380
3E0780
7E0B40
3F1E00
2FF800
0BE000
ENDCHAR
STARTCHAR uni1EE2
ENCODING 7906
SWIDTH 665 0
DWIDTH 13 0
BBX 15 22 0 -5
BITMAP
00000074
00000074
006BF8B0
02E56FD0
1F5B4F80
3C7D0BC0
B4F80BC0
B6F40BC0
77F00BC0
07E00FC0
0BD00F80
0BD02F40
0BD03F00
0BC07D00
0BD1F800
07FBE000
01BE4000
00000000
00000000
00B40000
01F80000
00B40000
ENDCHAR
STARTCHAR uni1EE3
ENCODING 7907
SWIDTH 439 0
DWIDTH 9 0
BBX 11 17 -1 -5
BITMAP
000038
000038
00BEB0
07E7D0
0FC380
2F4380
3F0380
3E0780
7E0B40
3F1E00
2FF800
0BE000
000000
000000
0F4000
1F8000
0F4000
ENDCHAR
STARTCHAR uni1EE4
ENCODING 7908
SWIDTH 716 0
DWIDTH 14 0
BBX 15 20 0 -5
BITMAP
006F40BC
0BBF00F8
2D3E01F8
B47E01F4
F0BD02F0
E0BC03F0
B0F803E0
01F407E0
02F00BD0
02F00FC0
03E01F80
03E02F40
03F07E00
02FFFC00
00BF9000
00000000
00000000
002D0000
007E0000
002D0000
ENDCHAR
STARTCHAR uni1EE5
ENCODING 7909
SWIDTH 505 0
DWIDTH 10 0
BBX 11 15 0 -5
BITMAP
2F0BC0
3F0FC0
7E1F80
7D1F40
BD2F40
BC3F00
FC3E08
F8BE24
FFBFE0
7E1F80
000000
000000
0B4000
1F8000
0B4000
ENDCHAR
STARTCHAR uni1EE6
ENCODING 7910
SWIDTH 716 0
DWIDTH 14 0
BBX 15 20 0 0
BITMAP
00001F80
000016C0
00000180
00000D00
00000400
006F40BC
0BBF00F8
2D3E01F8
B47E01F4
F0BD02F0
E0BC03F0
B0F803E0
01F407E0
02F00BD0
02F00FC0
03E01F80
03E02F40
03F07E00
02FFFC00
00BF9000
ENDCHAR
STARTCHAR uni1EE7
ENCODING 7911
SWIDTH 505 0
DWIDTH 10 0
BBX 11 15 0 0
BITMAP
00BD00
005A00
007400
000000
000000
2F0BC0
3F0FC0
7E1F80
7D1F40
BD2F40
BC3F00
FC3E08
F8BE24
FFBFE0
7E1F80
ENDCHAR
STARTCHAR uni1EE8
ENCODING 7912
SWIDTH 716 0
DWIDTH 14 0
BBX 18 20 0 0
BITMAP
000002E000
000003C040
00000741D0
00000E02D0
0000000380
006F40BE00
0BBF00FC00
2D3E01F800
B47E01F400
F0BD02F400
E0BC03F000
B0F803E000
01F407E000
02F00BD000
02F00FC000
03E01F8000
03E02F4000
03F07E0000
02FFFC0000
00BF900000
ENDCHAR
STARTCHAR uni1EE9
ENCODING 7913
SWIDTH 505 0
DWIDTH 10 0
BBX 11 15 0 0
BITMAP
000B40
000E04
002C2C
002438
000074
2F0BD0
3F0FC0
7E1F80
7D1F40
BD2F40
BC3F00
FC3E08
F8BE24
FFBFE0
7E1F80
ENDCHAR
STARTCHAR uni1EEA
ENCODING 7914
SWIDTH 716 0
DWIDTH 14 0
BBX 18 20 0 0
BITMAP
0000B40000
0000740040
00003801D0
00003802D0
0000000380
006F40BE00
0BBF00F800
2D3E01F800
B47E01F400
F0BD02F400
E0BC03F000
B0F803E000
01F407E000
02F00BD000
02F00FC000
03E01F8000
03E02F4000
03F07E0000
02FFFC0000
00BF900000
ENDCHAR
STARTCHAR uni1EEB
ENCODING 7915
SWIDTH 505 0
DWIDTH 10 0
BBX 11 15 0 0
BITMAP
00F000
00F000
00B02C
007438
000074
2F0BD0
3F0FC0
7E1F80
7D1F40
BD2F40
BC3F00
FC3E08
F8BE24
FFBFE0
7E1F80
ENDCHAR
STARTCHAR uni1EEC
ENCODING 7916
SWIDTH 716 0
DWIDTH 14 0
BBX 18 20 0 0
BITMAP
00001F8000
000016C040
00000181D0
00000D02D0
0000040380
006F40BF00
0BBF00FC00
2D3E01F800
B47E01F400
F0BD02F400
E0BC03F000
B0F803E000
01F407E000
02F00BD000
02F00FC000
03E01F8000
03E02F4000
03F07E0000
02FFFC0000
00BF900000
ENDCHAR
STARTCHAR uni1EED
ENCODING 7917
SWIDTH 505 0
DWIDTH 10 0
BBX 11 15 0 0
BITMAP
00BD00
005A00
00742C
000038
000074
2F0BD0
3F0FC0
7E1F80
7D1F40
BD2F40
BC3F00
FC3E08
F8BE24
FFBFE0
7E1F80
ENDCHAR
STARTCHAR uni1EEE
ENCODING 7918
SWIDTH 716 0
DWIDTH 14 0
BBX 18 19 0 0
BITMAP
0000150140
0001FFF5D0
00011B92D0
0000000380
006F40BE00
0BBF00FC00
2D3E01F800
B47E01F400
F0BD02F400
E0BC03F000
B0F803E000
01F407E000
02F00BD000
02F00FC000
03E01F8000
03E02F4000
03F07E0000
02FFFC0000
00BF900000
ENDCHAR
STARTCHAR uni1EEF
ENCODING 7919
SWIDTH 505 0
DWIDTH 10 0
BBX 11 14 0 0
BITMAP
01F514
06FE2C
001438
000070
2F0BD0
3F0F80
7E1F80
7D1F40
BD2F40
BC3F00
FC3E08
F8BE24
FFBFE0
7E1F80
ENDCHAR
STARTCHAR uni1EF0
ENCODING 7920
SWIDTH 716 0
DWIDTH 14 0
BBX 18 23 0 -5
BITMAP
00000001D0
00000002D0
00000003C0
006F40BF40
0BBF00FD00
2D3E01F800
B47E01F400
F0BD02F400
E0BC03F000
B0F803E000
01F407E000
02F00BD000
02F00FC000
03E01F8000
03E02F4000
03F07E0000
02FFFC0000
00BF900000
0000000000
0000000000
002D000000
007E000000
002D000000
ENDCHAR
STARTCHAR uni1EF1
ENCODING 7921
SWIDTH 505 0
DWIDTH 10 0
BBX 11 18 0 -5
BITMAP
000014
00002C
000038
2F0BF0
3F0FC0
7E1F80
7D1F40
BD2F40
BC3F00
FC3E08
F8BE24
FFBFE0
7E1F80
000000
000000
0B4000
1F8000
0B4000
ENDCHAR
STARTCHAR Ygrave
ENCODING 7922
SWIDTH 620 0
DWIDTH 12 0
BBX 14 20 0 0
BITMAP
00007800
00003800
00002C00
00002C00
00000000
006F00A0
07BF40D0
2D2F81C0
781F8240
B01FC700
B00FDA00
700BEC00
0007F800
0007F400
0007F000
0007E000
000BE000
000FD000
000FC000
001FC000
ENDCHAR
STARTCHAR ygrave
ENCODING 7923
SWIDTH 505 0
DWIDTH 10 0
BBX 11 20 0 -5
BITMAP
01E000
00F000
00B000
007400
000000
2F0BC0
3F0FC0
7E1F80
7D1F40
BD2F40
BC3F00
FC3E14
F8BE20
FFFD90
7EBF40
06FC00
19F800
31F400
3BF000
1F8000
ENDCHAR
STARTCHAR uni1EF4
ENCODING 7924
SWIDTH 620 0
DWIDTH 12 0
BBX 14 20 0 -5
BITMAP
006F00A0
07BF40D0
2D2F81C0
781F8240
B01FC700
B00FDA00
700BEC00
0007F800
0007F400
0007F000
0007E000
000BE000
000FD000
000FC000
001FC000
00000000
00000000
002E0000
003F0000
002E0000
ENDCHAR
STARTCHAR uni1EF5
ENCODING 7925
SWIDTH 505 0
DWIDTH 10 0
BBX 11 15 0 -5
BITMAP
2F0BC0
3F0FC0
7E1F80
7D1F40
BD2F40
BC3F00
FC3E14
F8BE20
FFFD90
7EBF40
06FC00
19F800
31F580
3BF3E0
1F82D0
ENDCHAR
STARTCHAR uni1EF6
ENCODING 7926
SWIDTH 620 0
DWIDTH 12 0
BBX 14 20 0 0
BITMAP
00001F80
000016C0
00000180
00000D00
00000400
006F00A0
07BF40D0
2D2F81C0
781F8240
B01FC700
B00FDA00
700BEC00
0007F800
0007F400
0007F000
0007E000
000BE000
000FD000
000FC000
001FC000
ENDCHAR
STARTCHAR uni1EF7
ENCODING 7927
SWIDTH 505 0
DWIDTH 10 0
BBX 11 20 0 -5
BITMAP
00BD00
005E00
000900
006400
000000
2F0BC0
3F0FC0
7E1F80
7D1F40
BD2F40
BC3F00
FC3E14
F8BE20
FFFD90
7EBF40
06FC00
19F800
31F400
3BF000
1F8000
ENDCHAR
STARTCHAR uni1EF8
ENCODING 7928
SWIDTH 620 0
DWIDTH 12 0
BBX 14 19 0 0
BITMAP
00005400
0003FFA0
00046F80
00000000
006F00A0
07BF40D0
2D2F81C0
781F8240
B01FC700
B00FDA00
700BEC00
0007F800
0007F400
0007F000
0007E000
000BE000
000FD000
000FC000
001FC000
ENDCHAR
STARTCHAR uni1EF9
ENCODING 7929
SWIDTH 505 0
DWIDTH 10 0
BBX 11 19 0 -5
BITMAP
02F950
0AFF80
001500
000000
2F0BC0
3F0FC0
7E1F80
7D1F40
BD2F40
BC3F00
FC3E14
F8BE20
FFFD90
7EBF40
06FC00
19F800
31F400
3BF000
1F8000
ENDCHAR
STARTCHAR uni2010
ENCODING 8208
SWIDTH 290 0
DWIDTH 6 0
BBX 5 2 0 4
BITMAP
7F80
1500
ENDCHAR
STARTCHAR endash
ENCODING 8211
SWIDTH 352 0
DWIDTH 7 0
BBX 6 2 0 4
BITMAP
7FE0
1540
ENDCHAR
STARTCHAR emdash
ENCODING 8212
SWIDTH 444 0
DWIDTH 9 0
BBX 8 2 0 4
BITMAP
7FFE
1554
ENDCHAR
STARTCHAR quoteleft
ENCODING 8216
SWIDTH 209 0
DWIDTH 4 0
BBX 3 5 2 10
BITMAP
04
60
B0
F8
B4
ENDCHAR
STARTCHAR quoteright
ENCODING 8217
SWIDTH 238 0
DWIDTH 5 0
BBX 3 5 2 10
BITMAP
B4
F8
B4
60
40
ENDCHAR
STARTCHAR quotesinglbase
ENCODING 8218
SWIDTH 220 0
DWIDTH 4 0
BBX 3 5 0 -2
BITMAP
B4
F4
B4
60
40
ENDCHAR
STARTCHAR quotedblleft
ENCODING 8220
SWIDTH 429 0
DWIDTH 9 0
BBX 7 5 2 10
BITMAP
0414
6060
B0E0
F9F4
B4B4
ENDCHAR
STARTCHAR quotedblright
ENCODING 8221
SWIDTH 426 0
DWIDTH 9 0
BBX 7 5 2 10
BITMAP
78B4
BCF8
7874
2060
4040
ENDCHAR
STARTCHAR quotedblbase
ENCODING 8222
SWIDTH 440 0
DWIDTH 9 0
BBX 7 5 0 -2
BITMAP
B4F0
F5F4
B4B0
6090
4040
ENDCHAR
STARTCHAR dagger
ENCODING 8224
SWIDTH 495 0
DWIDTH 10 0
BBX 8 20 1 -5
BITMAP
0034
0074
0070
00B0
00A0
00D0
15D5
7FFF
BFFF
0280
0340
0740
0700
0A00
0E00
0D00
1C00
2C00
2800
3400
ENDCHAR
STARTCHAR daggerdbl
ENCODING 8225
SWIDTH 495 0
DWIDTH 10 0
BBX 9 20 0 -5
BITMAP
000D00
001D00
001C00
002C00
002800
003400
057540
1FFFC0
2FFFC0
00A000
00D000
3FFF40
7FFF00
028000
038000
034000
070000
0B0000
0A0000
0D0000
ENDCHAR
STARTCHAR bullet
ENCODING 8226
SWIDTH 434 0
DWIDTH 9 0
BBX 4 4 2 3
BITMAP
2E
7F
7F
2E
ENDCHAR
STARTCHAR ellipsis
ENCODING 8230
SWIDTH 702 0
DWIDTH 14 0
BBX 14 3 0 0
BITMAP
2D1F0780
7E2F4BD0
2D1F0780
ENDCHAR
STARTCHAR perthousand
ENCODING 8240
SWIDTH 1175 0
DWIDTH 24 0
BBX 23 15 1 0
BITMAP
0BD00B000000
2DB00D000000
787428000000
B47474000000
F0B4A0000000
F0B1C0000000
F0E380000000
B2C707E00BD0
7F4D1E742DB0
002C3C3874B4
00347478F0B4
00A0B474F0B0
01D0B4B0E0E0
02807AD0F6C0
07002F407E00
ENDCHAR
STARTCHAR minute
ENCODING 8242
SWIDTH 196 0
DWIDTH 4 0
BBX 4 5 1 10
BITMAP
1E
2D
38
74
60
ENDCHAR
STARTCHAR second
ENCODING 8243
SWIDTH 341 0
DWIDTH 7 0
BBX 7 5 1 10
BITMAP
1E78
2DB0
38E0
75C0
6280
ENDCHAR
STARTCHAR guilsinglleft
ENCODING 8249
SWIDTH 359 0
DWIDTH 7 0
BBX 7 7 0 2
BITMAP
0014
01A0
0B40
7400
7800
0B40
0190
ENDCHAR
STARTCHAR guilsinglright
ENCODING 8250
SWIDTH 344 0
DWIDTH 7 0
BBX 7 7 0 2
BITMAP
1400
0A00
02D0
0074
01B4
1B40
6400
ENDCHAR
STARTCHAR fraction
ENCODING 8260
SWIDTH 248 0
DWIDTH 5 0
BBX 10 15 -2 0
BITMAP
0000D0
0002C0
000340
000A00
001D00
002800
007400
00E000
01C000
034000
0B0000
0D0000
280000
740000
A00000
ENDCHAR
STARTCHAR uni2052
ENCODING 8274
SWIDTH 796 0
DWIDTH 16 0
BBX 10 15 3 0
BITMAP
B800B0
FC00D0
B80280
000740
000A00
001C00
003800
007000
00D000
02C000
034000
0A0000
1D02D0
2803F0
7002E0
ENDCHAR
STARTCHAR uni2070
ENCODING 8304
SWIDTH 379 0
DWIDTH 8 0
BBX 7 9 1 6
BITMAP
0BD0
2DB0
7874
B474
F0B4
F0B0
F0E0
B2C0
7F40
ENDCHAR
STARTCHAR uni2074
ENCODING 8308
SWIDTH 352 0
DWIDTH 7 0
BBX 6 8 1 7
BITMAP
2CA0
2DE0
29D0
72C0
BFD0
0380
0740
0B40
ENDCHAR
STARTCHAR uni2075
ENCODING 8309
SWIDTH 335 0
DWIDTH 7 0
BBX 6 9 1 6
BITMAP
1FD0
2400
3000
3F80
17D0
72D0
E2D0
D780
7E00
ENDCHAR
STARTCHAR uni2076
ENCODING 8310
SWIDTH 351 0
DWIDTH 7 0
BBX 6 9 1 6
BITMAP
07D0
2EA0
7860
B400
F780
F9D0
E0D0
B2C0
7F40
ENDCHAR
STARTCHAR uni2077
ENCODING 8311
SWIDTH 329 0
DWIDTH 7 0
BBX 6 8 1 7
BITMAP
BFD0
9680
0700
0D00
3800
7400
B000
B000
ENDCHAR
STARTCHAR uni2078
ENCODING 8312
SWIDTH 354 0
DWIDTH 7 0
BBX 6 9 1 6
BITMAP
0BD0
2DA0
2CA0
1E80
1F80
76D0
E1E0
E2D0
7F80
ENDCHAR
STARTCHAR uni2079
ENCODING 8313
SWIDTH 345 0
DWIDTH 7 0
BBX 6 9 1 6
BITMAP
1F80
76D0
A0E0
A1E0
7DE0
01D0
42C0
D740
6800
ENDCHAR
STARTCHAR uni2080
ENCODING 8320
SWIDTH 379 0
DWIDTH 8 0
BBX 7 8 1 0
BITMAP
0BD0
2DB0
7874
B0B4
F0B0
F0E0
B6D0
7E40
ENDCHAR
STARTCHAR uni2081
ENCODING 8321
SWIDTH 229 0
DWIDTH 5 0
BBX 4 9 1 0
BITMAP
19
FC
2C
38
78
74
B0
B0
E0
ENDCHAR
STARTCHAR uni2082
ENCODING 8322
SWIDTH 328 0
DWIDTH 7 0
BBX 6 8 1 0
BITMAP
1F80
36D0
32D0
0380
0A00
2400
A540
FF80
ENDCHAR
STARTCHAR uni2083
ENCODING 8323
SWIDTH 336 0
DWIDTH 7 0
BBX 6 8 1 0
BITMAP
1B80
39D0
39D0
0640
0380
A2D0
D2C0
6A40
ENDCHAR
STARTCHAR uni2084
ENCODING 8324
SWIDTH 352 0
DWIDTH 7 0
BBX 6 8 1 0
BITMAP
2CA0
2DE0
29D0
72C0
BFD0
0380
0740
0B40
ENDCHAR
STARTCHAR uni2085
ENCODING 8325
SWIDTH 335 0
DWIDTH 7 0
BBX 6 8 1 0
BITMAP
2FD0
2400
3000
7F80
B2D0
E2D0
E7C0
7E00
ENDCHAR
STARTCHAR uni2086
ENCODING 8326
SWIDTH 351 0
DWIDTH 7 0
BBX 6 8 1 0
BITMAP
0BD0
2DA0
7800
BB80
F9D0
E0D0
B6C0
7E00
ENDCHAR
STARTCHAR uni2087
ENCODING 8327
SWIDTH 329 0
DWIDTH 7 0
BBX 6 8 1 0
BITMAP
BFD0
5680
0600
1D00
3800
B400
B000
B000
ENDCHAR
STARTCHAR uni2088
ENCODING 8328
SWIDTH 354 0
DWIDTH 7 0
BBX 6 8 1 0
BITMAP
0BD0
2DA0
2CA0
0F80
67C0
E1E0
F6D0
6F40
ENDCHAR
STARTCHAR uni2089
ENCODING 8329
SWIDTH 345 0
DWIDTH 7 0
BBX 6 8 1 0
BITMAP
1F80
76D0
A0E0
A1E0
7ED0
02C0
9340
A900
ENDCHAR
STARTCHAR colonmonetary
ENCODING 8353
SWIDTH 384 0
DWIDTH 8 0
BBX 9 15 0 -1
BITMAP
009600
009900
01FE00
0B9B40
1E0B40
3C0B00
B80000
B80000
B80000
B80000
7D1800
2FF800
19D000
258000
264000
ENDCHAR
STARTCHAR franc
ENCODING 8355
SWIDTH 529 0
DWIDTH 11 0
BBX 12 15 0 0
BITMAP
007FFD
00BE40
00BD00
00BC00
00FC00
00F800
01FFD0
02F500
02F000
03F000
07E000
BFFF00
1BD500
0FC000
0F8000
ENDCHAR
STARTCHAR lira
ENCODING 8356
SWIDTH 455 0
DWIDTH 9 0
BBX 11 15 0 0
BITMAP
001BD0
007DF4
00F8B4
01F4A0
02F000
03E000
3FFF40
1BD500
7FFF00
1FD400
0F8000
1F0000
2FE560
7FFFE0
506F80
ENDCHAR
STARTCHAR uni20A6
ENCODING 8358
SWIDTH 723 0
DWIDTH 14 0
BBX 16 15 0 0
BITMAP
003E00B4
007F00B0
007F40F0
00BF41E0
00BF81D0
00FF82D0
01EFC3C0
3FFFFFFD
02D7D780
BFFFFFFC
1797FB50
0782FF00
0B41FE00
0F00FD00
0E00FC00
ENDCHAR
STARTCHAR uni20A9
ENCODING 8361
SWIDTH 841 0
DWIDTH 17 0
BBX 19 15 0 0
BITMAP
07E00F8074
07E01F80A0
07E02F80D0
07E03F81C0
07E07F8280
07E0AF8340
07E0DF8700
3FFFFFFFF4
03E35F8D00
BFFFFFFFF0
17EA5FA940
03EC0FB000
03F80FE000
03F40FD000
03F00FC000
ENDCHAR
STARTCHAR Euro
ENCODING 8364
SWIDTH 507 0
DWIDTH 10 0
BBX 12 15 0 0
BITMAP
0006F8
002E6E
00BC1F
01F42E
03F018
07E000
3FFFE0
1FD540
7FFFC0
1FD540
0FD000
0BD000
07F560
03FFE0
00BE40
ENDCHAR
STARTCHAR uni20AE
ENCODING 8366
SWIDTH 481 0
DWIDTH 10 0
BBX 15 15 0 0
BITMAP
01BFA414
1E5FFFF0
381F9BD0
B41F8000
B02F4000
F03F0000
B03F0400
107FF800
2FFE0000
14BEB800
1AFD4000
65F80000
01F80000
02F40000
02F00000
ENDCHAR
STARTCHAR uni20B3
ENCODING 8371
SWIDTH 573 0
DWIDTH 11 0
BBX 12 15 0 0
BITMAP
006FE0
0B95BC
2D692E
74BD1E
B0FC1E
B0F82E
61F87C
02F5F4
1FFF80
07F000
03E000
3FFF40
1BE500
0BC000
0FC000
ENDCHAR
STARTCHAR uni20B4
ENCODING 8372
SWIDTH 570 0
DWIDTH 11 0
BBX 11 15 0 0
BITMAP
00AFD0
0796F4
0B00F8
0B01F4
0103E0
2FFFF8
15B950
7FFFF4
1B9550
1F47E0
3E02F0
7E01F0
3E01F0
2F97D0
06FE00
ENDCHAR
STARTCHAR uni20B8
ENCODING 8376
SWIDTH 522 0
DWIDTH 10 0
BBX 15 15 0 0
BITMAP
1FFFFFFC
05555554
01BFE514
0B9BFFF4
2D0FEBE0
780FC000
B41F8000
B42F4000
742F4000
003F0000
007E0000
007E0000
00BD0000
00FC0000
00FC0000
ENDCHAR
STARTCHAR uni20B9
ENCODING 8377
SWIDTH 544 0
DWIDTH 11 0
BBX 11 16 1 -1
BITMAP
3FFFF8
007D00
BFFFF0
001F00
002E00
007D00
01F400
FFE000
06F800
00FC00
00FC00
01F800
02F400
02F000
02F400
005000
ENDCHAR
STARTCHAR uni20BA
ENCODING 8378
SWIDTH 455 0
DWIDTH 9 0
BBX 11 15 0 0
BITMAP
00BD00
00FC00
00F800
01F940
01FE40
1BF440
67FB80
07F400
2FE0A0
1BD074
0BC078
0FC0B4
1F86E0
1FAF40
2FE400
ENDCHAR
STARTCHAR uni20BD
ENCODING 8381
SWIDTH 573 0
DWIDTH 11 0
BBX 12 15 0 0
BITMAP
006FE0
0B95BC
2D692E
74BD1E
B0FC1E
B0F82E
61F87C
02F5F4
3FFF80
17F000
03E000
7FFE00
1BD400
0BC000
0FC000
ENDCHAR
STARTCHAR uni2116
ENCODING 8470
SWIDTH 996 0
DWIDTH 20 0
BBX 20 15 0 0
BITMAP
01BE00B400
0BBF00F000
3D7F40F0BC
74BF81E2D9
B4FF81D789
B0FFC2D74D
75EBD3CB5C
01E7D387F4
02D7E78000
03C3F75FFC
0382FB1AA4
0781FF0000
0B41FE0000
0B00FD0000
0F00BD0000
ENDCHAR
STARTCHAR uni2120
ENCODING 8480
SWIDTH 585 0
DWIDTH 12 0
BBX 9 6 2 8
BITMAP
151440
322680
283780
5D6A40
CAAA40
695600
ENDCHAR
STARTCHAR trademark
ENCODING 8482
SWIDTH 379 0
DWIDTH 8 0
BBX 9 5 -1 9
BITMAP
1A5240
583740
087700
186700
146600
ENDCHAR
STARTCHAR uni2126
ENCODING 8486
SWIDTH 745 0
DWIDTH 15 0
BBX 14 15 0 0
BITMAP
0006FE00
002FAFC0
00B802E0
02D000F0
078000F0
0B4000B0
0F0000F0
0E0000E0
1E0001D0
0E0002C0
0E000740
07400D00
02807400
2AE0EA80
7FD1FF80
ENDCHAR
STARTCHAR uni212A
ENCODING 8490
SWIDTH 601 0
DWIDTH 12 0
BBX 13 15 0 0
BITMAP
00AE0780
0BBE0F00
2D7D2C00
B4BCB000
B0FDD000
B0FF4000
21FFE400
02F4F800
02F0BC00
03F0F800
07E1F800
07D1F400
0BD2F000
0BC2F000
0FC1F400
ENDCHAR
STARTCHAR uni212B
ENCODING 8491
SWIDTH 668 0
DWIDTH 13 0
BBX 15 20 0 -2
BITMAP
000000A0
00000254
000002A4
000006E0
00002FE0
0000ABD0
00028BD0
000B0FC0
001E0F80
1BFE5F80
79B9BF40
B4F02F00
52E03F00
03D07E00
07C07D00
0B80BD00
0F40FC00
1F40F800
1F000000
0B000000
ENDCHAR
STARTCHAR estimated
ENCODING 8494
SWIDTH 786 0
DWIDTH 16 0
BBX 15 14 0 0
BITMAP
002FE400
01E55F40
0B8003D0
1F8002F0
2F8002F8
3F8002FC
7FFFFFFC
7F800000
3F800000
2F800000
1F800000
0B800140
02E41B80
006FF900
ENDCHAR
STARTCHAR uni2153
ENCODING 8531
SWIDTH 733 0
DWIDTH 15 0
BBX 14 15 1 0
BITMAP
19002800
FC007000
2C00E000
3801C000
74034000
740B0000
B00D0000
F0281F80
90743AD0
00A035D0
01C00640
03800380
0700E2D0
0D00D2C0
2C006A40
ENDCHAR
STARTCHAR uni2154
ENCODING 8532
SWIDTH 852 0
DWIDTH 17 0
BBX 16 15 1 0
BITMAP
1F8001C0
36D00340
72D00B00
12800D00
06002800
18007400
2000A000
B981D0B9
9B8282DE
0007028E
000D0028
002C012D
0034075E
00A00A1D
01D002B4
ENDCHAR
STARTCHAR oneeighth
ENCODING 8539
SWIDTH 741 0
DWIDTH 15 0
BBX 14 15 1 0
BITMAP
19002800
FC007000
2C00E000
3801C000
74034000
740B0000
B00D0000
F0281B80
90743DE0
00A03CD0
01C01F40
03806780
0700D2D0
0D00E6C0
2C007E40
ENDCHAR
STARTCHAR threeeighths
ENCODING 8540
SWIDTH 828 0
DWIDTH 17 0
BBX 16 15 1 0
BITMAP
1B800340
39D00B00
39D00D00
02802800
07407400
B2D0A000
D2D1C000
93C381F8
2A07079D
000D039C
002C02F0
00340AB8
00A01C3C
01D01D7C
02800BE0
ENDCHAR
STARTCHAR fiveeighths
ENCODING 8541
SWIDTH 827 0
DWIDTH 17 0
BBX 16 15 1 0
BITMAP
1FD00340
24000A00
30001D00
3F802800
17D07400
72D0A000
E2D1C000
D78381F8
7E07079D
000D079C
002802F0
00740AB8
00A01C3C
01D01D78
02800BE0
ENDCHAR
STARTCHAR seveneighths
ENCODING 8542
SWIDTH 761 0
DWIDTH 15 0
BBX 14 15 1 0
BITMAP
BFD01C00
96803800
07007000
0D00D000
38028000
74074000
B00A0000
B01D0BD0
00282DB0
00702DA0
00E00F80
01C026D0
0340A1E0
0B00B6E0
0D002F80
ENDCHAR
STARTCHAR partialdiff
ENCODING 8706
SWIDTH 597 0
DWIDTH 12 0
BBX 11 16 1 0
BITMAP
001A40
00BFE0
00D1B4
000038
00003C
00002C
000028
01BE78
1FABF4
3800B0
B000A0
E001D0
E00380
F01E00
BEB800
2FD000
ENDCHAR
STARTCHAR uni2206
ENCODING 8710
SWIDTH 619 0
DWIDTH 12 0
BBX 13 15 0 0
BITMAP
0001F400
0002F400
0007F800
000E7800
002D7800
00383C00
00B03C00
01E02D00
03C02D00
07402E00
0E001E00
2D001F00
78000F00
BAAAAF40
BFFFFF40
ENDCHAR
STARTCHAR product
ENCODING 8719
SWIDTH 661 0
DWIDTH 13 0
BBX 13 16 0 -1
BITMAP
2AAAAA80
3FFFFF80
0380B000
0340B000
0740E000
0B00D000
0A01D000
0E02C000
1D028000
1D038000
2C074000
38070000
380B0000
740E0000
700E0000
50050000
ENDCHAR
STARTCHAR summation
ENCODING 8721
SWIDTH 605 0
DWIDTH 12 0
BBX 13 15 0 0
BITMAP
02FFFF40
02EAAA00
01E00000
00B40000
00780000
002D0000
001E0000
000B4000
002D0000
00B80000
01E00000
07800000
1E000000
3EAA9000
7FFFE000
ENDCHAR
STARTCHAR minus
ENCODING 8722
SWIDTH 471 0
DWIDTH 9 0
BBX 7 2 1 6
BITMAP
AAA8
FFFC
ENDCHAR
STARTCHAR uni2215
ENCODING 8725
SWIDTH 488 0
DWIDTH 10 0
BBX 10 15 0 0
BITMAP
0000D0
0002C0
000340
000A00
001D00
002800
007400
00E000
01C000
034000
0B0000
0D0000
280000
740000
A00000
ENDCHAR
STARTCHAR uni2219
ENCODING 8729
SWIDTH 434 0
DWIDTH 9 0
BBX 5 4 2 3
BITMAP
2900
7F00
BF40
2E00
ENDCHAR
STARTCHAR radical
ENCODING 8730
SWIDTH 660 0
DWIDTH 13 0
BBX 13 16 0 -1
BITMAP
00006A40
0000FF80
0001D000
0002C000
00034000
00070000
000E0000
001D0000
002C0000
68380000
7D740000
1DA00000
0ED00000
0BC00000
0B800000
05400000
ENDCHAR
STARTCHAR infinity
ENCODING 8734
SWIDTH 833 0
DWIDTH 17 0
BBX 14 7 1 2
BITMAP
05400500
2FF07FD0
B47AD1E0
E01F00E0
E07F41D0
FAE3EB80
7E40BD00
ENDCHAR
STARTCHAR integral
ENCODING 8747
SWIDTH 305 0
DWIDTH 6 0
BBX 10 19 -2 -3
BITMAP
0006D0
000E40
002C00
002C00
003800
007400
007400
00B000
00E000
00E000
01D000
02D000
02C000
038000
038000
074000
0B0000
1E0000
F80000
ENDCHAR
STARTCHAR approxequal
ENCODING 8776
SWIDTH 441 0
DWIDTH 9 0
BBX 9 6 0 2
BITMAP
1BFA80
2AAF80
000000
000000
2FEA00
6ABE00
ENDCHAR
STARTCHAR notequal
ENCODING 8800
SWIDTH 500 0
DWIDTH 10 0
BBX 10 11 0 0
BITMAP
002400
002400
057540
0FFFD0
1FFFC0
009000
15D500
3FFF40
7FFF00
024000
010000
ENDCHAR
STARTCHAR lessequal
ENCODING 8804
SWIDTH 405 0
DWIDTH 8 0
BBX 8 10 0 2
BITMAP
0006
006E
06F4
2F40
2F40
02F4
006C
0004
6AA9
FFFC
ENDCHAR
STARTCHAR greaterequal
ENCODING 8805
SWIDTH 405 0
DWIDTH 8 0
BBX 8 10 0 2
BITMAP
0500
0BD0
01B8
002F
01B9
1B90
2900
1000
6AA9
BFFD
ENDCHAR
STARTCHAR lozenge
ENCODING 9674
SWIDTH 619 0
DWIDTH 12 0
BBX 11 15 1 0
BITMAP
002E00
007F40
01E780
03C3C0
0B01D0
2D00E0
7800B0
E00074
B000E0
7402C0
380B40
2C1D00
1D7800
0FE000
07C000
ENDCHAR
STARTCHAR uni27E8
ENCODING 10216
SWIDTH 456 0
DWIDTH 9 0
BBX 8 20 1 -3
BITMAP
0007
000D
0028
0060
01C0
0340
0A00
1800
7000
9000
9000
3400
1800
0900
0700
0280
00D0
0070
0028
0008
ENDCHAR
STARTCHAR uni27E9
ENCODING 10217
SWIDTH 456 0
DWIDTH 9 0
BBX 8 20 0 -2
BITMAP
2000
2800
0D00
0700
0280
00D0
0070
0028
000D
0007
0007
000D
0028
0060
01C0
0340
0A00
1800
7000
9000
ENDCHAR
STARTCHAR ff
ENCODING 64256
SWIDTH 508 0
DWIDTH 10 0
BBX 17 20 -4 -5
BITMAP
0001F9BE00
000BDBF640
000F87E140
001F8BD000
002F4BD000
002FFFFC00
003F5FD400
007E1F8000
007E1F4000
00BD2F4000
00BD2F0000
00FC3E0000
01F87E0000
01F87D0000
02F9BD0000
1FF4FC0000
B7F0F80000
D3E1F40000
DBE6F00000
7E6F800000
ENDCHAR
STARTCHAR fi
ENCODING 64257
SWIDTH 534 0
DWIDTH 11 0
BBX 16 20 -4 -5
BITMAP
0001BF80
0007E6E0
000FC3E0
001F82D0
001F4000
002FF7D0
003F4BD0
003F0FC0
007E0FC0
00BD1F80
00BD1F40
00FC2F45
01F82F08
01F82FF4
02F40B90
1BF00000
A3F00000
C7E00000
DBC00000
7E400000
ENDCHAR
STARTCHAR fl
ENCODING 64258
SWIDTH 548 0
DWIDTH 11 0
BBX 16 20 -4 -5
BITMAP
0001FE40
000BD6F4
000F82F4
001F82F4
002F43F0
002FF7E0
003F57E0
007E0BD0
007E0BC0
00BD0FC0
00BC1F80
00FC1F41
01F82F49
01F81FF8
02F40BD0
1BF00000
A3F00000
C7E00000
DBC00000
7E400000
ENDCHAR
STARTCHAR ffi
ENCODING 64259
SWIDTH 764 0
DWIDTH 15 0
BBX 20 20 -4 -5
BITMAP
0001F96F90
000BE7F5F4
000F87E1F4
001F8BD0A0
002F4FC000
002FFFFFF0
003F5F97F0
007E1F47E0
007E2F47D0
00BD3F0BD0
00BC3E0FC0
00FC7E0F81
01F8BD1F86
01F4FC0FFC
02FAFC07E0
1BF1F80000
A3F1F40000
C3E2F40000
DBE7E00000
7E6F800000
ENDCHAR
STARTCHAR ffl
ENCODING 64260
SWIDTH 780 0
DWIDTH 16 0
BBX 21 20 -4 -5
BITMAP
0001F9BF9000
000BE7F5FC00
000F87D0FC00
001F8BD0F800
002F4FC1F800
002FFFFAF400
003F5F92F400
007E1F43F000
007E2F43E000
00BD3F07E000
00BC3E0BD000
00FC7E0BC140
01F8BD0FC200
01F4BC0BFD00
02FAFC07E400
1BF1F8000000
A3F1F4000000
C3E2F4000000
DBE7E0000000
7E6F80000000
ENDCHAR
STARTCHAR .notdef
ENCODING -1
SWIDTH 810 0
DWIDTH 16 0
BBX 16 25 0 -5
BITMAP
002AAAAB
00200002
00600002
00500005
00900009
00800008
00800008
0181A418
01462C14
020A2C24
02053820
0200A020
05028060
09030090
08010080
08050080
180A0080
14000140
20000240
20000200
20000200
60000600
50000500
80000800
AAAAA800
ENDCHAR
STARTCHAR A.salt
ENCODING -1
SWIDTH 590 0
DWIDTH 12 0
BBX 13 17 0 -2
BITMAP
00006F40
0002FF00
000A3F00
001C7E00
00747D00
00F0BD00
02D0BC00
07FFF800
0B81F800
1F01F400
2E02F000
3D03F000
7C03E000
BC07E000
B80BD000
B8000000
78000000
ENDCHAR
STARTCHAR B.salt
ENCODING -1
SWIDTH 633 0
DWIDTH 13 0
BBX 12 15 0 0
BITMAP
006FE0
07957C
2D692E
78BD1E
B4FC3D
F0F8B4
71FFF8
01F5BE
02F03F
03F03F
03E03E
07E07D
0BD0F8
0BE6F0
0FEF80
ENDCHAR
STARTCHAR E.salt
ENCODING -1
SWIDTH 554 0
DWIDTH 11 0
BBX 12 15 0 0
BITMAP
01BFFF
0EBFFD
38BD00
74BC00
B0FC00
B1F800
B1F800
12FFD0
03F540
03F000
07E000
07D000
0BD000
0FFFD0
0FFFD0
ENDCHAR
STARTCHAR N.salt
ENCODING -1
SWIDTH 669 0
DWIDTH 13 0
BBX 14 15 0 0
BITMAP
006FBE00
06BF5F80
2CBD0FC0
74FC0FC0
B1FC1F80
B1F81F80
72F42F40
03F43F00
03F03E00
07F07E00
07E0BD00
0BD0BC00
0FD0BC20
0FC0BD90
1FC02E40
ENDCHAR
STARTCHAR i.loclTRK
ENCODING -1
SWIDTH 267 0
DWIDTH 5 0
BBX 6 14 0 0
BITMAP
0B40
1FC0
0B40
0000
2F00
3F00
7E00
7D00
BD00
BC00
FC10
F860
FFC0
7E00
ENDCHAR
STARTCHAR a.end
ENCODING -1
SWIDTH 467 0
DWIDTH 9 0
BBX 11 10 -1 0
BITMAP
01BEF4
07E7F4
0FC2F0
2F43F0
3F07E0
3E07D0
7E0BD0
7F1FC0
3FFBF0
1B92D0
ENDCHAR
STARTCHAR aacute.end
ENCODING -1
SWIDTH 461 0
DWIDTH 9 0
BBX 11 15 -1 0
BITMAP
0001E0
0003C0
000740
000A00
000000
01BEF4
07E7F0
0F83F0
2F43E0
3F07E0
7E0BD0
7E0BC0
7E1FC0
3FFBF0
1F82D0
ENDCHAR
STARTCHAR c.end
ENCODING -1
SWIDTH 341 0
DWIDTH 7 0
BBX 8 10 -1 0
BITMAP
01BE
07EB
0F87
2F41
3F00
7E00
7E00
7E04
3FF8
1BE0
ENDCHAR
STARTCHAR d.end
ENCODING -1
SWIDTH 476 0
DWIDTH 10 0
BBX 12 14 -1 0
BITMAP
000069
0000BC
0000FC
0000F8
01BEF4
07E7F4
0FC2F0
2F43F0
3F07E0
3E07D0
7E0BD0
7F1FC0
3FFBF4
1B96E0
ENDCHAR
STARTCHAR e.end
ENCODING -1
SWIDTH 366 0
DWIDTH 7 0
BBX 9 10 -1 0
BITMAP
01BE00
07E740
0F8740
2F4B00
3F6D00
3FE400
7E0000
7F0400
3FF800
1BE000
ENDCHAR
STARTCHAR eacute.end
ENCODING -1
SWIDTH 367 0
DWIDTH 7 0
BBX 9 15 -1 0
BITMAP
000780
000B40
001E00
002C00
000000
01BE00
07E740
0FC740
2F4B00
3F6D00
3FE400
7E0000
7F0400
3FF800
1BE000
ENDCHAR
STARTCHAR uni0292.end
ENCODING -1
SWIDTH 391 0
DWIDTH 8 0
BBX 8 15 0 -5
BITMAP
2FFE
B5FC
B1F4
03E0
0BC0
1F80
2F40
0BD0
03F0
03F0
07F0
77F0
D3E0
DBD0
7E40
ENDCHAR
STARTCHAR g.end
ENCODING -1
SWIDTH 480 0
DWIDTH 10 0
BBX 11 15 -1 -5
BITMAP
01BEF4
07E7F4
0FC2F0
2F43F0
3F07E0
3E07D0
7E0BD0
7F1FC0
3FFF80
1BAF80
01BF40
072F40
093F00
0A7D00
02E400
ENDCHAR
STARTCHAR uni01E5.end
ENCODING -1
SWIDTH 507 0
DWIDTH 10 0
BBX 11 15 -1 -5
BITMAP
01BEF4
07E7F4
0FC2F0
2F43F0
3F07E0
3E07D0
7E0BD0
7F1FC0
3FFFC0
1BAF80
00AF40
072F40
2FFFD0
0ABE00
06F400
ENDCHAR
STARTCHAR h.end
ENCODING -1
SWIDTH 453 0
DWIDTH 9 0
BBX 10 14 -1 0
BITMAP
01A000
03E000
07E000
0BD000
0BEF80
0FDBD0
0F87E0
1F47D0
2F4BD0
2F0BC0
3E0F80
7E0F80
7D0FF0
BD07D0
ENDCHAR
STARTCHAR i.end
ENCODING -1
SWIDTH 209 0
DWIDTH 4 0
BBX 5 14 0 0
BITMAP
0B40
1FC0
0B40
0000
2F00
3F00
7E00
7D00
BD00
BC00
FC00
F800
FF00
7D00
ENDCHAR
STARTCHAR iacute.end
ENCODING -1
SWIDTH 209 0
DWIDTH 4 0
BBX 6 15 0 0
BITMAP
01E0
02D0
0380
0600
0000
2F00
3F00
7E00
7D00
BD00
BC00
FC00
F800
FF00
7D00
ENDCHAR
STARTCHAR ij.end
ENCODING -1
SWIDTH 480 0
DWIDTH 10 0
BBX 10 19 0 -5
BITMAP
0B41E0
1FC3F0
0B41E0
000000
2F07D0
3F0BD0
7E0BC0
7D0FC0
BD1F80
BC1F40
FC2F40
F83F00
FF3E00
7D7E00
06BD00
18BD00
24FC00
2FF400
0B9000
ENDCHAR
STARTCHAR j.end
ENCODING -1
SWIDTH 213 0
DWIDTH 4 0
BBX 9 19 -4 -5
BITMAP
000B40
001F80
000B40
000000
002F00
003F00
003E00
007E00
00BD00
00BC00
00FC00
01F800
01F400
02F400
1FF000
B7E000
C7E000
DBC000
7E4000
ENDCHAR
STARTCHAR k.end
ENCODING -1
SWIDTH 472 0
DWIDTH 9 0
BBX 11 14 -1 0
BITMAP
02A000
03E000
07E000
0BD000
0BD1E0
0FC740
0F9D00
1FFF40
2FEFC0
2F0BD0
3F0BC0
7E0FC0
7D0FF4
BD07E0
ENDCHAR
STARTCHAR l.end
ENCODING -1
SWIDTH 207 0
DWIDTH 4 0
BBX 6 14 -1 0
BITMAP
02A0
03E0
07E0
0BD0
0BC0
0FC0
1F80
1F40
2F40
3F00
3E00
7E00
3FC0
1F40
ENDCHAR
STARTCHAR m.end
ENCODING -1
SWIDTH 701 0
DWIDTH 14 0
BBX 15 10 -1 0
BITMAP
0BEF9BE0
0FDBF6F4
1F87E1F4
1F4BD1F4
2F4BC2F0
2F0FC3F0
3E0F83E0
7E1F87E0
7D2F43FC
BD2F01F4
ENDCHAR
STARTCHAR n.end
ENCODING -1
SWIDTH 454 0
DWIDTH 9 0
BBX 10 10 -1 0
BITMAP
0BEF80
0FDBD0
1F87E0
1F47D0
2F4BD0
2F0BC0
3E0F80
7E0F80
7D0FF0
BD07D0
ENDCHAR
STARTCHAR o.end
ENCODING -1
SWIDTH 487 0
DWIDTH 10 0
BBX 11 10 -1 0
BITMAP
01BE00
07E744
0FC3A0
2F47D0
3F0380
3F0740
7E0B40
7E0E00
3F6C00
1BE000
ENDCHAR
STARTCHAR oacute.end
ENCODING -1
SWIDTH 487 0
DWIDTH 10 0
BBX 11 15 -1 0
BITMAP
0003C0
000740
000E00
001D00
000000
01BE00
07E744
0FC3A0
2F47D0
3F0380
3F0740
7E0740
7E0E00
3F6C00
1BE000
ENDCHAR
STARTCHAR s.end
ENCODING -1
SWIDTH 316 0
DWIDTH 6 0
BBX 8 11 -1 0
BITMAP
0014
01FC
02FC
02FC
05FC
0CBC
28BD
78BD
A4BC
65F8
2FD0
ENDCHAR
STARTCHAR t.end
ENCODING -1
SWIDTH 276 0
DWIDTH 6 0
BBX 6 13 0 0
BITMAP
0BC0
1F80
1F40
7FD0
3F40
3F00
7E00
7D00
BD00
FC00
FC00
FE00
7D00
ENDCHAR
STARTCHAR u.end
ENCODING -1
SWIDTH 459 0
DWIDTH 9 0
BBX 9 10 0 0
BITMAP
2F0BC0
3F0FC0
7E1F80
7D1F40
BD2F40
BC3F00
FC3E00
F8BE00
FFBFC0
7E1F40
ENDCHAR
STARTCHAR uacute.end
ENCODING -1
SWIDTH 459 0
DWIDTH 9 0
BBX 9 15 0 0
BITMAP
000F00
002D00
003800
006000
000000
2F0BC0
3F0FC0
7E1F80
7D1F40
BD2F40
BC3F00
FC3E00
F8BE00
FFBFC0
7E1F40
ENDCHAR
STARTCHAR x.end
ENCODING -1
SWIDTH 500 0
DWIDTH 10 0
BBX 10 11 0 0
BITMAP
0001E0
02E1F0
09F860
20BCD0
20BF40
50BE00
80BD00
41FE00
073F00
1D2FD0
340B80
ENDCHAR
STARTCHAR y.end
ENCODING -1
SWIDTH 460 0
DWIDTH 9 0
BBX 9 15 0 -5
BITMAP
2F0BC0
3F0FC0
7E1F80
7D1F40
BD2F40
BC3F00
FC3F00
F8BE00
FFFD00
7EBD00
0AFC00
28F800
71F400
36F000
1F8000
ENDCHAR
STARTCHAR k.salt
ENCODING -1
SWIDTH 518 0
DWIDTH 10 0
BBX 12 14 -1 0
BITMAP
01A000
03E000
07E000
07D000
0BC1E0
0FCBE0
0FE800
1FFF80
2FDFD0
2F0BD0
3F0BC1
7E0FC6
7D0FFD
BD06E4
ENDCHAR
STARTCHAR p.salt
ENCODING -1
SWIDTH 482 0
DWIDTH 10 0
BBX 13 16 -2 -5
BITMAP
01A40000
02F6E000
03FFF400
03F0F800
07E0B800
0BD0B940
0BC1FA40
0FCBF000
1FAAE000
1F7BC000
2F6E0000
3F000000
3E000000
7E000000
BD000000
A4000000
ENDCHAR
STARTCHAR E_x
ENCODING -1
SWIDTH 797 0
DWIDTH 16 0
BBX 17 15 0 0
BITMAP
006F800000
01F5E00000
03E0A00000
07D0E00000
07D1802D00
03E0042E00
02F82F0900
0BE02F4C00
2F801F6400
7F401FE000
BE000FC000
BE001FC040
BE007BD240
7F9697FE00
1BE902F400
ENDCHAR
STARTCHAR F_i
ENCODING -1
SWIDTH 726 0
DWIDTH 15 0
BBX 15 15 0 0
BITMAP
01BFFFF4
1E7FFFF0
387E1A90
B47D0000
B0BD0000
B0FC0BD0
60FFDBC0
01F94FC0
01F41F80
02F41F40
03F02F40
03E03F04
07E03F18
0BD03FF4
0BC01F90
ENDCHAR
STARTCHAR T_h
ENCODING -1
SWIDTH 971 0
DWIDTH 19 0
BBX 20 15 0 0
BITMAP
01BFEAA800
1F5FEBF400
381F82F000
B41F43E000
B02F43E000
B03F07EB90
203E07E7E0
007E0BC3F0
00BD0F83E0
00BC0F87E0
00FC1F4BD0
00F82F4BC0
01F82F0BC2
02F43F0BD9
02F03E02E4
ENDCHAR
STARTCHAR T_i
ENCODING -1
SWIDTH 744 0
DWIDTH 15 0
BBX 16 15 0 0
BITMAP
01BFFFF4
1E5FFFF8
381F9AE0
B41F4000
B02F4000
B03F07E0
703E07D0
007E0BD0
00BD0FC0
00BD0F80
00FC1F80
00F81F41
01F82F49
02F41FF8
02F00B90
ENDCHAR
STARTCHAR a_x
ENCODING -1
SWIDTH 899 0
DWIDTH 18 0
BBX 20 11 -1 0
BITMAP
0000000064
01BEF4FCB8
07E7F4BC28
0FC2F0BD34
2F43F07DA0
3F07E07F80
3E07D03F00
7E0BD07F01
7F1FD1EF49
3FFBFF5FF8
1B92F80BD0
ENDCHAR
STARTCHAR a_z
ENCODING -1
SWIDTH 906 0
DWIDTH 18 0
BBX 19 10 -1 0
BITMAP
01BEF47FF8
07E7F5E6F4
0FC2F1D3E0
2F43F00BC0
3F07E01F80
3E07D02F00
7E0BD07D00
7F1FC0F8B4
3FFBF2F9B0
1B92D3FFD0
ENDCHAR
STARTCHAR b_s
ENCODING -1
SWIDTH 799 0
DWIDTH 16 0
BBX 17 14 0 0
BITMAP
0680000000
0F80000000
1F80000000
2F40005000
2FB907F400
3FAE0BF400
3E0F26F400
7E1F92F400
BD0F01F400
BC1F01F800
FC2E79F940
F87C91FE00
FFF4A6F400
6F802F9000
ENDCHAR
STARTCHAR b_s_x
ENCODING -1
SWIDTH 1144 0
DWIDTH 23 0
BBX 24 14 0 0
BITMAP
068000000000
0F8000000000
1F8000000000
2F40005000B4
2FBD07F4F8B8
3FAE0BF4FC24
3E0F26F4BC30
7D1F92F47DA0
BD0F01F47E80
BC1E01F83F00
FC2D79F87F01
F87C91FFAF49
FFF4A6F41FF8
6F802F900BD0
ENDCHAR
STARTCHAR b_s_z
ENCODING -1
SWIDTH 1158 0
DWIDTH 23 0
BBX 23 14 0 0
BITMAP
068000000000
0F8000000000
1F8000000000
2F4000500000
2FB907F47FFC
3FAE0BF4E6F4
3E0F26F5E3E0
7E1F92F40BD0
BD0F01F41F80
BC1F01F82F00
FC2E79F87D00
F87C91F8FC74
FFF4A6F6F9B4
6F802F93FFD0
ENDCHAR
STARTCHAR c_x
ENCODING -1
SWIDTH 755 0
DWIDTH 15 0
BBX 17 11 -1 0
BITMAP
0000001900
01BE2F2E00
07EB2F4A00
0F871F4900
2F411F9800
3F000FE000
7E000FC000
7E000FC040
7E006BD240
3F5683FE00
0BF901F800
ENDCHAR
STARTCHAR c_z
ENCODING -1
SWIDTH 769 0
DWIDTH 15 0
BBX 16 10 -1 0
BITMAP
01BE0BFF
07EB1D7D
0F872DBC
2F4105F4
3F0003E0
7E000BC0
7E001F40
7E042F1D
3FF87FAD
1BE0FFF8
ENDCHAR
STARTCHAR e_x
ENCODING -1
SWIDTH 762 0
DWIDTH 15 0
BBX 17 11 -1 0
BITMAP
0000001900
01BE2F1F00
07E75F4600
0FC75F8900
2F4B0F9800
3F6D0FF000
3FE40BD000
7E000BD040
3F002BE180
2F9693FF00
0BF901F800
ENDCHAR
STARTCHAR e_z
ENCODING -1
SWIDTH 788 0
DWIDTH 16 0
BBX 17 10 -1 0
BITMAP
01BE0BFF40
07EB2D7F00
0F871C7D00
2F4A00F800
3F6D02F400
7FE407E000
7E000BC000
7E041F4A00
3FF83F5E00
1BE0BFF800
ENDCHAR
STARTCHAR eacute_x
ENCODING -1
SWIDTH 760 0
DWIDTH 15 0
BBX 17 15 -1 0
BITMAP
0003C00000
0007800000
000B000000
001D000000
0000001900
01BE2F1F00
07E76F4600
0F875F4900
2F4B0F9800
3F6D0FF000
3FE40BD000
7E000BD040
7E002BE180
3F9693FF00
0BF901F800
ENDCHAR
STARTCHAR f_f_t
ENCODING -1
SWIDTH 780 0
DWIDTH 16 0
BBX 21 20 -4 -5
BITMAP
0001F9BF9000
000BE7F5FC00
000F87D0FC00
001F8BD0F800
002F4FC1F800
002FFFFFFE00
003F5F96F400
007E1F43F000
007E2F43E000
00BD3F07E000
00BC3E0BD000
00FC7E0BC140
01F8BD0FC200
01F4BC0BFD00
02FAFC07E400
1BF1F8000000
A3F1F4000000
C3E2F4000000
DBE7E0000000
7E6F80000000
ENDCHAR
STARTCHAR f_i_x
ENCODING -1
SWIDTH 898 0
DWIDTH 18 0
BBX 23 20 -4 -5
BITMAP
0001BF800000
0007E6E00000
000FC2E00000
001F82D00000
001F40000290
002FF7D3F2E0
003F4BD2F0A0
003F0FC2F4D0
007E0F81F680
00BD1F81FE00
00BD1F40FC00
00FC2F40FC04
01F82F47BD24
01F82FFD7FE0
02F41B902F40
1BF000000000
A3F000000000
C7E000000000
DBC000000000
7E4000000000
ENDCHAR
STARTCHAR f_i_z
ENCODING -1
SWIDTH 904 0
DWIDTH 18 0
BBX 22 20 -4 -5
BITMAP
0001BF800000
0007E6E00000
000FC3E00000
001F82D00000
001F40000000
002FF7D1FFE0
003F4BD79BD0
003F0FC74F80
007E0FC02F00
00BD1F807E00
00BD1F40FC00
00FC2F41F400
01F82F03F180
01F82F9BE6C0
02F40B9FFF40
1BF000000000
A3F000000000
C7E000000000
DBC000000000
7E4000000000
ENDCHAR
STARTCHAR f_l_x
ENCODING -1
SWIDTH 912 0
DWIDTH 18 0
BBX 23 20 -4 -5
BITMAP
0001FE400000
000BD6F40000
000F81F40000
001F82F40000
002F43F00190
002FF7E2F1F0
003F57E1F460
007E0BD1F890
007E0BC0F980
00BD0FC0FF00
00BC1F80BD00
00FC1F40BD04
01F82F47BE18
01F81FFD3FF0
02F40BE01F80
1BF000000000
A3F000000000
C7E000000000
DBC000000000
7E4000000000
ENDCHAR
STARTCHAR f_l_z
ENCODING -1
SWIDTH 938 0
DWIDTH 19 0
BBX 23 20 -4 -5
BITMAP
0001FE400000
000BD6F40000
000F82F40000
001F82F40000
002F43F00000
002FF7E0BFF4
003F57E2D7F0
007E0BD2C7D0
007E0BC00F80
00BD0FC02F40
00BC1F807E00
00FC1F80BC00
01F82F41F8A0
01F81FD3F5E0
02F40B9BFF90
1BF000000000
A3F000000000
C7E000000000
DBC000000000
7E4000000000
ENDCHAR
STARTCHAR f_t
ENCODING -1
SWIDTH 548 0
DWIDTH 11 0
BBX 16 20 -4 -5
BITMAP
0001FE40
000BD6F4
000F81F4
001F82F4
002F43F0
002FFFFC
003F57E4
007E07D0
007E0BD0
00BD0FC0
00BC0F80
00FC1F81
01F82F49
01F81FF8
02F40BD0
1BF00000
A3F00000
C7E00000
DBC00000
7E400000
ENDCHAR
STARTCHAR f_u
ENCODING -1
SWIDTH 772 0
DWIDTH 15 0
BBX 20 20 -4 -5
BITMAP
0001F80000
000BDA0000
000F850000
001F800000
002F400000
002FFFD1F4
003F5BD2F4
007E0BC3F0
007E0FC3E0
00BD1F87E0
00BC1F4BD0
00FC2F4BC1
01F82F1FC2
01F42FFBFD
02F41B97E4
1BF0000000
A3E0000000
C7E0000000
DBC0000000
7E40000000
ENDCHAR
STARTCHAR f_x
ENCODING -1
SWIDTH 663 0
DWIDTH 13 0
BBX 18 20 -4 -5
BITMAP
0001F80000
000BDA0000
000F860000
001F800000
002F400640
002FFFD7C0
003F5BD1C0
007E07E240
007E03EA00
00BD03F800
00BC07F000
00FC1AF410
01F861F860
01F4B8FFC0
02F4747E00
17F0000000
97E0000000
C7E0000000
DBC0000000
7E40000000
ENDCHAR
STARTCHAR g_p
ENCODING -1
SWIDTH 975 0
DWIDTH 20 0
BBX 20 16 -1 -5
BITMAP
0000006900
01BEF4BEB8
07E7F4BE7E
0FC2F0F82F
2F43F1F82F
3F07E1F43F
3E07D2F43E
7E0BD3F07D
7F1FC3E0FC
3FFF87FBF4
1BAFFFFF90
00BF4BC000
03AF0FC000
0A3F0F8000
0ABD1F8000
02F4290000
ENDCHAR
STARTCHAR g_x
ENCODING -1
SWIDTH 892 0
DWIDTH 18 0
BBX 20 16 -1 -5
BITMAP
00000000A0
01BEF4F8B4
07E7F4FC24
0FC2F0BC30
2F43F0BD90
3F07E07F80
3E07D03E00
7E0BD07F05
7F1FC1EF49
3FFF9A1FF8
1BAFE40B90
00BF400000
03AF000000
0A3F000000
0ABD000000
02F4000000
ENDCHAR
STARTCHAR g_z
ENCODING -1
SWIDTH 907 0
DWIDTH 18 0
BBX 19 15 -1 -5
BITMAP
01BEF47FFC
07E7F4E6F4
0F83F1D3E0
2F43F00BC0
3F07E01F80
3E07D02F00
7E0BD07D00
7F1FC0FCB4
3FFF82F9B0
1BAF83FFD0
01AF400000
062F000000
093F000000
0ABD000000
02E4000000
ENDCHAR
STARTCHAR i_x
ENCODING -1
SWIDTH 631 0
DWIDTH 13 0
BBX 14 14 0 0
BITMAP
0B400000
1FC00000
0B400000
00000E00
2F1F8F40
3F0F8300
7E0FC600
7D0BDC00
BD0BF400
BC07E000
FC0BE050
F82BF180
FFE2FF40
7E40B900
ENDCHAR
STARTCHAR i_z
ENCODING -1
SWIDTH 637 0
DWIDTH 13 0
BBX 13 14 0 0
BITMAP
0B400000
1FC00000
0B400000
00000000
2F0BFF40
3F2D7F00
7E2C7D00
7E00F800
BD02F400
BC07E000
FC0BC000
F81F8A00
FE3F5E00
7DBFF800
ENDCHAR
STARTCHAR iacute_x
ENCODING -1
SWIDTH 631 0
DWIDTH 13 0
BBX 14 15 0 0
BITMAP
01E00000
02D00000
03800000
07000000
00000E00
2F1F8F40
3F0F8300
7E0FC600
7D0BDC00
BD0BF400
BC07E000
FC0BE050
F82BF180
FFE2FF40
7E40B900
ENDCHAR
STARTCHAR iacute_z
ENCODING -1
SWIDTH 637 0
DWIDTH 13 0
BBX 13 15 0 0
BITMAP
01E00000
02D00000
03800000
06000000
00000000
2F0BFF40
3F2D7F00
7E2C7D00
7E00F800
BD02F400
BC07E000
FC0BC000
F81F8A00
FE3F5E00
7DBFF800
ENDCHAR
STARTCHAR j_x
ENCODING -1
SWIDTH 624 0
DWIDTH 12 0
BBX 17 19 -4 -5
BITMAP
000B400000
001F800000
000B400000
0000000E00
002F1F4F00
003F1F8300
007E0F8600
007D0FDC00
00BD0BF400
00BC07D000
00FC0BE040
01F82BF180
01F5E2FF40
02FE00B900
0BF0000000
77E0000000
D7E0000000
DBC0000000
7E40000000
ENDCHAR
STARTCHAR j_z
ENCODING -1
SWIDTH 618 0
DWIDTH 12 0
BBX 16 19 -4 -5
BITMAP
000B4000
001FC000
000B4000
00000000
002F5FFF
003F3D7D
003E38BC
007E01F4
00BD03E0
00BC0BD0
00FC1F80
00F82F1D
01F87E6D
02F4FFF8
1BF00000
A3F00000
C7E00000
DBC00000
7E400000
ENDCHAR
STARTCHAR l_x
ENCODING -1
SWIDTH 631 0
DWIDTH 13 0
BBX 14 14 0 0
BITMAP
06800000
0F800000
1F800000
2F400E00
2F1F8F40
3F0F8300
3E0FC600
7E0BDC00
BD0BF400
BC07E000
FC07E050
F82BF180
FFE2FF40
7E40B900
ENDCHAR
STARTCHAR l_z
ENCODING -1
SWIDTH 635 0
DWIDTH 13 0
BBX 14 14 -1 0
BITMAP
02B00000
03E00000
07E00000
0BD00000
0BC2FFD0
0FCB5F80
1F8B2F40
1F403E00
2F40BC00
3F01F800
3E02F000
7E07D380
3FCFD780
1F6FFE00
ENDCHAR
STARTCHAR m_x
ENCODING -1
SWIDTH 1124 0
DWIDTH 22 0
BBX 24 11 -1 0
BITMAP
000000000038
0BDF9BE07D3C
0FDBF6F47E0C
1F87E1F43E28
1F4BD1F43F60
2F4BC2F02FC0
2F0FC3F01F40
3E0F83E02F81
7E1F87E0AFC6
7D2F43FF4BFD
BD2F01F803E4
ENDCHAR
STARTCHAR m_z
ENCODING -1
SWIDTH 1125 0
DWIDTH 23 0
BBX 24 10 -1 0
BITMAP
0BDB9BE06FFD
0FDBF6F4F5F8
1F87E1F452F0
1F4BD1F407E0
2F4BC2F40FC0
2F0FC3F01F40
3E0F83E03E00
7E1F87E0BD38
7D2F43F9FD78
BD2F01F6FFE0
ENDCHAR
STARTCHAR n_z
ENCODING -1
SWIDTH 882 0
DWIDTH 18 0
BBX 19 10 -1 0
BITMAP
0BDF80BFF4
0FDBD2D7E0
1F87E14BD0
1F47D00F80
2F4BD02F00
2F0BC07E00
3E0F80FC00
7E0F81F4E0
7D0FE3F5E0
BD07DBFF80
ENDCHAR
STARTCHAR o_ae
ENCODING -1
SWIDTH 1089 0
DWIDTH 22 0
BBX 23 10 -1 0
BITMAP
01BE007F9BE0
07E74696FE74
0FC7A901FC74
1F47D002F4B0
3F0382FFF6D0
3F074BD7FF40
7E0B1F87F000
3E0E1F8BF008
3F6C1FFBF560
0BE007E0BE40
ENDCHAR
STARTCHAR o_s
ENCODING -1
SWIDTH 786 0
DWIDTH 16 0
BBX 17 11 -1 0
BITMAP
0000001400
01BE01FC00
07E742FC00
0FC389FC00
2F47F4BC00
3F0380BD00
3F0740BD00
7E075DBD40
7E0E34BF80
3F6C29FD00
1BE01BE000
ENDCHAR
STARTCHAR o_s_x
ENCODING -1
SWIDTH 1132 0
DWIDTH 23 0
BBX 24 11 -1 0
BITMAP
000000140028
01BE01FC7E3D
07E742FC3E0D
0FC389FC3F1C
2F47F4BD2F24
3F0380BD2FA0
3E0780BD1F80
7E0B5DBD2F81
7F1E34BEDFC2
3FFC29FD0BFD
1BE01BE002E4
ENDCHAR
STARTCHAR o_s_z
ENCODING -1
SWIDTH 1139 0
DWIDTH 23 0
BBX 24 11 -1 0
BITMAP
000000140000
01BE01FC2FFE
07E742FC75FC
0FC389FCB5F4
2F47F4BC03E0
3F0380BD0BD0
3F0740BD1F80
7E075DBD2F40
7E0E34BD7E28
3F6C29FCFD78
1BE01BE1FFE0
ENDCHAR
STARTCHAR o_x
ENCODING -1
SWIDTH 851 0
DWIDTH 17 0
BBX 19 11 -1 0
BITMAP
0000000190
01BE03F2E0
07E743F0A0
0FC38AF4D0
2F47E5FA40
3F0381FE00
3F0741FC00
7E0B0AFC04
7E0E2CBD24
3F6C387FE0
1BE02D2F40
ENDCHAR
STARTCHAR oacute_s
ENCODING -1
SWIDTH 787 0
DWIDTH 16 0
BBX 17 15 -1 0
BITMAP
0003C00000
0007400000
000E000000
001D000000
0000001400
01BE01FC00
07E742FC00
0FC389FC00
2F47F4BD00
3F0380BD00
3F0780BD00
7E075DBD40
7E0E34BF80
3F6C29FD00
1BE01BE000
ENDCHAR
STARTCHAR oacute_s_x
ENCODING -1
SWIDTH 1141 0
DWIDTH 23 0
BBX 24 15 -1 0
BITMAP
0003C0000000
000740000000
000E00000000
001D00000000
000000140000
01BE01FC2FFE
07E742FC75FC
0FC389FCB5F4
1F47F4BD03F0
3F0380BD0BD0
3F0780BD0F80
7E075DBD2F40
3E0E34BD7E2C
3F6D29FCFD7C
0BE00BE1FFE4
ENDCHAR
STARTCHAR oacute_s_z
ENCODING -1
SWIDTH 1140 0
DWIDTH 23 0
BBX 24 15 -1 0
BITMAP
0003C0000000
000740000000
000E00000000
001D00000000
000000140000
01BE01FC2FFE
07E742FC75FC
0FC389FCB5F4
2F47F4BD03F0
3F0380BD0BD0
3F0740BD1F80
7E075DBD2F40
7E0E34BD7E2C
3F6C29FCFD78
1BE01BE1FFE0
ENDCHAR
STARTCHAR oacute_x
ENCODING -1
SWIDTH 852 0
DWIDTH 17 0
BBX 19 15 -1 0
BITMAP
0003C00000
0007400000
000E000000
001D000000
0000000190
01BE03F2E0
07E743F0A0
0FC38AF4D0
1F47E5FA40
3F0380FE00
3F0741FC00
7E070BFC04
7E0E1CBD24
3F6C387FE0
1BE02D2F80
ENDCHAR
STARTCHAR r_x
ENCODING -1
SWIDTH 784 0
DWIDTH 16 0
BBX 18 11 -1 0
BITMAP
0000000B00
0BDB5F4F40
0FEF9F8340
1F874F8600
1F400BDC00
2F400BF000
2F000BE000
3F0077E050
7E00D2F080
7D01F1FF40
BD00F0B900
ENDCHAR
STARTCHAR r_z
ENCODING -1
SWIDTH 654 0
DWIDTH 13 0
BBX 14 10 -1 0
BITMAP
0BDBFFE0
0FFF9BD0
1F875F80
1F802F00
2F407D00
2F00FC00
3F01F400
7E03E2C0
7D0BE6C0
BD1FFF40
ENDCHAR
STARTCHAR s_x
ENCODING -1
SWIDTH 727 0
DWIDTH 15 0
BBX 16 11 -1 0
BITMAP
00540038
01FC7D3D
02FC3E0C
02FC3E18
09FC2F70
0CBC2FD0
28BD1F40
78BD6F81
A0BEDFC6
65F90BFD
2FD002E4
ENDCHAR
STARTCHAR s_z
ENCODING -1
SWIDTH 744 0
DWIDTH 15 0
BBX 16 11 -1 0
BITMAP
00540000
01FC2FFE
02FC75FC
03FC75F4
09FC03F0
0CBC07D0
28BD0F80
78BD2F40
A4BC7E28
65F8BD7C
2FD1FFF4
ENDCHAR
STARTCHAR t_x
ENCODING -1
SWIDTH 631 0
DWIDTH 13 0
BBX 14 13 0 0
BITMAP
06800000
1F800000
1F400900
7FFF8F40
3F5F8340
3E0FC700
7E0BCD00
BD0BF400
BC07E000
FC07E050
F82BF080
FFE2FF40
7E40B900
ENDCHAR
STARTCHAR t_z
ENCODING -1
SWIDTH 704 0
DWIDTH 14 0
BBX 14 13 0 0
BITMAP
0BC00000
1F800000
1F400000
7FD1FFE0
3F479BD0
3F074F80
7E002F00
7D007E00
BD00FC00
FC01F400
F803F180
FE0BE6C0
7D1FFF40
ENDCHAR
STARTCHAR u_v
ENCODING -1
SWIDTH 923 0
DWIDTH 18 0
BBX 18 10 0 0
BITMAP
2F0BC7F5E0
3F0FC3F1F0
7E1F83E070
7D1F47E060
BD2F47D0A0
BC3F0BD0D0
FC3E0FC1C0
F8BE0FC740
FFFD0FFE00
7EBC07F400
ENDCHAR
STARTCHAR u_x
ENCODING -1
SWIDTH 878 0
DWIDTH 18 0
BBX 19 11 0 0
BITMAP
0000000380
2F0BC7D3D0
3F0FC3E0C0
7E1F83F180
7D1F42F700
BD2F42FD00
BC3F01F800
FC3E02F814
F8BE0AFC60
FFBFF8BFD0
7E1F902E40
ENDCHAR
STARTCHAR y_p
ENCODING -1
SWIDTH 954 0
DWIDTH 19 0
BBX 19 16 0 -5
BITMAP
0000019000
2F0BC3FBE0
3F0FC7F6F4
7E1F87D1F8
7D1F4BD1F8
BD2F4FC1F4
BC3F0F82F4
FC3E1F83F0
F8BE2F47E0
FFFD2FAF80
7EBFFFFE00
06FC7E0000
19F87D0000
31F4BD0000
3BF0BC0000
1F80E40000
ENDCHAR
STARTCHAR y_x
ENCODING -1
SWIDTH 871 0
DWIDTH 17 0
BBX 18 16 0 -5
BITMAP
0000000780
2F0BC7D7C0
3F0FC7E0C0
7E1F83E280
7D1F43F700
BD2F42FD00
BC3F02F400
FC3E02F410
F8BE0AF860
FFFD74BFD0
7EBF807E40
06FC000000
19F8000000
31F4000000
3BF0000000
1F80000000
ENDCHAR
STARTCHAR y_z
ENCODING -1
SWIDTH 888 0
DWIDTH 18 0
BBX 18 15 0 -5
BITMAP
2F0BC2FFD0
3F0FCB5FC0
7E1F871F40
7D1F403E00
BD2F40BD00
BC3F01F800
FC3F02F000
F8BE07D380
FFFD0FD780
7EBD2FFE00
06FC000000
28F8000000
71F4000000
36F0000000
1F80000000
ENDCHAR
STARTCHAR a_x.end
ENCODING -1
SWIDTH 884 0
DWIDTH 18 0
BBX 19 11 -1 0
BITMAP
0000000064
01BEF4FCB8
07E7F4BC28
0FC2F0BD34
2F43F07DA0
3F07E07F80
3E07D03F00
7E0BD07F00
7F1FD1EF40
3FFBFF5FE0
1B92F80B90
ENDCHAR
STARTCHAR b_s.end
ENCODING -1
SWIDTH 731 0
DWIDTH 15 0
BBX 15 14 0 0
BITMAP
06800000
0F800000
1F800000
2F400050
2FB907F4
3FAE0BF4
3E0F26F4
7E1F92F4
BD0F01F4
BC1F01F8
FC2E79F8
F87C91F8
FFF4A6F4
6F802F90
ENDCHAR
STARTCHAR e_x.end
ENCODING -1
SWIDTH 747 0
DWIDTH 15 0
BBX 16 11 -1 0
BITMAP
00000019
01BE2F1F
07E75F46
0FC75F89
2F4B0F98
3F6D0FF0
3FE40BD0
7E000BD0
3F002FD0
2F96D3F8
0BF901F4
ENDCHAR
STARTCHAR f_u.end
ENCODING -1
SWIDTH 724 0
DWIDTH 14 0
BBX 19 20 -4 -5
BITMAP
0001F80000
000BDA0000
000F850000
001F800000
002F400000
002FFFD1F4
003F5BD2F4
007E0BC3F0
007E0FC3E0
00BD1F87E0
00BC1F4BD0
00FC2F4BC0
01F82F1FC0
01F42FFBF4
02F41B92E0
1BF0000000
A3E0000000
C7E0000000
DBC0000000
7E40000000
ENDCHAR
STARTCHAR fi.end
ENCODING -1
SWIDTH 479 0
DWIDTH 10 0
BBX 14 20 -4 -5
BITMAP
0001BF80
0007E6E0
000FC3E0
001F82D0
001F4000
002FF7D0
003F4BD0
003F0FC0
007E0FC0
00BD1F80
00BD1F40
00FC2F40
01F82F00
01F82FD0
02F40B80
1BF00000
A3F00000
C7E00000
DBC00000
7E400000
ENDCHAR
STARTCHAR fl.end
ENCODING -1
SWIDTH 490 0
DWIDTH 10 0
BBX 15 20 -4 -5
BITMAP
0001FE40
000BD6F4
000F82F4
001F82F4
002F43F0
002FF7E0
003F57E0
007E0BD0
007E0BC0
00BD0FC0
00BC1F80
00FC1F40
01F82F40
01F81FE0
02F40B80
1BF00000
A3F00000
C7E00000
DBC00000
7E400000
ENDCHAR
STARTCHAR i_x.end
ENCODING -1
SWIDTH 616 0
DWIDTH 12 0
BBX 13 14 0 0
BITMAP
0B400000
1FC00000
0B400000
00000E00
2F1F8F40
3F0F8340
7E0FC600
7D0BDC00
BD0BF400
BC07E000
FC07E000
F82BF000
FFE2FD00
7E40B800
ENDCHAR
STARTCHAR o_s.end
ENCODING -1
SWIDTH 718 0
DWIDTH 14 0
BBX 16 11 -1 0
BITMAP
00000014
01BE01FC
07E742FC
0FC389FC
2F47F4BC
3F0380BD
3F0740BD
7E075DBD
7E0E34BD
3F6C29FC
1BE01BE0
ENDCHAR
STARTCHAR oacute_s.end
ENCODING -1
SWIDTH 719 0
DWIDTH 14 0
BBX 16 15 -1 0
BITMAP
0003C000
00074000
000E0000
001D0000
00000014
01BE01FC
07E742FC
0FC389FC
2F47F4BD
3F0380BD
3F0780BD
7E075DBD
7E0E34BD
3F6C29FC
1BE01BE0
ENDCHAR
STARTCHAR u_x.end
ENCODING -1
SWIDTH 863 0
DWIDTH 17 0
BBX 18 11 0 0
BITMAP
0000000380
2F0BC7D3D0
3F0FC3E0C0
7E1F83F180
7D1F42F300
BD2F42FD00
BC3F01F800
FC3E01F800
F8BE0BFC00
FFBFF8BF40
7E1F902E00
ENDCHAR
STARTCHAR uni0424.loclBGR
ENCODING -1
SWIDTH 840 0
DWIDTH 17 0
BBX 17 18 0 -2
BITMAP
006BFE0000
01F57E0000
02D07D0000
0180BD0000
006BFFE000
02E4F87D00
1F41F42F00
3E02F41F40
7D03F00F80
BC03E01F80
BC07E01F40
BD0BD03F00
7E0BC0BD00
2F4FC6F400
07FFFF8000
001F800000
002F400000
002A000000
ENDCHAR
STARTCHAR uni0492.loclBSH
ENCODING -1
SWIDTH 459 0
DWIDTH 9 0
BBX 12 15 0 0
BITMAP
01BFFF
1EBFFD
38BD00
B4BC00
B0FC00
B1F800
71FFD0
02F540
03F000
03E000
07E000
07D000
0BD000
0FC000
0F8000
ENDCHAR
STARTCHAR uni04AA.loclCHU
ENCODING -1
SWIDTH 497 0
DWIDTH 10 0
BBX 11 19 0 -4
BITMAP
006FD0
01F974
07F038
0FD078
1F8060
2F4000
3F4000
7F0000
7E0000
BE0000
BE0000
BF0014
7F81A0
3FFF80
0BF900
009000
00FC00
012C00
02A400
ENDCHAR
STARTCHAR uni0418.loclSRB
ENCODING -1
SWIDTH 705 0
DWIDTH 14 0
BBX 15 15 0 0
BITMAP
006F01F8
07BE02F4
1D7E02F0
78BD0BF0
B4BC1FE0
B0FC7FE0
71F8FBD0
01FBDBC0
02FF4FC0
02FE1F80
03F81F40
07E02F40
07D03F00
0BD03E00
0FC07E00
ENDCHAR
STARTCHAR uni0419.loclSRB
ENCODING -1
SWIDTH 705 0
DWIDTH 14 0
BBX 15 19 0 0
BITMAP
00029050
0003D6C0
0001FE00
00000000
006F01F8
07BE02F4
1D7E02F0
78BD0BF0
B4BC1FE0
B0FC7FE0
71F8FBD0
01FBDBC0
02FF4FC0
02FE1F80
03F81F40
07E02F40
07D03F00
0BD03E00
0FC07E00
ENDCHAR
STARTCHAR uni0430.end
ENCODING -1
SWIDTH 467 0
DWIDTH 9 0
BBX 11 10 -1 0
BITMAP
01BEF4
07E7F4
0FC2F0
2F43F0
3F07E0
3E07D0
7E0BD0
7F1FC0
3FFBF0
1B92D0
ENDCHAR
STARTCHAR uni0432.end
ENCODING -1
SWIDTH 406 0
DWIDTH 8 0
BBX 9 15 -1 0
BITMAP
002F40
00B9C0
01F1C0
03E1C0
07D280
0FC340
1F8700
2F6E00
2F2F80
3F0380
7E0380
7E0780
3E0700
2F5D00
0BE400
ENDCHAR
STARTCHAR uni0434.end
ENCODING -1
SWIDTH 480 0
DWIDTH 10 0
BBX 11 15 -1 -5
BITMAP
01BEF4
07E7F4
0FC2F0
2F43F0
3F07E0
3E07D0
7E0BD0
7F1FC0
3FFF80
1BAF80
01BF40
072F40
093F00
0A7D00
02E400
ENDCHAR
STARTCHAR uni0435.end
ENCODING -1
SWIDTH 366 0
DWIDTH 7 0
BBX 9 10 -1 0
BITMAP
01BE00
07E740
0F8740
2F4B00
3F6D00
3FE400
7E0000
7F0400
3FF800
1BE000
ENDCHAR
STARTCHAR uni0451.end
ENCODING -1
SWIDTH 366 0
DWIDTH 7 0
BBX 10 14 -1 0
BITMAP
01E2D0
01E3D0
000000
000000
01BE00
07E740
0F8740
2F4B00
3F6D00
3FE400
7E0000
7F0400
3FF800
1BE000
ENDCHAR
STARTCHAR uni0436.end
ENCODING -1
SWIDTH 848 0
DWIDTH 17 0
BBX 19 10 -1 0
BITMAP
07E03E07E0
19BC3E2E74
207C7D7C70
007DBDB800
007FFFF400
007DF9F400
60B8F9F400
B0F1F4F400
B6D2F0F960
2F42F02F80
ENDCHAR
STARTCHAR uni0437.end
ENCODING -1
SWIDTH 426 0
DWIDTH 9 0
BBX 9 15 0 -5
BITMAP
02F900
097F00
242F40
202F40
502F40
803E00
40BC00
0BF000
01F800
00FC00
02FC00
1DFC00
34F800
36F400
1F9000
ENDCHAR
STARTCHAR uni0438.end
ENCODING -1
SWIDTH 459 0
DWIDTH 9 0
BBX 9 10 0 0
BITMAP
2F0BC0
3F0FC0
7E1F80
7D1F40
BD2F40
BC3F00
FC3E00
F8BE00
FFBFC0
7E1F40
ENDCHAR
STARTCHAR uni0439.end
ENCODING -1
SWIDTH 459 0
DWIDTH 9 0
BBX 10 14 0 0
BITMAP
03C090
07C280
02FE00
000000
2F0BC0
3F0FC0
7E1F80
7D1F40
BD2F40
BC3F00
FC3E00
F8BE00
FFBFC0
7E1F40
ENDCHAR
STARTCHAR uni043A.end
ENCODING -1
SWIDTH 501 0
DWIDTH 10 0
BBX 11 10 -1 0
BITMAP
0BC1B4
0FC7B8
0F9C00
1FB900
2FFF80
2F4F80
3F0F80
7E0F80
7D0FF0
BD07D0
ENDCHAR
STARTCHAR uni043B.end
ENCODING -1
SWIDTH 511 0
DWIDTH 10 0
BBX 11 10 -1 0
BITMAP
0007FC
001DFC
0034F8
0071F4
0071F4
00A2F0
64D3F0
B5C3E0
B683FC
2E01F4
ENDCHAR
STARTCHAR uni043C.end
ENCODING -1
SWIDTH 780 0
DWIDTH 16 0
BBX 17 10 -1 0
BITMAP
0007D03F40
001FD07F40
0037D0FF00
0033D1FF00
0063D3BE00
0093D77D00
6493EDBD00
B4C2FCBC00
B282F4BF40
2E02F02E00
ENDCHAR
STARTCHAR uni043D.end
ENCODING -1
SWIDTH 460 0
DWIDTH 9 0
BBX 10 10 -1 0
BITMAP
0BC2F0
0FC2F0
1F83E0
1F47D0
2FFFD0
2F5BC0
3F0FC0
7E0F80
7D0FD0
BD07E0
ENDCHAR
STARTCHAR uni043E.end
ENCODING -1
SWIDTH 439 0
DWIDTH 9 0
BBX 9 10 -1 0
BITMAP
01BE00
07E740
0FC380
1F4380
3F0380
3F0740
7E0B40
7E0E00
3F6C00
1BE000
ENDCHAR
STARTCHAR uni043F.end
ENCODING -1
SWIDTH 454 0
DWIDTH 9 0
BBX 10 10 -1 0
BITMAP
0BEF80
0FDBD0
1F87E0
1F47D0
2F4BD0
2F0BC0
3E0F80
7E0F80
7D0FF0
BD07D0
ENDCHAR
STARTCHAR uni0441.end
ENCODING -1
SWIDTH 341 0
DWIDTH 7 0
BBX 8 10 -1 0
BITMAP
01BE
07EB
0F87
2F41
3F00
7E00
7E00
7E04
3FF8
1BE0
ENDCHAR
STARTCHAR uni0442.end
ENCODING -1
SWIDTH 701 0
DWIDTH 14 0
BBX 15 10 -1 0
BITMAP
0BEF9BE0
0FDBF6F4
1F87E1F4
1F4BD1F4
2F4BC2F0
2F0FC3F0
3E0F83E0
7E1F87E0
7D2F43FC
BD2F01F4
ENDCHAR
STARTCHAR uni0443.end
ENCODING -1
SWIDTH 460 0
DWIDTH 9 0
BBX 9 15 0 -5
BITMAP
2F0BC0
3F0FC0
7E1F80
7D1F40
BD2F40
BC3F00
FC3F00
F8BE00
FFFD00
7EBD00
0AFC00
28F800
71F400
36F000
1F8000
ENDCHAR
STARTCHAR uni0445.end
ENCODING -1
SWIDTH 500 0
DWIDTH 10 0
BBX 10 11 0 0
BITMAP
0001E0
02E1F0
09F860
20BCD0
20BF40
50BE00
80BD00
41FE00
073F00
1D2FD0
340B80
ENDCHAR
STARTCHAR uni0447.end
ENCODING -1
SWIDTH 459 0
DWIDTH 9 0
BBX 9 10 0 0
BITMAP
2F0BC0
3F0FC0
7E1F80
7D1F40
7D3F40
7FFF00
2F7E00
007E00
003FC0
001F40
ENDCHAR
STARTCHAR uni0448.end
ENCODING -1
SWIDTH 706 0
DWIDTH 14 0
BBX 14 10 0 0
BITMAP
2F0BC3F0
3F0FC3E0
7E1F87E0
7D1F4BD0
BD2F4BC0
BC3F0FC0
FC3E1F80
F8BE2F80
FFBFEFF0
7E1F87D0
ENDCHAR
STARTCHAR uni044B.end
ENCODING -1
SWIDTH 608 0
DWIDTH 12 0
BBX 12 10 0 0
BITMAP
2F000B
3E007E
7E06BE
7DFD7D
BC2C7D
BC1DBC
F82CF8
F878F8
FEF0FF
6F807D
ENDCHAR
STARTCHAR uni0455.end
ENCODING -1
SWIDTH 316 0
DWIDTH 6 0
BBX 8 11 -1 0
BITMAP
0014
01FC
02FC
02FC
05FC
0CBC
28BD
78BD
A4BC
65F8
2FD0
ENDCHAR
STARTCHAR uni0456.end
ENCODING -1
SWIDTH 209 0
DWIDTH 4 0
BBX 5 14 0 0
BITMAP
0B40
1FC0
0B40
0000
2F00
3F00
7E00
7D00
BD00
BC00
FC00
F800
FF00
7D00
ENDCHAR
STARTCHAR uni0458.end
ENCODING -1
SWIDTH 213 0
DWIDTH 4 0
BBX 9 19 -4 -5
BITMAP
000B40
001F80
000B40
000000
002F00
003F00
003E00
007E00
00BD00
00BC00
00FC00
01F800
01F400
02F400
1FF000
B7E000
C7E000
DBC000
7E4000
ENDCHAR
STARTCHAR uni044E.end
ENCODING -1
SWIDTH 675 0
DWIDTH 14 0
BBX 14 10 -1 0
BITMAP
0BC06F40
0FC1F5D0
1F87E1D0
1F8BD1D0
2FFFC1D0
2F6F82D0
3F2F42C0
7E1F4740
7D1F9A00
BD06F400
ENDCHAR
STARTCHAR uni044F.end
ENCODING -1
SWIDTH 480 0
DWIDTH 10 0
BBX 11 10 -1 0
BITMAP
00AFF4
03E6F4
0BC2F0
0BC3F0
0BD3E0
02FFD0
10EBD0
B5CBC0
B68BF4
2E02E0
ENDCHAR
STARTCHAR uni0437.init
ENCODING -1
SWIDTH 455 0
DWIDTH 9 0
BBX 10 15 0 -5
BITMAP
07E400
29FD00
607E00
407E00
00BD00
00FC00
02F410
2FD060
07E080
02FA40
06F800
2BF000
A3F000
ABD000
6F4000
ENDCHAR
STARTCHAR uni0445.init
ENCODING -1
SWIDTH 390 0
DWIDTH 8 0
BBX 10 11 -1 0
BITMAP
000B00
1F4B40
0F8240
0FC700
0BDD00
07F400
0BE000
2BF050
92F480
F1FF80
B0B900
ENDCHAR
STARTCHAR uni0436.loclBGR
ENCODING -1
SWIDTH 882 0
DWIDTH 18 0
BBX 20 14 -1 0
BITMAP
00000F8000
00001F4000
00001F4000
00002F0000
07E03E07E0
19BC3E2E74
207C7D7C70
007DBCB800
007FFFF400
007DF9F400
60B8F9F405
B0F1F4F408
B6D2F0F960
2F42F02F80
ENDCHAR
STARTCHAR uni043A.loclBGR
ENCODING -1
SWIDTH 518 0
DWIDTH 10 0
BBX 12 14 -1 0
BITMAP
02A000
03E000
07E000
0BD000
0BC1E0
0FC740
0FAD00
1FFF80
2F9FD0
2F0BD0
3F0BC1
7E0FC6
7D0FFC
BD06E4
ENDCHAR
STARTCHAR uni044E.loclBGR
ENCODING -1
SWIDTH 675 0
DWIDTH 14 0
BBX 17 14 -1 0
BITMAP
03F0000000
03E0000000
07E0000000
0BD0000000
0BC06F4000
0FC1F6D000
1F87E1D180
1F8BD2F900
2FFFC1D000
2F6F82D000
3F2F42C000
7E1F474000
7D1F9E0000
BD06F40000
ENDCHAR
STARTCHAR uni0493.loclBSH
ENCODING -1
SWIDTH 398 0
DWIDTH 8 0
BBX 10 10 -1 0
BITMAP
1FFFD0
1FBF80
2F0000
3E0000
3FF800
7D0000
BC1000
BC6000
BFD000
2E4000
ENDCHAR
STARTCHAR uni04AB.loclCHU
ENCODING -1
SWIDTH 384 0
DWIDTH 8 0
BBX 9 14 -1 -4
BITMAP
01BE00
07E740
0F8740
1F4000
3F0000
3E0000
7E0080
7F0640
3FFD00
1BE400
008000
00F800
012C00
02A400
ENDCHAR
STARTCHAR uni0453.loclMKD
ENCODING -1
SWIDTH 267 0
DWIDTH 5 0
BBX 7 18 0 0
BITMAP
0064
00B0
01D0
0240
7FF0
1540
0000
0000
2F00
3F00
7E00
7D00
BD00
BC00
FC10
F860
FFC0
7E00
ENDCHAR
STARTCHAR uni0433.loclSRB
ENCODING -1
SWIDTH 267 0
DWIDTH 5 0
BBX 6 14 0 0
BITMAP
7FF0
1540
0000
0000
2F00
3F00
7E00
7D00
BD00
BC00
FC10
F860
FFC0
7E00
ENDCHAR
STARTCHAR uni043F.loclSRB
ENCODING -1
SWIDTH 505 0
DWIDTH 10 0
BBX 11 14 0 0
BITMAP
0BFFC0
015500
000000
000000
2F0BC0
3F0FC0
7E1F80
7D1F40
BD2F40
BC3F00
FC3E08
F8BE24
FFBFE0
7E1F80
ENDCHAR
STARTCHAR uni0442.loclSRB
ENCODING -1
SWIDTH 752 0
DWIDTH 15 0
BBX 16 13 0 0
BITMAP
07FFFFE0
01555540
00000000
2F0BC3F0
3F0FC3E0
7E1F87E0
7D1F4BD0
BD2F4BC0
BC3F0FC0
FC3E1F81
F8BE2F89
FFBFEFF8
7E1F87E0
ENDCHAR
STARTCHAR uni04150437
ENCODING -1
SWIDTH 940 0
DWIDTH 19 0
BBX 20 20 0 -5
BITMAP
006F800000
01F5E00000
03E0A00000
07D0E00000
07D1800000
03F000BE00
02F4025FC0
1FD0080BD0
3F40080BD0
7F00200FC0
BE00201F80
BE00807E01
BF4242F809
7FFE007E24
1BE4003F90
000001FF00
00000B7E00
00000D7E00
00000DBC00
000007E000
ENDCHAR
STARTCHAR uni04150445
ENCODING -1
SWIDTH 797 0
DWIDTH 16 0
BBX 17 15 0 0
BITMAP
006F800000
01F5E00000
03E0A00000
07D0E00000
07D1802D00
03E0042E00
02F82F0900
0BE02F4C00
2F801F6400
7F401FE000
BE000FC000
BE001FC040
BE007BD240
7F9697FE00
1BE902F400
ENDCHAR
STARTCHAR uni04010437
ENCODING -1
SWIDTH 940 0
DWIDTH 19 0
BBX 20 23 0 -5
BITMAP
003C780000
003C780000
0000000000
006F800000
01F5E00000
03E0A00000
07D0E00000
07D1800000
03F000BE00
02F4025FC0
1FD0080BD0
3F40080BD0
7F00200FC0
BE00201F80
BE00807E01
BF4242F809
7FFE007E24
1BE4003F90
000001FF00
00000B7E00
00000D7E00
00000DBC00
000007E000
ENDCHAR
STARTCHAR uni04010445
ENCODING -1
SWIDTH 797 0
DWIDTH 16 0
BBX 17 19 0 0
BITMAP
003C740000
003C780000
0000000000
0000000000
006F800000
01F5E00000
03E0A00000
07D0E00000
07D1802D00
03E0042E00
02F82F0900
0BE02F4C00
2F801F6400
7F401FE000
BE000FC000
BE001FC040
BE007BD240
7F9697FE00
1BE902F400
ENDCHAR
STARTCHAR uni04210437
ENCODING -1
SWIDTH 973 0
DWIDTH 19 0
BBX 20 20 0 -5
BITMAP
006FD00000
01F9740000
07F0380000
0FD0780000
1FC0600000
2F40006F80
3F40019BE0
7F000203F0
7E000503F0
BE000807E0
BE00140BD0
BF00201F81
7F4180FD02
2FFF406F59
0BF8001FE0
000000BF80
000002AF40
0000072F40
0000077E00
000002F800
ENDCHAR
STARTCHAR uni04210445
ENCODING -1
SWIDTH 814 0
DWIDTH 16 0
BBX 17 15 0 0
BITMAP
006FD00000
01F9740000
07F0380000
0FD0780000
1FC0601E00
2F80051F00
3F401F4700
7F001F8900
7F000F9800
BE000FE000
BE000BD000
BF000FD080
7F407BE180
3FEBD3FB00
0BF901F800
ENDCHAR
STARTCHAR uni04040437
ENCODING -1
SWIDTH 973 0
DWIDTH 19 0
BBX 20 20 0 -5
BITMAP
006FD00000
01F9740000
07F0380000
0FD0780000
1F80600000
2F40006F80
3FFF019BE0
7F540203F0
7F000503F0
BE000807E0
BE00140BD0
BF00201F81
7F4180FD02
2FFF406F59
0BF8001FE0
000000BF80
000002AF40
0000072F40
0000077E00
000002F800
ENDCHAR
STARTCHAR uni04040445
ENCODING -1
SWIDTH 814 0
DWIDTH 16 0
BBX 17 15 0 0
BITMAP
006FD00000
01F9740000
07F0380000
0FD0780000
1F80601E00
2F40051F00
3FFF1F4600
7F541F8900
7E000FA800
BE000FE000
BE000BD000
BF000FD080
7F407BE180
3FEBD3FB00
0BF901F800
ENDCHAR
STARTCHAR uni04300445
ENCODING -1
SWIDTH 899 0
DWIDTH 18 0
BBX 20 11 -1 0
BITMAP
0000000064
01BEF4FCB8
07E7F4BC28
0FC2F0BD34
2F43F07DA0
3F07E07F80
3E07D03F00
7E0BD07F01
7F1FD1EF49
3FFBFF5FF8
1B92F80BD0
ENDCHAR
STARTCHAR uni04300447
ENCODING -1
SWIDTH 993 0
DWIDTH 20 0
BBX 22 10 -1 0
BITMAP
01BEF4FC3E00
07E7F5F87E00
0FC2F1F47D00
2F43F2F4BD00
3F07E2F5FC00
3E07D2FFF800
7E0BD0BAF810
7F1FC001F890
3FFBF001FF80
1B92D000BD00
ENDCHAR
ENDFONT
